<?xml version="1.0" encoding="utf-8" standalone="no"?>
<!DOCTYPE svg PUBLIC "-//W3C//DTD SVG 1.1//EN"
  "http://www.w3.org/Graphics/SVG/1.1/DTD/svg11.dtd">
<!-- Created with matplotlib (https://matplotlib.org/) -->
<svg height="489.102121pt" version="1.1" viewBox="0 0 977.441407 489.102121" width="977.441407pt" xmlns="http://www.w3.org/2000/svg" xmlns:xlink="http://www.w3.org/1999/xlink">
 <defs>
  <style type="text/css">
*{stroke-linecap:butt;stroke-linejoin:round;}
  </style>
 </defs>
 <g id="figure_1">
  <g id="patch_1">
   <path d="M 0 489.102121 
L 977.441407 489.102121 
L 977.441407 -0 
L 0 -0 
z
" style="fill:none;"/>
  </g>
  <g id="axes_1">
   <g id="patch_2">
    <path d="M 91.50125 435.231496 
L 970.241407 435.231496 
L 970.241407 7.2 
L 91.50125 7.2 
z
" style="fill:none;"/>
   </g>
   <g id="matplotlib.axis_1">
    <g id="xtick_1">
     <g id="line2d_1">
      <defs>
       <path d="M 0 0 
L 0 6 
" id="m823bebe3b9" style="stroke:#000000;stroke-width:1.25;"/>
      </defs>
      <g>
       <use style="stroke:#000000;stroke-width:1.25;" x="227.237508" xlink:href="#m823bebe3b9" y="435.231496"/>
      </g>
     </g>
     <g id="text_1">
      <!-- 1.5 -->
      <defs>
       <path d="M 37.25 0 
L 28.46875 0 
L 28.46875 56 
Q 25.296875 52.984375 20.140625 49.953125 
Q 14.984375 46.921875 10.890625 45.40625 
L 10.890625 53.90625 
Q 18.265625 57.375 23.78125 62.296875 
Q 29.296875 67.234375 31.59375 71.875 
L 37.25 71.875 
z
" id="ArialMT-49"/>
       <path d="M 9.078125 0 
L 9.078125 10.015625 
L 19.09375 10.015625 
L 19.09375 0 
z
" id="ArialMT-46"/>
       <path d="M 4.15625 18.75 
L 13.375 19.53125 
Q 14.40625 12.796875 18.140625 9.390625 
Q 21.875 6 27.15625 6 
Q 33.5 6 37.890625 10.78125 
Q 42.28125 15.578125 42.28125 23.484375 
Q 42.28125 31 38.0625 35.34375 
Q 33.84375 39.703125 27 39.703125 
Q 22.75 39.703125 19.328125 37.765625 
Q 15.921875 35.84375 13.96875 32.765625 
L 5.71875 33.84375 
L 12.640625 70.609375 
L 48.25 70.609375 
L 48.25 62.203125 
L 19.671875 62.203125 
L 15.828125 42.96875 
Q 22.265625 47.46875 29.34375 47.46875 
Q 38.71875 47.46875 45.15625 40.96875 
Q 51.609375 34.46875 51.609375 24.265625 
Q 51.609375 14.546875 45.953125 7.46875 
Q 39.0625 -1.21875 27.15625 -1.21875 
Q 17.390625 -1.21875 11.203125 4.25 
Q 5.03125 9.71875 4.15625 18.75 
z
" id="ArialMT-53"/>
      </defs>
      <g transform="translate(213.337508 459.047121)scale(0.2 -0.2)">
       <use xlink:href="#ArialMT-49"/>
       <use x="55.615234" xlink:href="#ArialMT-46"/>
       <use x="83.398438" xlink:href="#ArialMT-53"/>
      </g>
     </g>
    </g>
    <g id="xtick_2">
     <g id="line2d_2">
      <g>
       <use style="stroke:#000000;stroke-width:1.25;" x="396.010774" xlink:href="#m823bebe3b9" y="435.231496"/>
      </g>
     </g>
     <g id="text_2">
      <!-- 2.0 -->
      <defs>
       <path d="M 50.34375 8.453125 
L 50.34375 0 
L 3.03125 0 
Q 2.9375 3.171875 4.046875 6.109375 
Q 5.859375 10.9375 9.828125 15.625 
Q 13.8125 20.3125 21.34375 26.46875 
Q 33.015625 36.03125 37.109375 41.625 
Q 41.21875 47.21875 41.21875 52.203125 
Q 41.21875 57.421875 37.46875 61 
Q 33.734375 64.59375 27.734375 64.59375 
Q 21.390625 64.59375 17.578125 60.78125 
Q 13.765625 56.984375 13.71875 50.25 
L 4.6875 51.171875 
Q 5.609375 61.28125 11.65625 66.578125 
Q 17.71875 71.875 27.9375 71.875 
Q 38.234375 71.875 44.234375 66.15625 
Q 50.25 60.453125 50.25 52 
Q 50.25 47.703125 48.484375 43.546875 
Q 46.734375 39.40625 42.65625 34.8125 
Q 38.578125 30.21875 29.109375 22.21875 
Q 21.1875 15.578125 18.9375 13.203125 
Q 16.703125 10.84375 15.234375 8.453125 
z
" id="ArialMT-50"/>
       <path d="M 4.15625 35.296875 
Q 4.15625 48 6.765625 55.734375 
Q 9.375 63.484375 14.515625 67.671875 
Q 19.671875 71.875 27.484375 71.875 
Q 33.25 71.875 37.59375 69.546875 
Q 41.9375 67.234375 44.765625 62.859375 
Q 47.609375 58.5 49.21875 52.21875 
Q 50.828125 45.953125 50.828125 35.296875 
Q 50.828125 22.703125 48.234375 14.96875 
Q 45.65625 7.234375 40.5 3 
Q 35.359375 -1.21875 27.484375 -1.21875 
Q 17.140625 -1.21875 11.234375 6.203125 
Q 4.15625 15.140625 4.15625 35.296875 
z
M 13.1875 35.296875 
Q 13.1875 17.671875 17.3125 11.828125 
Q 21.4375 6 27.484375 6 
Q 33.546875 6 37.671875 11.859375 
Q 41.796875 17.71875 41.796875 35.296875 
Q 41.796875 52.984375 37.671875 58.78125 
Q 33.546875 64.59375 27.390625 64.59375 
Q 21.34375 64.59375 17.71875 59.46875 
Q 13.1875 52.9375 13.1875 35.296875 
z
" id="ArialMT-48"/>
      </defs>
      <g transform="translate(382.110774 459.047121)scale(0.2 -0.2)">
       <use xlink:href="#ArialMT-50"/>
       <use x="55.615234" xlink:href="#ArialMT-46"/>
       <use x="83.398438" xlink:href="#ArialMT-48"/>
      </g>
     </g>
    </g>
    <g id="xtick_3">
     <g id="line2d_3">
      <g>
       <use style="stroke:#000000;stroke-width:1.25;" x="564.78404" xlink:href="#m823bebe3b9" y="435.231496"/>
      </g>
     </g>
     <g id="text_3">
      <!-- 2.5 -->
      <g transform="translate(550.88404 459.047121)scale(0.2 -0.2)">
       <use xlink:href="#ArialMT-50"/>
       <use x="55.615234" xlink:href="#ArialMT-46"/>
       <use x="83.398438" xlink:href="#ArialMT-53"/>
      </g>
     </g>
    </g>
    <g id="xtick_4">
     <g id="line2d_4">
      <g>
       <use style="stroke:#000000;stroke-width:1.25;" x="733.557305" xlink:href="#m823bebe3b9" y="435.231496"/>
      </g>
     </g>
     <g id="text_4">
      <!-- 3.0 -->
      <defs>
       <path d="M 4.203125 18.890625 
L 12.984375 20.0625 
Q 14.5 12.59375 18.140625 9.296875 
Q 21.78125 6 27 6 
Q 33.203125 6 37.46875 10.296875 
Q 41.75 14.59375 41.75 20.953125 
Q 41.75 27 37.796875 30.921875 
Q 33.84375 34.859375 27.734375 34.859375 
Q 25.25 34.859375 21.53125 33.890625 
L 22.515625 41.609375 
Q 23.390625 41.5 23.921875 41.5 
Q 29.546875 41.5 34.03125 44.421875 
Q 38.53125 47.359375 38.53125 53.46875 
Q 38.53125 58.296875 35.25 61.46875 
Q 31.984375 64.65625 26.8125 64.65625 
Q 21.6875 64.65625 18.265625 61.421875 
Q 14.84375 58.203125 13.875 51.765625 
L 5.078125 53.328125 
Q 6.6875 62.15625 12.390625 67.015625 
Q 18.109375 71.875 26.609375 71.875 
Q 32.46875 71.875 37.390625 69.359375 
Q 42.328125 66.84375 44.9375 62.5 
Q 47.5625 58.15625 47.5625 53.265625 
Q 47.5625 48.640625 45.0625 44.828125 
Q 42.578125 41.015625 37.703125 38.765625 
Q 44.046875 37.3125 47.5625 32.6875 
Q 51.078125 28.078125 51.078125 21.140625 
Q 51.078125 11.765625 44.234375 5.25 
Q 37.40625 -1.265625 26.953125 -1.265625 
Q 17.53125 -1.265625 11.296875 4.34375 
Q 5.078125 9.96875 4.203125 18.890625 
z
" id="ArialMT-51"/>
      </defs>
      <g transform="translate(719.657305 459.047121)scale(0.2 -0.2)">
       <use xlink:href="#ArialMT-51"/>
       <use x="55.615234" xlink:href="#ArialMT-46"/>
       <use x="83.398438" xlink:href="#ArialMT-48"/>
      </g>
     </g>
    </g>
    <g id="xtick_5">
     <g id="line2d_5">
      <g>
       <use style="stroke:#000000;stroke-width:1.25;" x="902.330571" xlink:href="#m823bebe3b9" y="435.231496"/>
      </g>
     </g>
     <g id="text_5">
      <!-- 3.5 -->
      <g transform="translate(888.430571 459.047121)scale(0.2 -0.2)">
       <use xlink:href="#ArialMT-51"/>
       <use x="55.615234" xlink:href="#ArialMT-46"/>
       <use x="83.398438" xlink:href="#ArialMT-53"/>
      </g>
     </g>
    </g>
    <g id="text_6">
     <!-- $S_0$ -->
     <defs>
      <path d="M 60.296875 70.515625 
L 58.40625 60.890625 
Q 53.46875 63.53125 48.609375 64.875 
Q 43.75 66.21875 39.203125 66.21875 
Q 30.375 66.21875 25.140625 62.359375 
Q 19.921875 58.5 19.921875 52.09375 
Q 19.921875 48.578125 21.84375 46.703125 
Q 23.78125 44.828125 31.78125 42.671875 
L 37.703125 41.21875 
Q 47.703125 38.625 51.609375 34.640625 
Q 55.515625 30.671875 55.515625 23.484375 
Q 55.515625 12.453125 46.84375 5.515625 
Q 38.1875 -1.421875 24.03125 -1.421875 
Q 18.21875 -1.421875 12.359375 -0.265625 
Q 6.5 0.875 0.59375 3.21875 
L 2.59375 13.375 
Q 8.015625 10.015625 13.453125 8.296875 
Q 18.890625 6.59375 24.3125 6.59375 
Q 33.546875 6.59375 39.109375 10.6875 
Q 44.671875 14.796875 44.671875 21.390625 
Q 44.671875 25.78125 42.453125 28.046875 
Q 40.234375 30.328125 32.90625 32.171875 
L 27 33.6875 
Q 16.890625 36.328125 13.203125 39.765625 
Q 9.515625 43.21875 9.515625 49.421875 
Q 9.515625 60.296875 17.890625 67.25 
Q 26.265625 74.21875 39.703125 74.21875 
Q 44.921875 74.21875 50.046875 73.28125 
Q 55.171875 72.359375 60.296875 70.515625 
z
" id="DejaVuSans-Oblique-83"/>
      <path d="M 31.78125 66.40625 
Q 24.171875 66.40625 20.328125 58.90625 
Q 16.5 51.421875 16.5 36.375 
Q 16.5 21.390625 20.328125 13.890625 
Q 24.171875 6.390625 31.78125 6.390625 
Q 39.453125 6.390625 43.28125 13.890625 
Q 47.125 21.390625 47.125 36.375 
Q 47.125 51.421875 43.28125 58.90625 
Q 39.453125 66.40625 31.78125 66.40625 
z
M 31.78125 74.21875 
Q 44.046875 74.21875 50.515625 64.515625 
Q 56.984375 54.828125 56.984375 36.375 
Q 56.984375 17.96875 50.515625 8.265625 
Q 44.046875 -1.421875 31.78125 -1.421875 
Q 19.53125 -1.421875 13.0625 8.265625 
Q 6.59375 17.96875 6.59375 36.375 
Q 6.59375 54.828125 13.0625 64.515625 
Q 19.53125 74.21875 31.78125 74.21875 
z
" id="DejaVuSans-48"/>
     </defs>
     <g transform="translate(521.991329 478.722121)scale(0.16 -0.16)">
      <use transform="translate(0 0.78125)" xlink:href="#DejaVuSans-Oblique-83"/>
      <use transform="translate(63.476562 -15.625)scale(0.7)" xlink:href="#DejaVuSans-48"/>
     </g>
    </g>
   </g>
   <g id="matplotlib.axis_2">
    <g id="ytick_1">
     <g id="line2d_6">
      <defs>
       <path d="M 0 0 
L -6 0 
" id="m3779b0117e" style="stroke:#000000;stroke-width:1.25;"/>
      </defs>
      <g>
       <use style="stroke:#000000;stroke-width:1.25;" x="91.50125" xlink:href="#m3779b0117e" y="412.915023"/>
      </g>
     </g>
     <g id="text_7">
      <!-- −1500 -->
      <defs>
       <path d="M 52.828125 31.203125 
L 5.5625 31.203125 
L 5.5625 39.40625 
L 52.828125 39.40625 
z
" id="ArialMT-8722"/>
      </defs>
      <g transform="translate(25.8325 420.072836)scale(0.2 -0.2)">
       <use xlink:href="#ArialMT-8722"/>
       <use x="58.398438" xlink:href="#ArialMT-49"/>
       <use x="114.013672" xlink:href="#ArialMT-53"/>
       <use x="169.628906" xlink:href="#ArialMT-48"/>
       <use x="225.244141" xlink:href="#ArialMT-48"/>
      </g>
     </g>
    </g>
    <g id="ytick_2">
     <g id="line2d_7">
      <g>
       <use style="stroke:#000000;stroke-width:1.25;" x="91.50125" xlink:href="#m3779b0117e" y="359.856456"/>
      </g>
     </g>
     <g id="text_8">
      <!-- −1250 -->
      <g transform="translate(25.8325 367.014268)scale(0.2 -0.2)">
       <use xlink:href="#ArialMT-8722"/>
       <use x="58.398438" xlink:href="#ArialMT-49"/>
       <use x="114.013672" xlink:href="#ArialMT-50"/>
       <use x="169.628906" xlink:href="#ArialMT-53"/>
       <use x="225.244141" xlink:href="#ArialMT-48"/>
      </g>
     </g>
    </g>
    <g id="ytick_3">
     <g id="line2d_8">
      <g>
       <use style="stroke:#000000;stroke-width:1.25;" x="91.50125" xlink:href="#m3779b0117e" y="306.797888"/>
      </g>
     </g>
     <g id="text_9">
      <!-- −1000 -->
      <g transform="translate(25.8325 313.955701)scale(0.2 -0.2)">
       <use xlink:href="#ArialMT-8722"/>
       <use x="58.398438" xlink:href="#ArialMT-49"/>
       <use x="114.013672" xlink:href="#ArialMT-48"/>
       <use x="169.628906" xlink:href="#ArialMT-48"/>
       <use x="225.244141" xlink:href="#ArialMT-48"/>
      </g>
     </g>
    </g>
    <g id="ytick_4">
     <g id="line2d_9">
      <g>
       <use style="stroke:#000000;stroke-width:1.25;" x="91.50125" xlink:href="#m3779b0117e" y="253.739321"/>
      </g>
     </g>
     <g id="text_10">
      <!-- −750 -->
      <defs>
       <path d="M 4.734375 62.203125 
L 4.734375 70.65625 
L 51.078125 70.65625 
L 51.078125 63.8125 
Q 44.234375 56.546875 37.515625 44.484375 
Q 30.8125 32.421875 27.15625 19.671875 
Q 24.515625 10.6875 23.78125 0 
L 14.75 0 
Q 14.890625 8.453125 18.0625 20.40625 
Q 21.234375 32.375 27.171875 43.484375 
Q 33.109375 54.59375 39.796875 62.203125 
z
" id="ArialMT-55"/>
      </defs>
      <g transform="translate(36.954375 260.897133)scale(0.2 -0.2)">
       <use xlink:href="#ArialMT-8722"/>
       <use x="58.398438" xlink:href="#ArialMT-55"/>
       <use x="114.013672" xlink:href="#ArialMT-53"/>
       <use x="169.628906" xlink:href="#ArialMT-48"/>
      </g>
     </g>
    </g>
    <g id="ytick_5">
     <g id="line2d_10">
      <g>
       <use style="stroke:#000000;stroke-width:1.25;" x="91.50125" xlink:href="#m3779b0117e" y="200.680753"/>
      </g>
     </g>
     <g id="text_11">
      <!-- −500 -->
      <g transform="translate(36.954375 207.838566)scale(0.2 -0.2)">
       <use xlink:href="#ArialMT-8722"/>
       <use x="58.398438" xlink:href="#ArialMT-53"/>
       <use x="114.013672" xlink:href="#ArialMT-48"/>
       <use x="169.628906" xlink:href="#ArialMT-48"/>
      </g>
     </g>
    </g>
    <g id="ytick_6">
     <g id="line2d_11">
      <g>
       <use style="stroke:#000000;stroke-width:1.25;" x="91.50125" xlink:href="#m3779b0117e" y="147.622186"/>
      </g>
     </g>
     <g id="text_12">
      <!-- −250 -->
      <g transform="translate(36.954375 154.779998)scale(0.2 -0.2)">
       <use xlink:href="#ArialMT-8722"/>
       <use x="58.398438" xlink:href="#ArialMT-50"/>
       <use x="114.013672" xlink:href="#ArialMT-53"/>
       <use x="169.628906" xlink:href="#ArialMT-48"/>
      </g>
     </g>
    </g>
    <g id="ytick_7">
     <g id="line2d_12">
      <g>
       <use style="stroke:#000000;stroke-width:1.25;" x="91.50125" xlink:href="#m3779b0117e" y="94.563618"/>
      </g>
     </g>
     <g id="text_13">
      <!-- 0 -->
      <g transform="translate(70.879375 101.721431)scale(0.2 -0.2)">
       <use xlink:href="#ArialMT-48"/>
      </g>
     </g>
    </g>
    <g id="ytick_8">
     <g id="line2d_13">
      <g>
       <use style="stroke:#000000;stroke-width:1.25;" x="91.50125" xlink:href="#m3779b0117e" y="41.505051"/>
      </g>
     </g>
     <g id="text_14">
      <!-- 250 -->
      <g transform="translate(48.635625 48.662863)scale(0.2 -0.2)">
       <use xlink:href="#ArialMT-50"/>
       <use x="55.615234" xlink:href="#ArialMT-53"/>
       <use x="111.230469" xlink:href="#ArialMT-48"/>
      </g>
     </g>
    </g>
    <g id="text_15">
     <!-- $R_0$ -->
     <defs>
      <path d="M 25.203125 64.796875 
L 20.21875 38.921875 
L 32.90625 38.921875 
Q 40.375 38.921875 44.984375 43.046875 
Q 49.609375 47.171875 49.609375 53.8125 
Q 49.609375 59.125 46.5 61.953125 
Q 43.40625 64.796875 37.59375 64.796875 
z
M 43.3125 35.015625 
Q 46.4375 34.28125 48.515625 31.390625 
Q 50.59375 28.515625 53.328125 19.921875 
L 59.515625 0 
L 49.125 0 
L 43.40625 18.703125 
Q 41.21875 25.921875 38.328125 28.359375 
Q 35.453125 30.8125 29.5 30.8125 
L 18.609375 30.8125 
L 12.59375 0 
L 2.6875 0 
L 16.890625 72.90625 
L 39.109375 72.90625 
Q 49.21875 72.90625 54.609375 68.328125 
Q 60.015625 63.765625 60.015625 55.171875 
Q 60.015625 47.5625 55.421875 41.984375 
Q 50.828125 36.421875 43.3125 35.015625 
z
" id="DejaVuSans-Oblique-82"/>
     </defs>
     <g transform="translate(18.6525 230.575748)rotate(-90)scale(0.16 -0.16)">
      <use transform="translate(0 0.09375)" xlink:href="#DejaVuSans-Oblique-82"/>
      <use transform="translate(69.482422 -16.3125)scale(0.7)" xlink:href="#DejaVuSans-48"/>
     </g>
    </g>
   </g>
   <g id="PathCollection_1">
    <defs>
     <path d="M 0 3 
C 0.795609 3 1.55874 2.683901 2.12132 2.12132 
C 2.683901 1.55874 3 0.795609 3 0 
C 3 -0.795609 2.683901 -1.55874 2.12132 -2.12132 
C 1.55874 -2.683901 0.795609 -3 0 -3 
C -0.795609 -3 -1.55874 -2.683901 -2.12132 -2.12132 
C -2.683901 -1.55874 -3 -0.795609 -3 0 
C -3 0.795609 -2.683901 1.55874 -2.12132 2.12132 
C -1.55874 2.683901 -0.795609 3 0 3 
z
" id="C0_0_b55455cd19"/>
    </defs>
    <g clip-path="url(#p2f09eb11ed)">
     <use style="fill:#dd8452;stroke:#ffffff;stroke-width:0.48;" x="619.437939" xlink:href="#C0_0_b55455cd19" y="329.03954"/>
    </g>
    <g clip-path="url(#p2f09eb11ed)">
     <use style="fill:#dd8452;stroke:#ffffff;stroke-width:0.48;" x="654.558543" xlink:href="#C0_0_b55455cd19" y="395.6518"/>
    </g>
    <g clip-path="url(#p2f09eb11ed)">
     <use style="fill:#dd8452;stroke:#ffffff;stroke-width:0.48;" x="292.046771" xlink:href="#C0_0_b55455cd19" y="137.357723"/>
    </g>
    <g clip-path="url(#p2f09eb11ed)">
     <use style="fill:#dd8452;stroke:#ffffff;stroke-width:0.48;" x="741.88014" xlink:href="#C0_0_b55455cd19" y="279.308259"/>
    </g>
    <g clip-path="url(#p2f09eb11ed)">
     <use style="fill:#dd8452;stroke:#ffffff;stroke-width:0.48;" x="448.77677" xlink:href="#C0_0_b55455cd19" y="259.131939"/>
    </g>
    <g clip-path="url(#p2f09eb11ed)">
     <use style="fill:#dd8452;stroke:#ffffff;stroke-width:0.48;" x="610.029176" xlink:href="#C0_0_b55455cd19" y="130.039036"/>
    </g>
    <g clip-path="url(#p2f09eb11ed)">
     <use style="fill:#dd8452;stroke:#ffffff;stroke-width:0.48;" x="322.558626" xlink:href="#C0_0_b55455cd19" y="272.226078"/>
    </g>
    <g clip-path="url(#p2f09eb11ed)">
     <use style="fill:#dd8452;stroke:#ffffff;stroke-width:0.48;" x="715.006373" xlink:href="#C0_0_b55455cd19" y="341.905349"/>
    </g>
    <g clip-path="url(#p2f09eb11ed)">
     <use style="fill:#dd8452;stroke:#ffffff;stroke-width:0.48;" x="522.639994" xlink:href="#C0_0_b55455cd19" y="210.903622"/>
    </g>
    <g clip-path="url(#p2f09eb11ed)">
     <use style="fill:#dd8452;stroke:#ffffff;stroke-width:0.48;" x="259.423017" xlink:href="#C0_0_b55455cd19" y="188.752794"/>
    </g>
    <g clip-path="url(#p2f09eb11ed)">
     <use style="fill:#dd8452;stroke:#ffffff;stroke-width:0.48;" x="407.216884" xlink:href="#C0_0_b55455cd19" y="245.979938"/>
    </g>
    <g clip-path="url(#p2f09eb11ed)">
     <use style="fill:#dd8452;stroke:#ffffff;stroke-width:0.48;" x="344.027532" xlink:href="#C0_0_b55455cd19" y="258.229349"/>
    </g>
    <g clip-path="url(#p2f09eb11ed)">
     <use style="fill:#dd8452;stroke:#ffffff;stroke-width:0.48;" x="622.487498" xlink:href="#C0_0_b55455cd19" y="261.319096"/>
    </g>
    <g clip-path="url(#p2f09eb11ed)">
     <use style="fill:#dd8452;stroke:#ffffff;stroke-width:0.48;" x="688.365949" xlink:href="#C0_0_b55455cd19" y="245.664332"/>
    </g>
    <g clip-path="url(#p2f09eb11ed)">
     <use style="fill:#dd8452;stroke:#ffffff;stroke-width:0.48;" x="507.156155" xlink:href="#C0_0_b55455cd19" y="245.358958"/>
    </g>
    <g clip-path="url(#p2f09eb11ed)">
     <use style="fill:#dd8452;stroke:#ffffff;stroke-width:0.48;" x="241.531085" xlink:href="#C0_0_b55455cd19" y="180.611262"/>
    </g>
    <g clip-path="url(#p2f09eb11ed)">
     <use style="fill:#dd8452;stroke:#ffffff;stroke-width:0.48;" x="410.220307" xlink:href="#C0_0_b55455cd19" y="194.723979"/>
    </g>
    <g clip-path="url(#p2f09eb11ed)">
     <use style="fill:#dd8452;stroke:#ffffff;stroke-width:0.48;" x="386.003306" xlink:href="#C0_0_b55455cd19" y="204.126828"/>
    </g>
    <g clip-path="url(#p2f09eb11ed)">
     <use style="fill:#dd8452;stroke:#ffffff;stroke-width:0.48;" x="563.701986" xlink:href="#C0_0_b55455cd19" y="203.15888"/>
    </g>
    <g clip-path="url(#p2f09eb11ed)">
     <use style="fill:#dd8452;stroke:#ffffff;stroke-width:0.48;" x="723.610106" xlink:href="#C0_0_b55455cd19" y="305.34884"/>
    </g>
    <g clip-path="url(#p2f09eb11ed)">
     <use style="fill:#dd8452;stroke:#ffffff;stroke-width:0.48;" x="537.811928" xlink:href="#C0_0_b55455cd19" y="266.392043"/>
    </g>
    <g clip-path="url(#p2f09eb11ed)">
     <use style="fill:#dd8452;stroke:#ffffff;stroke-width:0.48;" x="531.497569" xlink:href="#C0_0_b55455cd19" y="255.338966"/>
    </g>
    <g clip-path="url(#p2f09eb11ed)">
     <use style="fill:#dd8452;stroke:#ffffff;stroke-width:0.48;" x="295.564446" xlink:href="#C0_0_b55455cd19" y="107.07518"/>
    </g>
    <g clip-path="url(#p2f09eb11ed)">
     <use style="fill:#dd8452;stroke:#ffffff;stroke-width:0.48;" x="580.936184" xlink:href="#C0_0_b55455cd19" y="368.191154"/>
    </g>
    <g clip-path="url(#p2f09eb11ed)">
     <use style="fill:#dd8452;stroke:#ffffff;stroke-width:0.48;" x="399.737434" xlink:href="#C0_0_b55455cd19" y="157.249795"/>
    </g>
    <g clip-path="url(#p2f09eb11ed)">
     <use style="fill:#dd8452;stroke:#ffffff;stroke-width:0.48;" x="384.918919" xlink:href="#C0_0_b55455cd19" y="268.856445"/>
    </g>
    <g clip-path="url(#p2f09eb11ed)">
     <use style="fill:#dd8452;stroke:#ffffff;stroke-width:0.48;" x="365.746313" xlink:href="#C0_0_b55455cd19" y="312.213367"/>
    </g>
    <g clip-path="url(#p2f09eb11ed)">
     <use style="fill:#dd8452;stroke:#ffffff;stroke-width:0.48;" x="606.085604" xlink:href="#C0_0_b55455cd19" y="281.838814"/>
    </g>
    <g clip-path="url(#p2f09eb11ed)">
     <use style="fill:#dd8452;stroke:#ffffff;stroke-width:0.48;" x="580.68448" xlink:href="#C0_0_b55455cd19" y="358.763997"/>
    </g>
    <g clip-path="url(#p2f09eb11ed)">
     <use style="fill:#dd8452;stroke:#ffffff;stroke-width:0.48;" x="381.882116" xlink:href="#C0_0_b55455cd19" y="242.781302"/>
    </g>
    <g clip-path="url(#p2f09eb11ed)">
     <use style="fill:#dd8452;stroke:#ffffff;stroke-width:0.48;" x="548.863383" xlink:href="#C0_0_b55455cd19" y="216.656898"/>
    </g>
    <g clip-path="url(#p2f09eb11ed)">
     <use style="fill:#dd8452;stroke:#ffffff;stroke-width:0.48;" x="373.694464" xlink:href="#C0_0_b55455cd19" y="261.540971"/>
    </g>
    <g clip-path="url(#p2f09eb11ed)">
     <use style="fill:#dd8452;stroke:#ffffff;stroke-width:0.48;" x="670.219248" xlink:href="#C0_0_b55455cd19" y="415.775519"/>
    </g>
    <g clip-path="url(#p2f09eb11ed)">
     <use style="fill:#dd8452;stroke:#ffffff;stroke-width:0.48;" x="283.818283" xlink:href="#C0_0_b55455cd19" y="253.496676"/>
    </g>
    <g clip-path="url(#p2f09eb11ed)">
     <use style="fill:#4c72b0;stroke:#ffffff;stroke-width:0.48;" x="532.778249" xlink:href="#C0_0_b55455cd19" y="90.945862"/>
    </g>
    <g clip-path="url(#p2f09eb11ed)">
     <use style="fill:#dd8452;stroke:#ffffff;stroke-width:0.48;" x="286.569506" xlink:href="#C0_0_b55455cd19" y="255.968158"/>
    </g>
    <g clip-path="url(#p2f09eb11ed)">
     <use style="fill:#dd8452;stroke:#ffffff;stroke-width:0.48;" x="731.945873" xlink:href="#C0_0_b55455cd19" y="414.122076"/>
    </g>
    <g clip-path="url(#p2f09eb11ed)">
     <use style="fill:#dd8452;stroke:#ffffff;stroke-width:0.48;" x="532.366707" xlink:href="#C0_0_b55455cd19" y="356.88807"/>
    </g>
    <g clip-path="url(#p2f09eb11ed)">
     <use style="fill:#dd8452;stroke:#ffffff;stroke-width:0.48;" x="602.342685" xlink:href="#C0_0_b55455cd19" y="318.165695"/>
    </g>
    <g clip-path="url(#p2f09eb11ed)">
     <use style="fill:#dd8452;stroke:#ffffff;stroke-width:0.48;" x="445.758924" xlink:href="#C0_0_b55455cd19" y="248.61677"/>
    </g>
    <g clip-path="url(#p2f09eb11ed)">
     <use style="fill:#dd8452;stroke:#ffffff;stroke-width:0.48;" x="661.412575" xlink:href="#C0_0_b55455cd19" y="228.337054"/>
    </g>
    <g clip-path="url(#p2f09eb11ed)">
     <use style="fill:#dd8452;stroke:#ffffff;stroke-width:0.48;" x="529.36892" xlink:href="#C0_0_b55455cd19" y="286.458571"/>
    </g>
    <g clip-path="url(#p2f09eb11ed)">
     <use style="fill:#dd8452;stroke:#ffffff;stroke-width:0.48;" x="930.298673" xlink:href="#C0_0_b55455cd19" y="407.693205"/>
    </g>
    <g clip-path="url(#p2f09eb11ed)">
     <use style="fill:#dd8452;stroke:#ffffff;stroke-width:0.48;" x="578.561769" xlink:href="#C0_0_b55455cd19" y="216.176785"/>
    </g>
    <g clip-path="url(#p2f09eb11ed)">
     <use style="fill:#dd8452;stroke:#ffffff;stroke-width:0.48;" x="349.519882" xlink:href="#C0_0_b55455cd19" y="273.580696"/>
    </g>
    <g clip-path="url(#p2f09eb11ed)">
     <use style="fill:#dd8452;stroke:#ffffff;stroke-width:0.48;" x="280.655647" xlink:href="#C0_0_b55455cd19" y="185.242888"/>
    </g>
    <g clip-path="url(#p2f09eb11ed)">
     <use style="fill:#4c72b0;stroke:#ffffff;stroke-width:0.48;" x="131.443984" xlink:href="#C0_0_b55455cd19" y="26.655977"/>
    </g>
    <g clip-path="url(#p2f09eb11ed)">
     <use style="fill:#dd8452;stroke:#ffffff;stroke-width:0.48;" x="557.585213" xlink:href="#C0_0_b55455cd19" y="292.939572"/>
    </g>
    <g clip-path="url(#p2f09eb11ed)">
     <use style="fill:#dd8452;stroke:#ffffff;stroke-width:0.48;" x="437.04112" xlink:href="#C0_0_b55455cd19" y="120.128749"/>
    </g>
    <g clip-path="url(#p2f09eb11ed)">
     <use style="fill:#dd8452;stroke:#ffffff;stroke-width:0.48;" x="359.435415" xlink:href="#C0_0_b55455cd19" y="229.816453"/>
    </g>
    <g clip-path="url(#p2f09eb11ed)">
     <use style="fill:#dd8452;stroke:#ffffff;stroke-width:0.48;" x="270.642816" xlink:href="#C0_0_b55455cd19" y="212.072153"/>
    </g>
    <g clip-path="url(#p2f09eb11ed)">
     <use style="fill:#dd8452;stroke:#ffffff;stroke-width:0.48;" x="382.829226" xlink:href="#C0_0_b55455cd19" y="222.744416"/>
    </g>
    <g clip-path="url(#p2f09eb11ed)">
     <use style="fill:#dd8452;stroke:#ffffff;stroke-width:0.48;" x="379.487573" xlink:href="#C0_0_b55455cd19" y="291.301805"/>
    </g>
    <g clip-path="url(#p2f09eb11ed)">
     <use style="fill:#dd8452;stroke:#ffffff;stroke-width:0.48;" x="624.759275" xlink:href="#C0_0_b55455cd19" y="235.717375"/>
    </g>
    <g clip-path="url(#p2f09eb11ed)">
     <use style="fill:#dd8452;stroke:#ffffff;stroke-width:0.48;" x="557.830819" xlink:href="#C0_0_b55455cd19" y="237.356123"/>
    </g>
    <g clip-path="url(#p2f09eb11ed)">
     <use style="fill:#dd8452;stroke:#ffffff;stroke-width:0.48;" x="571.055703" xlink:href="#C0_0_b55455cd19" y="211.623147"/>
    </g>
    <g clip-path="url(#p2f09eb11ed)">
     <use style="fill:#dd8452;stroke:#ffffff;stroke-width:0.48;" x="455.541557" xlink:href="#C0_0_b55455cd19" y="186.90595"/>
    </g>
    <g clip-path="url(#p2f09eb11ed)">
     <use style="fill:#dd8452;stroke:#ffffff;stroke-width:0.48;" x="615.051296" xlink:href="#C0_0_b55455cd19" y="358.582626"/>
    </g>
    <g clip-path="url(#p2f09eb11ed)">
     <use style="fill:#dd8452;stroke:#ffffff;stroke-width:0.48;" x="437.308193" xlink:href="#C0_0_b55455cd19" y="309.800841"/>
    </g>
    <g clip-path="url(#p2f09eb11ed)">
     <use style="fill:#dd8452;stroke:#ffffff;stroke-width:0.48;" x="378.201978" xlink:href="#C0_0_b55455cd19" y="234.188412"/>
    </g>
    <g clip-path="url(#p2f09eb11ed)">
     <use style="fill:#dd8452;stroke:#ffffff;stroke-width:0.48;" x="539.904581" xlink:href="#C0_0_b55455cd19" y="198.382789"/>
    </g>
    <g clip-path="url(#p2f09eb11ed)">
     <use style="fill:#dd8452;stroke:#ffffff;stroke-width:0.48;" x="498.27769" xlink:href="#C0_0_b55455cd19" y="164.405632"/>
    </g>
    <g clip-path="url(#p2f09eb11ed)">
     <use style="fill:#dd8452;stroke:#ffffff;stroke-width:0.48;" x="697.73566" xlink:href="#C0_0_b55455cd19" y="271.13596"/>
    </g>
    <g clip-path="url(#p2f09eb11ed)">
     <use style="fill:#dd8452;stroke:#ffffff;stroke-width:0.48;" x="516.5124" xlink:href="#C0_0_b55455cd19" y="232.5552"/>
    </g>
    <g clip-path="url(#p2f09eb11ed)">
     <use style="fill:#dd8452;stroke:#ffffff;stroke-width:0.48;" x="556.170451" xlink:href="#C0_0_b55455cd19" y="249.202023"/>
    </g>
    <g clip-path="url(#p2f09eb11ed)">
     <use style="fill:#dd8452;stroke:#ffffff;stroke-width:0.48;" x="464.172567" xlink:href="#C0_0_b55455cd19" y="217.252791"/>
    </g>
    <g clip-path="url(#p2f09eb11ed)">
     <use style="fill:#dd8452;stroke:#ffffff;stroke-width:0.48;" x="506.511157" xlink:href="#C0_0_b55455cd19" y="150.586716"/>
    </g>
    <g clip-path="url(#p2f09eb11ed)">
     <use style="fill:#dd8452;stroke:#ffffff;stroke-width:0.48;" x="358.511357" xlink:href="#C0_0_b55455cd19" y="187.334003"/>
    </g>
    <g clip-path="url(#p2f09eb11ed)">
     <use style="fill:#dd8452;stroke:#ffffff;stroke-width:0.48;" x="723.560902" xlink:href="#C0_0_b55455cd19" y="197.848234"/>
    </g>
    <g clip-path="url(#p2f09eb11ed)">
     <use style="fill:#dd8452;stroke:#ffffff;stroke-width:0.48;" x="510.115751" xlink:href="#C0_0_b55455cd19" y="317.926777"/>
    </g>
    <g clip-path="url(#p2f09eb11ed)">
     <use style="fill:#dd8452;stroke:#ffffff;stroke-width:0.48;" x="287.265217" xlink:href="#C0_0_b55455cd19" y="201.072158"/>
    </g>
    <g clip-path="url(#p2f09eb11ed)">
     <use style="fill:#dd8452;stroke:#ffffff;stroke-width:0.48;" x="427.95204" xlink:href="#C0_0_b55455cd19" y="254.379305"/>
    </g>
    <g clip-path="url(#p2f09eb11ed)">
     <use style="fill:#dd8452;stroke:#ffffff;stroke-width:0.48;" x="617.938178" xlink:href="#C0_0_b55455cd19" y="191.47627"/>
    </g>
    <g clip-path="url(#p2f09eb11ed)">
     <use style="fill:#dd8452;stroke:#ffffff;stroke-width:0.48;" x="589.363003" xlink:href="#C0_0_b55455cd19" y="253.524429"/>
    </g>
    <g clip-path="url(#p2f09eb11ed)">
     <use style="fill:#dd8452;stroke:#ffffff;stroke-width:0.48;" x="399.226333" xlink:href="#C0_0_b55455cd19" y="225.40351"/>
    </g>
    <g clip-path="url(#p2f09eb11ed)">
     <use style="fill:#dd8452;stroke:#ffffff;stroke-width:0.48;" x="360.505992" xlink:href="#C0_0_b55455cd19" y="288.854645"/>
    </g>
    <g clip-path="url(#p2f09eb11ed)">
     <use style="fill:#dd8452;stroke:#ffffff;stroke-width:0.48;" x="544.192376" xlink:href="#C0_0_b55455cd19" y="302.921787"/>
    </g>
    <g clip-path="url(#p2f09eb11ed)">
     <use style="fill:#dd8452;stroke:#ffffff;stroke-width:0.48;" x="514.019309" xlink:href="#C0_0_b55455cd19" y="182.782429"/>
    </g>
    <g clip-path="url(#p2f09eb11ed)">
     <use style="fill:#dd8452;stroke:#ffffff;stroke-width:0.48;" x="450.967991" xlink:href="#C0_0_b55455cd19" y="257.40475"/>
    </g>
    <g clip-path="url(#p2f09eb11ed)">
     <use style="fill:#dd8452;stroke:#ffffff;stroke-width:0.48;" x="653.028082" xlink:href="#C0_0_b55455cd19" y="349.167997"/>
    </g>
    <g clip-path="url(#p2f09eb11ed)">
     <use style="fill:#dd8452;stroke:#ffffff;stroke-width:0.48;" x="500.942395" xlink:href="#C0_0_b55455cd19" y="253.235025"/>
    </g>
    <g clip-path="url(#p2f09eb11ed)">
     <use style="fill:#dd8452;stroke:#ffffff;stroke-width:0.48;" x="436.174883" xlink:href="#C0_0_b55455cd19" y="224.247598"/>
    </g>
    <g clip-path="url(#p2f09eb11ed)">
     <use style="fill:#dd8452;stroke:#ffffff;stroke-width:0.48;" x="547.881621" xlink:href="#C0_0_b55455cd19" y="247.849191"/>
    </g>
    <g clip-path="url(#p2f09eb11ed)">
     <use style="fill:#dd8452;stroke:#ffffff;stroke-width:0.48;" x="310.230716" xlink:href="#C0_0_b55455cd19" y="214.099093"/>
    </g>
    <g clip-path="url(#p2f09eb11ed)">
     <use style="fill:#dd8452;stroke:#ffffff;stroke-width:0.48;" x="477.26598" xlink:href="#C0_0_b55455cd19" y="344.44889"/>
    </g>
    <g clip-path="url(#p2f09eb11ed)">
     <use style="fill:#dd8452;stroke:#ffffff;stroke-width:0.48;" x="308.662446" xlink:href="#C0_0_b55455cd19" y="264.010596"/>
    </g>
    <g clip-path="url(#p2f09eb11ed)">
     <use style="fill:#dd8452;stroke:#ffffff;stroke-width:0.48;" x="546.017346" xlink:href="#C0_0_b55455cd19" y="221.574942"/>
    </g>
    <g clip-path="url(#p2f09eb11ed)">
     <use style="fill:#dd8452;stroke:#ffffff;stroke-width:0.48;" x="600.244631" xlink:href="#C0_0_b55455cd19" y="281.466245"/>
    </g>
    <g clip-path="url(#p2f09eb11ed)">
     <use style="fill:#dd8452;stroke:#ffffff;stroke-width:0.48;" x="727.274838" xlink:href="#C0_0_b55455cd19" y="217.244159"/>
    </g>
    <g clip-path="url(#p2f09eb11ed)">
     <use style="fill:#dd8452;stroke:#ffffff;stroke-width:0.48;" x="762.6446" xlink:href="#C0_0_b55455cd19" y="355.961431"/>
    </g>
    <g clip-path="url(#p2f09eb11ed)">
     <use style="fill:#dd8452;stroke:#ffffff;stroke-width:0.48;" x="451.497023" xlink:href="#C0_0_b55455cd19" y="97.712046"/>
    </g>
    <g clip-path="url(#p2f09eb11ed)">
     <use style="fill:#dd8452;stroke:#ffffff;stroke-width:0.48;" x="582.52298" xlink:href="#C0_0_b55455cd19" y="325.484899"/>
    </g>
    <g clip-path="url(#p2f09eb11ed)">
     <use style="fill:#dd8452;stroke:#ffffff;stroke-width:0.48;" x="589.149455" xlink:href="#C0_0_b55455cd19" y="133.192346"/>
    </g>
    <g clip-path="url(#p2f09eb11ed)">
     <use style="fill:#dd8452;stroke:#ffffff;stroke-width:0.48;" x="574.465368" xlink:href="#C0_0_b55455cd19" y="300.620549"/>
    </g>
    <g clip-path="url(#p2f09eb11ed)">
     <use style="fill:#dd8452;stroke:#ffffff;stroke-width:0.48;" x="323.155622" xlink:href="#C0_0_b55455cd19" y="243.675191"/>
    </g>
    <g clip-path="url(#p2f09eb11ed)">
     <use style="fill:#dd8452;stroke:#ffffff;stroke-width:0.48;" x="474.19948" xlink:href="#C0_0_b55455cd19" y="280.295882"/>
    </g>
    <g clip-path="url(#p2f09eb11ed)">
     <use style="fill:#dd8452;stroke:#ffffff;stroke-width:0.48;" x="507.870728" xlink:href="#C0_0_b55455cd19" y="122.411053"/>
    </g>
    <g clip-path="url(#p2f09eb11ed)">
     <use style="fill:#dd8452;stroke:#ffffff;stroke-width:0.48;" x="509.67038" xlink:href="#C0_0_b55455cd19" y="393.417497"/>
    </g>
    <g clip-path="url(#p2f09eb11ed)">
     <use style="fill:#dd8452;stroke:#ffffff;stroke-width:0.48;" x="629.692895" xlink:href="#C0_0_b55455cd19" y="300.176373"/>
    </g>
    <g clip-path="url(#p2f09eb11ed)">
     <use style="fill:#dd8452;stroke:#ffffff;stroke-width:0.48;" x="801.244638" xlink:href="#C0_0_b55455cd19" y="332.987452"/>
    </g>
   </g>
   <g id="PathCollection_2"/>
   <g id="PathCollection_3"/>
   <g id="patch_3">
    <path d="M 91.50125 435.231496 
L 91.50125 7.2 
" style="fill:none;stroke:#262626;stroke-linecap:square;stroke-linejoin:miter;stroke-width:1.25;"/>
   </g>
   <g id="patch_4">
    <path d="M 970.241407 435.231496 
L 970.241407 7.2 
" style="fill:none;stroke:#262626;stroke-linecap:square;stroke-linejoin:miter;stroke-width:1.25;"/>
   </g>
   <g id="patch_5">
    <path d="M 91.50125 435.231496 
L 970.241407 435.231496 
" style="fill:none;stroke:#262626;stroke-linecap:square;stroke-linejoin:miter;stroke-width:1.25;"/>
   </g>
   <g id="patch_6">
    <path d="M 91.50125 7.2 
L 970.241407 7.2 
" style="fill:none;stroke:#262626;stroke-linecap:square;stroke-linejoin:miter;stroke-width:1.25;"/>
   </g>
   <g id="legend_1">
    <g id="patch_7">
     <path d="M 871.141407 64.019687 
L 962.541407 64.019687 
Q 964.741407 64.019687 964.741407 61.819687 
L 964.741407 14.9 
Q 964.741407 12.7 962.541407 12.7 
L 871.141407 12.7 
Q 868.941407 12.7 868.941407 14.9 
L 868.941407 61.819687 
Q 868.941407 64.019687 871.141407 64.019687 
z
" style="fill:#ffffff;opacity:0.8;stroke:#cccccc;stroke-linejoin:miter;"/>
    </g>
    <g id="text_16">
     <!-- Failure index ($I$): -->
     <defs>
      <path d="M 8.203125 0 
L 8.203125 71.578125 
L 56.5 71.578125 
L 56.5 63.140625 
L 17.671875 63.140625 
L 17.671875 40.96875 
L 51.265625 40.96875 
L 51.265625 32.515625 
L 17.671875 32.515625 
L 17.671875 0 
z
" id="ArialMT-70"/>
      <path d="M 40.4375 6.390625 
Q 35.546875 2.25 31.03125 0.53125 
Q 26.515625 -1.171875 21.34375 -1.171875 
Q 12.796875 -1.171875 8.203125 3 
Q 3.609375 7.171875 3.609375 13.671875 
Q 3.609375 17.484375 5.34375 20.625 
Q 7.078125 23.78125 9.890625 25.6875 
Q 12.703125 27.59375 16.21875 28.5625 
Q 18.796875 29.25 24.03125 29.890625 
Q 34.671875 31.15625 39.703125 32.90625 
Q 39.75 34.71875 39.75 35.203125 
Q 39.75 40.578125 37.25 42.78125 
Q 33.890625 45.75 27.25 45.75 
Q 21.046875 45.75 18.09375 43.578125 
Q 15.140625 41.40625 13.71875 35.890625 
L 5.125 37.0625 
Q 6.296875 42.578125 8.984375 45.96875 
Q 11.671875 49.359375 16.75 51.1875 
Q 21.828125 53.03125 28.515625 53.03125 
Q 35.15625 53.03125 39.296875 51.46875 
Q 43.453125 49.90625 45.40625 47.53125 
Q 47.359375 45.171875 48.140625 41.546875 
Q 48.578125 39.3125 48.578125 33.453125 
L 48.578125 21.734375 
Q 48.578125 9.46875 49.140625 6.21875 
Q 49.703125 2.984375 51.375 0 
L 42.1875 0 
Q 40.828125 2.734375 40.4375 6.390625 
z
M 39.703125 26.03125 
Q 34.90625 24.078125 25.34375 22.703125 
Q 19.921875 21.921875 17.671875 20.9375 
Q 15.4375 19.96875 14.203125 18.09375 
Q 12.984375 16.21875 12.984375 13.921875 
Q 12.984375 10.40625 15.640625 8.0625 
Q 18.3125 5.71875 23.4375 5.71875 
Q 28.515625 5.71875 32.46875 7.9375 
Q 36.421875 10.15625 38.28125 14.015625 
Q 39.703125 17 39.703125 22.796875 
z
" id="ArialMT-97"/>
      <path d="M 6.640625 61.46875 
L 6.640625 71.578125 
L 15.4375 71.578125 
L 15.4375 61.46875 
z
M 6.640625 0 
L 6.640625 51.859375 
L 15.4375 51.859375 
L 15.4375 0 
z
" id="ArialMT-105"/>
      <path d="M 6.390625 0 
L 6.390625 71.578125 
L 15.1875 71.578125 
L 15.1875 0 
z
" id="ArialMT-108"/>
      <path d="M 40.578125 0 
L 40.578125 7.625 
Q 34.515625 -1.171875 24.125 -1.171875 
Q 19.53125 -1.171875 15.546875 0.578125 
Q 11.578125 2.34375 9.640625 5 
Q 7.71875 7.671875 6.9375 11.53125 
Q 6.390625 14.109375 6.390625 19.734375 
L 6.390625 51.859375 
L 15.1875 51.859375 
L 15.1875 23.09375 
Q 15.1875 16.21875 15.71875 13.8125 
Q 16.546875 10.359375 19.234375 8.375 
Q 21.921875 6.390625 25.875 6.390625 
Q 29.828125 6.390625 33.296875 8.421875 
Q 36.765625 10.453125 38.203125 13.9375 
Q 39.65625 17.4375 39.65625 24.078125 
L 39.65625 51.859375 
L 48.4375 51.859375 
L 48.4375 0 
z
" id="ArialMT-117"/>
      <path d="M 6.5 0 
L 6.5 51.859375 
L 14.40625 51.859375 
L 14.40625 44 
Q 17.4375 49.515625 20 51.265625 
Q 22.5625 53.03125 25.640625 53.03125 
Q 30.078125 53.03125 34.671875 50.203125 
L 31.640625 42.046875 
Q 28.421875 43.953125 25.203125 43.953125 
Q 22.3125 43.953125 20.015625 42.21875 
Q 17.71875 40.484375 16.75 37.40625 
Q 15.28125 32.71875 15.28125 27.15625 
L 15.28125 0 
z
" id="ArialMT-114"/>
      <path d="M 42.09375 16.703125 
L 51.171875 15.578125 
Q 49.03125 7.625 43.21875 3.21875 
Q 37.40625 -1.171875 28.375 -1.171875 
Q 17 -1.171875 10.328125 5.828125 
Q 3.65625 12.84375 3.65625 25.484375 
Q 3.65625 38.578125 10.390625 45.796875 
Q 17.140625 53.03125 27.875 53.03125 
Q 38.28125 53.03125 44.875 45.953125 
Q 51.46875 38.875 51.46875 26.03125 
Q 51.46875 25.25 51.421875 23.6875 
L 12.75 23.6875 
Q 13.234375 15.140625 17.578125 10.59375 
Q 21.921875 6.0625 28.421875 6.0625 
Q 33.25 6.0625 36.671875 8.59375 
Q 40.09375 11.140625 42.09375 16.703125 
z
M 13.234375 30.90625 
L 42.1875 30.90625 
Q 41.609375 37.453125 38.875 40.71875 
Q 34.671875 45.796875 27.984375 45.796875 
Q 21.921875 45.796875 17.796875 41.75 
Q 13.671875 37.703125 13.234375 30.90625 
z
" id="ArialMT-101"/>
      <path id="ArialMT-32"/>
      <path d="M 6.59375 0 
L 6.59375 51.859375 
L 14.5 51.859375 
L 14.5 44.484375 
Q 20.21875 53.03125 31 53.03125 
Q 35.6875 53.03125 39.625 51.34375 
Q 43.5625 49.65625 45.515625 46.921875 
Q 47.46875 44.1875 48.25 40.4375 
Q 48.734375 37.984375 48.734375 31.890625 
L 48.734375 0 
L 39.9375 0 
L 39.9375 31.546875 
Q 39.9375 36.921875 38.90625 39.578125 
Q 37.890625 42.234375 35.28125 43.8125 
Q 32.671875 45.40625 29.15625 45.40625 
Q 23.53125 45.40625 19.453125 41.84375 
Q 15.375 38.28125 15.375 28.328125 
L 15.375 0 
z
" id="ArialMT-110"/>
      <path d="M 40.234375 0 
L 40.234375 6.546875 
Q 35.296875 -1.171875 25.734375 -1.171875 
Q 19.53125 -1.171875 14.328125 2.25 
Q 9.125 5.671875 6.265625 11.796875 
Q 3.421875 17.921875 3.421875 25.875 
Q 3.421875 33.640625 6 39.96875 
Q 8.59375 46.296875 13.765625 49.65625 
Q 18.953125 53.03125 25.34375 53.03125 
Q 30.03125 53.03125 33.6875 51.046875 
Q 37.359375 49.078125 39.65625 45.90625 
L 39.65625 71.578125 
L 48.390625 71.578125 
L 48.390625 0 
z
M 12.453125 25.875 
Q 12.453125 15.921875 16.640625 10.984375 
Q 20.84375 6.0625 26.5625 6.0625 
Q 32.328125 6.0625 36.34375 10.765625 
Q 40.375 15.484375 40.375 25.140625 
Q 40.375 35.796875 36.265625 40.765625 
Q 32.171875 45.75 26.171875 45.75 
Q 20.3125 45.75 16.375 40.96875 
Q 12.453125 36.1875 12.453125 25.875 
z
" id="ArialMT-100"/>
      <path d="M 0.734375 0 
L 19.671875 26.953125 
L 2.15625 51.859375 
L 13.140625 51.859375 
L 21.09375 39.703125 
Q 23.34375 36.234375 24.703125 33.890625 
Q 26.859375 37.109375 28.65625 39.59375 
L 37.40625 51.859375 
L 47.90625 51.859375 
L 29.984375 27.4375 
L 49.265625 0 
L 38.484375 0 
L 27.828125 16.109375 
L 25 20.453125 
L 11.375 0 
z
" id="ArialMT-120"/>
      <path d="M 23.390625 -21.046875 
Q 16.109375 -11.859375 11.078125 0.4375 
Q 6.0625 12.75 6.0625 25.921875 
Q 6.0625 37.546875 9.8125 48.1875 
Q 14.203125 60.546875 23.390625 72.796875 
L 29.6875 72.796875 
Q 23.78125 62.640625 21.875 58.296875 
Q 18.890625 51.5625 17.1875 44.234375 
Q 15.09375 35.109375 15.09375 25.875 
Q 15.09375 2.390625 29.6875 -21.046875 
z
" id="ArialMT-40"/>
      <path d="M 16.890625 72.90625 
L 26.8125 72.90625 
L 12.59375 0 
L 2.6875 0 
z
" id="DejaVuSans-Oblique-73"/>
      <path d="M 12.359375 -21.046875 
L 6.0625 -21.046875 
Q 20.65625 2.390625 20.65625 25.875 
Q 20.65625 35.0625 18.5625 44.09375 
Q 16.890625 51.421875 13.921875 58.15625 
Q 12.015625 62.546875 6.0625 72.796875 
L 12.359375 72.796875 
Q 21.53125 60.546875 25.921875 48.1875 
Q 29.6875 37.546875 29.6875 25.921875 
Q 29.6875 12.75 24.625 0.4375 
Q 19.578125 -11.859375 12.359375 -21.046875 
z
" id="ArialMT-41"/>
      <path d="M 9.03125 41.84375 
L 9.03125 51.859375 
L 19.046875 51.859375 
L 19.046875 41.84375 
z
M 9.03125 0 
L 9.03125 10.015625 
L 19.046875 10.015625 
L 19.046875 0 
z
" id="ArialMT-58"/>
     </defs>
     <g style="fill:#262626;" transform="translate(873.341407 25.86)scale(0.12 -0.12)">
      <use transform="translate(0 0.09375)" xlink:href="#ArialMT-70"/>
      <use transform="translate(61.083984 0.09375)" xlink:href="#ArialMT-97"/>
      <use transform="translate(116.699219 0.09375)" xlink:href="#ArialMT-105"/>
      <use transform="translate(138.916016 0.09375)" xlink:href="#ArialMT-108"/>
      <use transform="translate(161.132812 0.09375)" xlink:href="#ArialMT-117"/>
      <use transform="translate(216.748047 0.09375)" xlink:href="#ArialMT-114"/>
      <use transform="translate(250.048828 0.09375)" xlink:href="#ArialMT-101"/>
      <use transform="translate(305.664062 0.09375)" xlink:href="#ArialMT-32"/>
      <use transform="translate(333.447266 0.09375)" xlink:href="#ArialMT-105"/>
      <use transform="translate(355.664062 0.09375)" xlink:href="#ArialMT-110"/>
      <use transform="translate(411.279297 0.09375)" xlink:href="#ArialMT-100"/>
      <use transform="translate(466.894531 0.09375)" xlink:href="#ArialMT-101"/>
      <use transform="translate(522.509766 0.09375)" xlink:href="#ArialMT-120"/>
      <use transform="translate(572.509766 0.09375)" xlink:href="#ArialMT-32"/>
      <use transform="translate(600.292969 0.09375)" xlink:href="#ArialMT-40"/>
      <use transform="translate(633.59375 0.09375)" xlink:href="#DejaVuSans-Oblique-73"/>
      <use transform="translate(663.085938 0.09375)" xlink:href="#ArialMT-41"/>
      <use transform="translate(696.386719 0.09375)" xlink:href="#ArialMT-58"/>
     </g>
    </g>
    <g id="PathCollection_4">
     <defs>
      <path d="M 0 3 
C 0.795609 3 1.55874 2.683901 2.12132 2.12132 
C 2.683901 1.55874 3 0.795609 3 0 
C 3 -0.795609 2.683901 -1.55874 2.12132 -2.12132 
C 1.55874 -2.683901 0.795609 -3 0 -3 
C -0.795609 -3 -1.55874 -2.683901 -2.12132 -2.12132 
C -2.683901 -1.55874 -3 -0.795609 -3 0 
C -3 0.795609 -2.683901 1.55874 -2.12132 2.12132 
C -1.55874 2.683901 -0.795609 3 0 3 
z
" id="m0ac9784411" style="stroke:#4c72b0;"/>
     </defs>
     <g>
      <use style="fill:#4c72b0;stroke:#4c72b0;" x="904.796407" xlink:href="#m0ac9784411" y="38.986094"/>
     </g>
    </g>
    <g id="text_17">
     <!-- 0.0 -->
     <g style="fill:#262626;" transform="translate(924.596407 41.873594)scale(0.11 -0.11)">
      <use xlink:href="#ArialMT-48"/>
      <use x="55.615234" xlink:href="#ArialMT-46"/>
      <use x="83.398438" xlink:href="#ArialMT-48"/>
     </g>
    </g>
    <g id="PathCollection_5">
     <defs>
      <path d="M 0 3 
C 0.795609 3 1.55874 2.683901 2.12132 2.12132 
C 2.683901 1.55874 3 0.795609 3 0 
C 3 -0.795609 2.683901 -1.55874 2.12132 -2.12132 
C 1.55874 -2.683901 0.795609 -3 0 -3 
C -0.795609 -3 -1.55874 -2.683901 -2.12132 -2.12132 
C -2.683901 -1.55874 -3 -0.795609 -3 0 
C -3 0.795609 -2.683901 1.55874 -2.12132 2.12132 
C -1.55874 2.683901 -0.795609 3 0 3 
z
" id="ma5e9366eba" style="stroke:#dd8452;"/>
     </defs>
     <g>
      <use style="fill:#dd8452;stroke:#dd8452;" x="904.796407" xlink:href="#ma5e9366eba" y="54.545937"/>
     </g>
    </g>
    <g id="text_18">
     <!-- 1.0 -->
     <g style="fill:#262626;" transform="translate(924.596407 57.433437)scale(0.11 -0.11)">
      <use xlink:href="#ArialMT-49"/>
      <use x="55.615234" xlink:href="#ArialMT-46"/>
      <use x="83.398438" xlink:href="#ArialMT-48"/>
     </g>
    </g>
   </g>
  </g>
 </g>
 <defs>
  <clipPath id="p2f09eb11ed">
   <rect height="428.031496" width="878.740157" x="91.50125" y="7.2"/>
  </clipPath>
 </defs>
</svg>
