<?xml version="1.0" encoding="utf-8" standalone="no"?>
<!DOCTYPE svg PUBLIC "-//W3C//DTD SVG 1.1//EN"
  "http://www.w3.org/Graphics/SVG/1.1/DTD/svg11.dtd">
<!-- Created with matplotlib (https://matplotlib.org/) -->
<svg height="258.771998pt" version="1.1" viewBox="0 0 480.810704 258.771998" width="480.810704pt" xmlns="http://www.w3.org/2000/svg" xmlns:xlink="http://www.w3.org/1999/xlink">
 <metadata>
  <rdf:RDF xmlns:cc="http://creativecommons.org/ns#" xmlns:dc="http://purl.org/dc/elements/1.1/" xmlns:rdf="http://www.w3.org/1999/02/22-rdf-syntax-ns#">
   <cc:Work>
    <dc:type rdf:resource="http://purl.org/dc/dcmitype/StillImage"/>
    <dc:date>2021-08-10T19:54:35.091485</dc:date>
    <dc:format>image/svg+xml</dc:format>
    <dc:creator>
     <cc:Agent>
      <dc:title>Matplotlib v3.3.4, https://matplotlib.org/</dc:title>
     </cc:Agent>
    </dc:creator>
   </cc:Work>
  </rdf:RDF>
 </metadata>
 <defs>
  <style type="text/css">*{stroke-linecap:butt;stroke-linejoin:round;}</style>
 </defs>
 <g id="figure_1">
  <g id="patch_1">
   <path d="M 0 258.771998 
L 480.810704 258.771998 
L 480.810704 0 
L 0 0 
z
" style="fill:none;"/>
  </g>
  <g id="axes_1">
   <g id="patch_2">
    <path d="M 34.240625 221.215748 
L 473.610704 221.215748 
L 473.610704 7.2 
L 34.240625 7.2 
z
" style="fill:none;"/>
   </g>
   <g id="patch_3">
    <path clip-path="url(#p4649e38cfc)" d="M 54.211992 221.215748 
L 61.355559 221.215748 
L 61.355559 198.568579 
L 54.211992 198.568579 
z
" style="fill:#1f77b4;opacity:0.5;"/>
   </g>
   <g id="patch_4">
    <path clip-path="url(#p4649e38cfc)" d="M 61.355559 221.215748 
L 68.499126 221.215748 
L 68.499126 221.215748 
L 61.355559 221.215748 
z
" style="fill:#1f77b4;opacity:0.5;"/>
   </g>
   <g id="patch_5">
    <path clip-path="url(#p4649e38cfc)" d="M 68.499126 221.215748 
L 75.642693 221.215748 
L 75.642693 221.215748 
L 68.499126 221.215748 
z
" style="fill:#1f77b4;opacity:0.5;"/>
   </g>
   <g id="patch_6">
    <path clip-path="url(#p4649e38cfc)" d="M 75.642693 221.215748 
L 82.786259 221.215748 
L 82.786259 221.215748 
L 75.642693 221.215748 
z
" style="fill:#1f77b4;opacity:0.5;"/>
   </g>
   <g id="patch_7">
    <path clip-path="url(#p4649e38cfc)" d="M 82.786259 221.215748 
L 89.929826 221.215748 
L 89.929826 221.215748 
L 82.786259 221.215748 
z
" style="fill:#1f77b4;opacity:0.5;"/>
   </g>
   <g id="patch_8">
    <path clip-path="url(#p4649e38cfc)" d="M 89.929826 221.215748 
L 97.073393 221.215748 
L 97.073393 198.568579 
L 89.929826 198.568579 
z
" style="fill:#1f77b4;opacity:0.5;"/>
   </g>
   <g id="patch_9">
    <path clip-path="url(#p4649e38cfc)" d="M 97.073393 221.215748 
L 104.21696 221.215748 
L 104.21696 198.568579 
L 97.073393 198.568579 
z
" style="fill:#1f77b4;opacity:0.5;"/>
   </g>
   <g id="patch_10">
    <path clip-path="url(#p4649e38cfc)" d="M 104.21696 221.215748 
L 111.360526 221.215748 
L 111.360526 198.568579 
L 104.21696 198.568579 
z
" style="fill:#1f77b4;opacity:0.5;"/>
   </g>
   <g id="patch_11">
    <path clip-path="url(#p4649e38cfc)" d="M 111.360526 221.215748 
L 118.504093 221.215748 
L 118.504093 221.215748 
L 111.360526 221.215748 
z
" style="fill:#1f77b4;opacity:0.5;"/>
   </g>
   <g id="patch_12">
    <path clip-path="url(#p4649e38cfc)" d="M 118.504093 221.215748 
L 125.64766 221.215748 
L 125.64766 198.568579 
L 118.504093 198.568579 
z
" style="fill:#1f77b4;opacity:0.5;"/>
   </g>
   <g id="patch_13">
    <path clip-path="url(#p4649e38cfc)" d="M 125.64766 221.215748 
L 132.791227 221.215748 
L 132.791227 198.568579 
L 125.64766 198.568579 
z
" style="fill:#1f77b4;opacity:0.5;"/>
   </g>
   <g id="patch_14">
    <path clip-path="url(#p4649e38cfc)" d="M 132.791227 221.215748 
L 139.934793 221.215748 
L 139.934793 175.92141 
L 132.791227 175.92141 
z
" style="fill:#1f77b4;opacity:0.5;"/>
   </g>
   <g id="patch_15">
    <path clip-path="url(#p4649e38cfc)" d="M 139.934793 221.215748 
L 147.07836 221.215748 
L 147.07836 221.215748 
L 139.934793 221.215748 
z
" style="fill:#1f77b4;opacity:0.5;"/>
   </g>
   <g id="patch_16">
    <path clip-path="url(#p4649e38cfc)" d="M 147.07836 221.215748 
L 154.221927 221.215748 
L 154.221927 198.568579 
L 147.07836 198.568579 
z
" style="fill:#1f77b4;opacity:0.5;"/>
   </g>
   <g id="patch_17">
    <path clip-path="url(#p4649e38cfc)" d="M 154.221927 221.215748 
L 161.365494 221.215748 
L 161.365494 198.568579 
L 154.221927 198.568579 
z
" style="fill:#1f77b4;opacity:0.5;"/>
   </g>
   <g id="patch_18">
    <path clip-path="url(#p4649e38cfc)" d="M 161.365494 221.215748 
L 168.509061 221.215748 
L 168.509061 153.274241 
L 161.365494 153.274241 
z
" style="fill:#1f77b4;opacity:0.5;"/>
   </g>
   <g id="patch_19">
    <path clip-path="url(#p4649e38cfc)" d="M 168.509061 221.215748 
L 175.652627 221.215748 
L 175.652627 130.627072 
L 168.509061 130.627072 
z
" style="fill:#1f77b4;opacity:0.5;"/>
   </g>
   <g id="patch_20">
    <path clip-path="url(#p4649e38cfc)" d="M 175.652627 221.215748 
L 182.796194 221.215748 
L 182.796194 107.979903 
L 175.652627 107.979903 
z
" style="fill:#1f77b4;opacity:0.5;"/>
   </g>
   <g id="patch_21">
    <path clip-path="url(#p4649e38cfc)" d="M 182.796194 221.215748 
L 189.939761 221.215748 
L 189.939761 153.274241 
L 182.796194 153.274241 
z
" style="fill:#1f77b4;opacity:0.5;"/>
   </g>
   <g id="patch_22">
    <path clip-path="url(#p4649e38cfc)" d="M 189.939761 221.215748 
L 197.083328 221.215748 
L 197.083328 153.274241 
L 189.939761 153.274241 
z
" style="fill:#1f77b4;opacity:0.5;"/>
   </g>
   <g id="patch_23">
    <path clip-path="url(#p4649e38cfc)" d="M 197.083328 221.215748 
L 204.226894 221.215748 
L 204.226894 40.038395 
L 197.083328 40.038395 
z
" style="fill:#1f77b4;opacity:0.5;"/>
   </g>
   <g id="patch_24">
    <path clip-path="url(#p4649e38cfc)" d="M 204.226894 221.215748 
L 211.370461 221.215748 
L 211.370461 17.391226 
L 204.226894 17.391226 
z
" style="fill:#1f77b4;opacity:0.5;"/>
   </g>
   <g id="patch_25">
    <path clip-path="url(#p4649e38cfc)" d="M 211.370461 221.215748 
L 218.514028 221.215748 
L 218.514028 107.979903 
L 211.370461 107.979903 
z
" style="fill:#1f77b4;opacity:0.5;"/>
   </g>
   <g id="patch_26">
    <path clip-path="url(#p4649e38cfc)" d="M 218.514028 221.215748 
L 225.657595 221.215748 
L 225.657595 107.979903 
L 218.514028 107.979903 
z
" style="fill:#1f77b4;opacity:0.5;"/>
   </g>
   <g id="patch_27">
    <path clip-path="url(#p4649e38cfc)" d="M 225.657595 221.215748 
L 232.801162 221.215748 
L 232.801162 130.627072 
L 225.657595 130.627072 
z
" style="fill:#1f77b4;opacity:0.5;"/>
   </g>
   <g id="patch_28">
    <path clip-path="url(#p4649e38cfc)" d="M 232.801162 221.215748 
L 239.944728 221.215748 
L 239.944728 107.979903 
L 232.801162 107.979903 
z
" style="fill:#1f77b4;opacity:0.5;"/>
   </g>
   <g id="patch_29">
    <path clip-path="url(#p4649e38cfc)" d="M 239.944728 221.215748 
L 247.088295 221.215748 
L 247.088295 153.274241 
L 239.944728 153.274241 
z
" style="fill:#1f77b4;opacity:0.5;"/>
   </g>
   <g id="patch_30">
    <path clip-path="url(#p4649e38cfc)" d="M 247.088295 221.215748 
L 254.231862 221.215748 
L 254.231862 107.979903 
L 247.088295 107.979903 
z
" style="fill:#1f77b4;opacity:0.5;"/>
   </g>
   <g id="patch_31">
    <path clip-path="url(#p4649e38cfc)" d="M 254.231862 221.215748 
L 261.375429 221.215748 
L 261.375429 153.274241 
L 254.231862 153.274241 
z
" style="fill:#1f77b4;opacity:0.5;"/>
   </g>
   <g id="patch_32">
    <path clip-path="url(#p4649e38cfc)" d="M 261.375429 221.215748 
L 268.518995 221.215748 
L 268.518995 175.92141 
L 261.375429 175.92141 
z
" style="fill:#1f77b4;opacity:0.5;"/>
   </g>
   <g id="patch_33">
    <path clip-path="url(#p4649e38cfc)" d="M 268.518995 221.215748 
L 275.662562 221.215748 
L 275.662562 175.92141 
L 268.518995 175.92141 
z
" style="fill:#1f77b4;opacity:0.5;"/>
   </g>
   <g id="patch_34">
    <path clip-path="url(#p4649e38cfc)" d="M 275.662562 221.215748 
L 282.806129 221.215748 
L 282.806129 221.215748 
L 275.662562 221.215748 
z
" style="fill:#1f77b4;opacity:0.5;"/>
   </g>
   <g id="patch_35">
    <path clip-path="url(#p4649e38cfc)" d="M 282.806129 221.215748 
L 289.949696 221.215748 
L 289.949696 153.274241 
L 282.806129 153.274241 
z
" style="fill:#1f77b4;opacity:0.5;"/>
   </g>
   <g id="patch_36">
    <path clip-path="url(#p4649e38cfc)" d="M 289.949696 221.215748 
L 297.093262 221.215748 
L 297.093262 153.274241 
L 289.949696 153.274241 
z
" style="fill:#1f77b4;opacity:0.5;"/>
   </g>
   <g id="patch_37">
    <path clip-path="url(#p4649e38cfc)" d="M 297.093262 221.215748 
L 304.236829 221.215748 
L 304.236829 153.274241 
L 297.093262 153.274241 
z
" style="fill:#1f77b4;opacity:0.5;"/>
   </g>
   <g id="patch_38">
    <path clip-path="url(#p4649e38cfc)" d="M 304.236829 221.215748 
L 311.380396 221.215748 
L 311.380396 153.274241 
L 304.236829 153.274241 
z
" style="fill:#1f77b4;opacity:0.5;"/>
   </g>
   <g id="patch_39">
    <path clip-path="url(#p4649e38cfc)" d="M 311.380396 221.215748 
L 318.523963 221.215748 
L 318.523963 221.215748 
L 311.380396 221.215748 
z
" style="fill:#1f77b4;opacity:0.5;"/>
   </g>
   <g id="patch_40">
    <path clip-path="url(#p4649e38cfc)" d="M 318.523963 221.215748 
L 325.66753 221.215748 
L 325.66753 198.568579 
L 318.523963 198.568579 
z
" style="fill:#1f77b4;opacity:0.5;"/>
   </g>
   <g id="patch_41">
    <path clip-path="url(#p4649e38cfc)" d="M 325.66753 221.215748 
L 332.811096 221.215748 
L 332.811096 198.568579 
L 325.66753 198.568579 
z
" style="fill:#1f77b4;opacity:0.5;"/>
   </g>
   <g id="patch_42">
    <path clip-path="url(#p4649e38cfc)" d="M 332.811096 221.215748 
L 339.954663 221.215748 
L 339.954663 175.92141 
L 332.811096 175.92141 
z
" style="fill:#1f77b4;opacity:0.5;"/>
   </g>
   <g id="patch_43">
    <path clip-path="url(#p4649e38cfc)" d="M 339.954663 221.215748 
L 347.09823 221.215748 
L 347.09823 153.274241 
L 339.954663 153.274241 
z
" style="fill:#1f77b4;opacity:0.5;"/>
   </g>
   <g id="patch_44">
    <path clip-path="url(#p4649e38cfc)" d="M 347.09823 221.215748 
L 354.241797 221.215748 
L 354.241797 221.215748 
L 347.09823 221.215748 
z
" style="fill:#1f77b4;opacity:0.5;"/>
   </g>
   <g id="patch_45">
    <path clip-path="url(#p4649e38cfc)" d="M 354.241797 221.215748 
L 361.385363 221.215748 
L 361.385363 221.215748 
L 354.241797 221.215748 
z
" style="fill:#1f77b4;opacity:0.5;"/>
   </g>
   <g id="patch_46">
    <path clip-path="url(#p4649e38cfc)" d="M 361.385363 221.215748 
L 368.52893 221.215748 
L 368.52893 221.215748 
L 361.385363 221.215748 
z
" style="fill:#1f77b4;opacity:0.5;"/>
   </g>
   <g id="patch_47">
    <path clip-path="url(#p4649e38cfc)" d="M 368.52893 221.215748 
L 375.672497 221.215748 
L 375.672497 221.215748 
L 368.52893 221.215748 
z
" style="fill:#1f77b4;opacity:0.5;"/>
   </g>
   <g id="patch_48">
    <path clip-path="url(#p4649e38cfc)" d="M 375.672497 221.215748 
L 382.816064 221.215748 
L 382.816064 221.215748 
L 375.672497 221.215748 
z
" style="fill:#1f77b4;opacity:0.5;"/>
   </g>
   <g id="patch_49">
    <path clip-path="url(#p4649e38cfc)" d="M 382.816064 221.215748 
L 389.95963 221.215748 
L 389.95963 221.215748 
L 382.816064 221.215748 
z
" style="fill:#1f77b4;opacity:0.5;"/>
   </g>
   <g id="patch_50">
    <path clip-path="url(#p4649e38cfc)" d="M 389.95963 221.215748 
L 397.103197 221.215748 
L 397.103197 221.215748 
L 389.95963 221.215748 
z
" style="fill:#1f77b4;opacity:0.5;"/>
   </g>
   <g id="patch_51">
    <path clip-path="url(#p4649e38cfc)" d="M 397.103197 221.215748 
L 404.246764 221.215748 
L 404.246764 221.215748 
L 397.103197 221.215748 
z
" style="fill:#1f77b4;opacity:0.5;"/>
   </g>
   <g id="patch_52">
    <path clip-path="url(#p4649e38cfc)" d="M 404.246764 221.215748 
L 411.390331 221.215748 
L 411.390331 175.92141 
L 404.246764 175.92141 
z
" style="fill:#1f77b4;opacity:0.5;"/>
   </g>
   <g id="patch_53">
    <path clip-path="url(#p4649e38cfc)" d="M 210.55934 221.215748 
L 215.42094 221.215748 
L 215.42094 198.568579 
L 210.55934 198.568579 
z
" style="fill:#ff7f0e;opacity:0.5;"/>
   </g>
   <g id="patch_54">
    <path clip-path="url(#p4649e38cfc)" d="M 215.42094 221.215748 
L 220.28254 221.215748 
L 220.28254 221.215748 
L 215.42094 221.215748 
z
" style="fill:#ff7f0e;opacity:0.5;"/>
   </g>
   <g id="patch_55">
    <path clip-path="url(#p4649e38cfc)" d="M 220.28254 221.215748 
L 225.14414 221.215748 
L 225.14414 221.215748 
L 220.28254 221.215748 
z
" style="fill:#ff7f0e;opacity:0.5;"/>
   </g>
   <g id="patch_56">
    <path clip-path="url(#p4649e38cfc)" d="M 225.14414 221.215748 
L 230.00574 221.215748 
L 230.00574 221.215748 
L 225.14414 221.215748 
z
" style="fill:#ff7f0e;opacity:0.5;"/>
   </g>
   <g id="patch_57">
    <path clip-path="url(#p4649e38cfc)" d="M 230.00574 221.215748 
L 234.86734 221.215748 
L 234.86734 198.568579 
L 230.00574 198.568579 
z
" style="fill:#ff7f0e;opacity:0.5;"/>
   </g>
   <g id="patch_58">
    <path clip-path="url(#p4649e38cfc)" d="M 234.86734 221.215748 
L 239.72894 221.215748 
L 239.72894 198.568579 
L 234.86734 198.568579 
z
" style="fill:#ff7f0e;opacity:0.5;"/>
   </g>
   <g id="patch_59">
    <path clip-path="url(#p4649e38cfc)" d="M 239.72894 221.215748 
L 244.59054 221.215748 
L 244.59054 221.215748 
L 239.72894 221.215748 
z
" style="fill:#ff7f0e;opacity:0.5;"/>
   </g>
   <g id="patch_60">
    <path clip-path="url(#p4649e38cfc)" d="M 244.59054 221.215748 
L 249.452139 221.215748 
L 249.452139 153.274241 
L 244.59054 153.274241 
z
" style="fill:#ff7f0e;opacity:0.5;"/>
   </g>
   <g id="patch_61">
    <path clip-path="url(#p4649e38cfc)" d="M 249.452139 221.215748 
L 254.313739 221.215748 
L 254.313739 221.215748 
L 249.452139 221.215748 
z
" style="fill:#ff7f0e;opacity:0.5;"/>
   </g>
   <g id="patch_62">
    <path clip-path="url(#p4649e38cfc)" d="M 254.313739 221.215748 
L 259.175339 221.215748 
L 259.175339 175.92141 
L 254.313739 175.92141 
z
" style="fill:#ff7f0e;opacity:0.5;"/>
   </g>
   <g id="patch_63">
    <path clip-path="url(#p4649e38cfc)" d="M 259.175339 221.215748 
L 264.036939 221.215748 
L 264.036939 153.274241 
L 259.175339 153.274241 
z
" style="fill:#ff7f0e;opacity:0.5;"/>
   </g>
   <g id="patch_64">
    <path clip-path="url(#p4649e38cfc)" d="M 264.036939 221.215748 
L 268.898539 221.215748 
L 268.898539 198.568579 
L 264.036939 198.568579 
z
" style="fill:#ff7f0e;opacity:0.5;"/>
   </g>
   <g id="patch_65">
    <path clip-path="url(#p4649e38cfc)" d="M 268.898539 221.215748 
L 273.760139 221.215748 
L 273.760139 175.92141 
L 268.898539 175.92141 
z
" style="fill:#ff7f0e;opacity:0.5;"/>
   </g>
   <g id="patch_66">
    <path clip-path="url(#p4649e38cfc)" d="M 273.760139 221.215748 
L 278.621739 221.215748 
L 278.621739 221.215748 
L 273.760139 221.215748 
z
" style="fill:#ff7f0e;opacity:0.5;"/>
   </g>
   <g id="patch_67">
    <path clip-path="url(#p4649e38cfc)" d="M 278.621739 221.215748 
L 283.483339 221.215748 
L 283.483339 221.215748 
L 278.621739 221.215748 
z
" style="fill:#ff7f0e;opacity:0.5;"/>
   </g>
   <g id="patch_68">
    <path clip-path="url(#p4649e38cfc)" d="M 283.483339 221.215748 
L 288.344939 221.215748 
L 288.344939 153.274241 
L 283.483339 153.274241 
z
" style="fill:#ff7f0e;opacity:0.5;"/>
   </g>
   <g id="patch_69">
    <path clip-path="url(#p4649e38cfc)" d="M 288.344939 221.215748 
L 293.206539 221.215748 
L 293.206539 221.215748 
L 288.344939 221.215748 
z
" style="fill:#ff7f0e;opacity:0.5;"/>
   </g>
   <g id="patch_70">
    <path clip-path="url(#p4649e38cfc)" d="M 293.206539 221.215748 
L 298.068139 221.215748 
L 298.068139 107.979903 
L 293.206539 107.979903 
z
" style="fill:#ff7f0e;opacity:0.5;"/>
   </g>
   <g id="patch_71">
    <path clip-path="url(#p4649e38cfc)" d="M 298.068139 221.215748 
L 302.929739 221.215748 
L 302.929739 221.215748 
L 298.068139 221.215748 
z
" style="fill:#ff7f0e;opacity:0.5;"/>
   </g>
   <g id="patch_72">
    <path clip-path="url(#p4649e38cfc)" d="M 302.929739 221.215748 
L 307.791339 221.215748 
L 307.791339 130.627072 
L 302.929739 130.627072 
z
" style="fill:#ff7f0e;opacity:0.5;"/>
   </g>
   <g id="patch_73">
    <path clip-path="url(#p4649e38cfc)" d="M 307.791339 221.215748 
L 312.652939 221.215748 
L 312.652939 130.627072 
L 307.791339 130.627072 
z
" style="fill:#ff7f0e;opacity:0.5;"/>
   </g>
   <g id="patch_74">
    <path clip-path="url(#p4649e38cfc)" d="M 312.652939 221.215748 
L 317.514538 221.215748 
L 317.514538 130.627072 
L 312.652939 130.627072 
z
" style="fill:#ff7f0e;opacity:0.5;"/>
   </g>
   <g id="patch_75">
    <path clip-path="url(#p4649e38cfc)" d="M 317.514538 221.215748 
L 322.376138 221.215748 
L 322.376138 153.274241 
L 317.514538 153.274241 
z
" style="fill:#ff7f0e;opacity:0.5;"/>
   </g>
   <g id="patch_76">
    <path clip-path="url(#p4649e38cfc)" d="M 322.376138 221.215748 
L 327.237738 221.215748 
L 327.237738 85.332733 
L 322.376138 85.332733 
z
" style="fill:#ff7f0e;opacity:0.5;"/>
   </g>
   <g id="patch_77">
    <path clip-path="url(#p4649e38cfc)" d="M 327.237738 221.215748 
L 332.099338 221.215748 
L 332.099338 198.568579 
L 327.237738 198.568579 
z
" style="fill:#ff7f0e;opacity:0.5;"/>
   </g>
   <g id="patch_78">
    <path clip-path="url(#p4649e38cfc)" d="M 332.099338 221.215748 
L 336.960938 221.215748 
L 336.960938 107.979903 
L 332.099338 107.979903 
z
" style="fill:#ff7f0e;opacity:0.5;"/>
   </g>
   <g id="patch_79">
    <path clip-path="url(#p4649e38cfc)" d="M 336.960938 221.215748 
L 341.822538 221.215748 
L 341.822538 198.568579 
L 336.960938 198.568579 
z
" style="fill:#ff7f0e;opacity:0.5;"/>
   </g>
   <g id="patch_80">
    <path clip-path="url(#p4649e38cfc)" d="M 341.822538 221.215748 
L 346.684138 221.215748 
L 346.684138 153.274241 
L 341.822538 153.274241 
z
" style="fill:#ff7f0e;opacity:0.5;"/>
   </g>
   <g id="patch_81">
    <path clip-path="url(#p4649e38cfc)" d="M 346.684138 221.215748 
L 351.545738 221.215748 
L 351.545738 175.92141 
L 346.684138 175.92141 
z
" style="fill:#ff7f0e;opacity:0.5;"/>
   </g>
   <g id="patch_82">
    <path clip-path="url(#p4649e38cfc)" d="M 351.545738 221.215748 
L 356.407338 221.215748 
L 356.407338 130.627072 
L 351.545738 130.627072 
z
" style="fill:#ff7f0e;opacity:0.5;"/>
   </g>
   <g id="patch_83">
    <path clip-path="url(#p4649e38cfc)" d="M 356.407338 221.215748 
L 361.268938 221.215748 
L 361.268938 153.274241 
L 356.407338 153.274241 
z
" style="fill:#ff7f0e;opacity:0.5;"/>
   </g>
   <g id="patch_84">
    <path clip-path="url(#p4649e38cfc)" d="M 361.268938 221.215748 
L 366.130538 221.215748 
L 366.130538 85.332733 
L 361.268938 85.332733 
z
" style="fill:#ff7f0e;opacity:0.5;"/>
   </g>
   <g id="patch_85">
    <path clip-path="url(#p4649e38cfc)" d="M 366.130538 221.215748 
L 370.992138 221.215748 
L 370.992138 85.332733 
L 366.130538 85.332733 
z
" style="fill:#ff7f0e;opacity:0.5;"/>
   </g>
   <g id="patch_86">
    <path clip-path="url(#p4649e38cfc)" d="M 370.992138 221.215748 
L 375.853738 221.215748 
L 375.853738 85.332733 
L 370.992138 85.332733 
z
" style="fill:#ff7f0e;opacity:0.5;"/>
   </g>
   <g id="patch_87">
    <path clip-path="url(#p4649e38cfc)" d="M 375.853738 221.215748 
L 380.715338 221.215748 
L 380.715338 175.92141 
L 375.853738 175.92141 
z
" style="fill:#ff7f0e;opacity:0.5;"/>
   </g>
   <g id="patch_88">
    <path clip-path="url(#p4649e38cfc)" d="M 380.715338 221.215748 
L 385.576938 221.215748 
L 385.576938 153.274241 
L 380.715338 153.274241 
z
" style="fill:#ff7f0e;opacity:0.5;"/>
   </g>
   <g id="patch_89">
    <path clip-path="url(#p4649e38cfc)" d="M 385.576938 221.215748 
L 390.438537 221.215748 
L 390.438537 221.215748 
L 385.576938 221.215748 
z
" style="fill:#ff7f0e;opacity:0.5;"/>
   </g>
   <g id="patch_90">
    <path clip-path="url(#p4649e38cfc)" d="M 390.438537 221.215748 
L 395.300137 221.215748 
L 395.300137 198.568579 
L 390.438537 198.568579 
z
" style="fill:#ff7f0e;opacity:0.5;"/>
   </g>
   <g id="patch_91">
    <path clip-path="url(#p4649e38cfc)" d="M 395.300137 221.215748 
L 400.161737 221.215748 
L 400.161737 130.627072 
L 395.300137 130.627072 
z
" style="fill:#ff7f0e;opacity:0.5;"/>
   </g>
   <g id="patch_92">
    <path clip-path="url(#p4649e38cfc)" d="M 400.161737 221.215748 
L 405.023337 221.215748 
L 405.023337 175.92141 
L 400.161737 175.92141 
z
" style="fill:#ff7f0e;opacity:0.5;"/>
   </g>
   <g id="patch_93">
    <path clip-path="url(#p4649e38cfc)" d="M 405.023337 221.215748 
L 409.884937 221.215748 
L 409.884937 175.92141 
L 405.023337 175.92141 
z
" style="fill:#ff7f0e;opacity:0.5;"/>
   </g>
   <g id="patch_94">
    <path clip-path="url(#p4649e38cfc)" d="M 409.884937 221.215748 
L 414.746537 221.215748 
L 414.746537 198.568579 
L 409.884937 198.568579 
z
" style="fill:#ff7f0e;opacity:0.5;"/>
   </g>
   <g id="patch_95">
    <path clip-path="url(#p4649e38cfc)" d="M 414.746537 221.215748 
L 419.608137 221.215748 
L 419.608137 198.568579 
L 414.746537 198.568579 
z
" style="fill:#ff7f0e;opacity:0.5;"/>
   </g>
   <g id="patch_96">
    <path clip-path="url(#p4649e38cfc)" d="M 419.608137 221.215748 
L 424.469737 221.215748 
L 424.469737 198.568579 
L 419.608137 198.568579 
z
" style="fill:#ff7f0e;opacity:0.5;"/>
   </g>
   <g id="patch_97">
    <path clip-path="url(#p4649e38cfc)" d="M 424.469737 221.215748 
L 429.331337 221.215748 
L 429.331337 221.215748 
L 424.469737 221.215748 
z
" style="fill:#ff7f0e;opacity:0.5;"/>
   </g>
   <g id="patch_98">
    <path clip-path="url(#p4649e38cfc)" d="M 429.331337 221.215748 
L 434.192937 221.215748 
L 434.192937 198.568579 
L 429.331337 198.568579 
z
" style="fill:#ff7f0e;opacity:0.5;"/>
   </g>
   <g id="patch_99">
    <path clip-path="url(#p4649e38cfc)" d="M 434.192937 221.215748 
L 439.054537 221.215748 
L 439.054537 198.568579 
L 434.192937 198.568579 
z
" style="fill:#ff7f0e;opacity:0.5;"/>
   </g>
   <g id="patch_100">
    <path clip-path="url(#p4649e38cfc)" d="M 439.054537 221.215748 
L 443.916137 221.215748 
L 443.916137 221.215748 
L 439.054537 221.215748 
z
" style="fill:#ff7f0e;opacity:0.5;"/>
   </g>
   <g id="patch_101">
    <path clip-path="url(#p4649e38cfc)" d="M 443.916137 221.215748 
L 448.777737 221.215748 
L 448.777737 221.215748 
L 443.916137 221.215748 
z
" style="fill:#ff7f0e;opacity:0.5;"/>
   </g>
   <g id="patch_102">
    <path clip-path="url(#p4649e38cfc)" d="M 448.777737 221.215748 
L 453.639337 221.215748 
L 453.639337 198.568579 
L 448.777737 198.568579 
z
" style="fill:#ff7f0e;opacity:0.5;"/>
   </g>
   <g id="matplotlib.axis_1">
    <g id="xtick_1">
     <g id="line2d_1">
      <defs>
       <path d="M 0 0 
L 0 3.5 
" id="mc6d5db2e82" style="stroke:#000000;stroke-width:0.8;"/>
      </defs>
      <g>
       <use style="stroke:#000000;stroke-width:0.8;" x="68.92931" xlink:href="#mc6d5db2e82" y="221.215748"/>
      </g>
     </g>
     <g id="text_1">
      <!-- 1.5 -->
      <g transform="translate(60.977747 235.814186)scale(0.1 -0.1)">
       <defs>
        <path d="M 12.40625 8.296875 
L 28.515625 8.296875 
L 28.515625 63.921875 
L 10.984375 60.40625 
L 10.984375 69.390625 
L 28.421875 72.90625 
L 38.28125 72.90625 
L 38.28125 8.296875 
L 54.390625 8.296875 
L 54.390625 0 
L 12.40625 0 
z
" id="DejaVuSans-49"/>
        <path d="M 10.6875 12.40625 
L 21 12.40625 
L 21 0 
L 10.6875 0 
z
" id="DejaVuSans-46"/>
        <path d="M 10.796875 72.90625 
L 49.515625 72.90625 
L 49.515625 64.59375 
L 19.828125 64.59375 
L 19.828125 46.734375 
Q 21.96875 47.46875 24.109375 47.828125 
Q 26.265625 48.1875 28.421875 48.1875 
Q 40.625 48.1875 47.75 41.5 
Q 54.890625 34.8125 54.890625 23.390625 
Q 54.890625 11.625 47.5625 5.09375 
Q 40.234375 -1.421875 26.90625 -1.421875 
Q 22.3125 -1.421875 17.546875 -0.640625 
Q 12.796875 0.140625 7.71875 1.703125 
L 7.71875 11.625 
Q 12.109375 9.234375 16.796875 8.0625 
Q 21.484375 6.890625 26.703125 6.890625 
Q 35.15625 6.890625 40.078125 11.328125 
Q 45.015625 15.765625 45.015625 23.390625 
Q 45.015625 31 40.078125 35.4375 
Q 35.15625 39.890625 26.703125 39.890625 
Q 22.75 39.890625 18.8125 39.015625 
Q 14.890625 38.140625 10.796875 36.28125 
z
" id="DejaVuSans-53"/>
       </defs>
       <use xlink:href="#DejaVuSans-49"/>
       <use x="63.623047" xlink:href="#DejaVuSans-46"/>
       <use x="95.410156" xlink:href="#DejaVuSans-53"/>
      </g>
     </g>
    </g>
    <g id="xtick_2">
     <g id="line2d_2">
      <g>
       <use style="stroke:#000000;stroke-width:0.8;" x="156.023066" xlink:href="#mc6d5db2e82" y="221.215748"/>
      </g>
     </g>
     <g id="text_2">
      <!-- 2.0 -->
      <g transform="translate(148.071503 235.814186)scale(0.1 -0.1)">
       <defs>
        <path d="M 19.1875 8.296875 
L 53.609375 8.296875 
L 53.609375 0 
L 7.328125 0 
L 7.328125 8.296875 
Q 12.9375 14.109375 22.625 23.890625 
Q 32.328125 33.6875 34.8125 36.53125 
Q 39.546875 41.84375 41.421875 45.53125 
Q 43.3125 49.21875 43.3125 52.78125 
Q 43.3125 58.59375 39.234375 62.25 
Q 35.15625 65.921875 28.609375 65.921875 
Q 23.96875 65.921875 18.8125 64.3125 
Q 13.671875 62.703125 7.8125 59.421875 
L 7.8125 69.390625 
Q 13.765625 71.78125 18.9375 73 
Q 24.125 74.21875 28.421875 74.21875 
Q 39.75 74.21875 46.484375 68.546875 
Q 53.21875 62.890625 53.21875 53.421875 
Q 53.21875 48.921875 51.53125 44.890625 
Q 49.859375 40.875 45.40625 35.40625 
Q 44.1875 33.984375 37.640625 27.21875 
Q 31.109375 20.453125 19.1875 8.296875 
z
" id="DejaVuSans-50"/>
        <path d="M 31.78125 66.40625 
Q 24.171875 66.40625 20.328125 58.90625 
Q 16.5 51.421875 16.5 36.375 
Q 16.5 21.390625 20.328125 13.890625 
Q 24.171875 6.390625 31.78125 6.390625 
Q 39.453125 6.390625 43.28125 13.890625 
Q 47.125 21.390625 47.125 36.375 
Q 47.125 51.421875 43.28125 58.90625 
Q 39.453125 66.40625 31.78125 66.40625 
z
M 31.78125 74.21875 
Q 44.046875 74.21875 50.515625 64.515625 
Q 56.984375 54.828125 56.984375 36.375 
Q 56.984375 17.96875 50.515625 8.265625 
Q 44.046875 -1.421875 31.78125 -1.421875 
Q 19.53125 -1.421875 13.0625 8.265625 
Q 6.59375 17.96875 6.59375 36.375 
Q 6.59375 54.828125 13.0625 64.515625 
Q 19.53125 74.21875 31.78125 74.21875 
z
" id="DejaVuSans-48"/>
       </defs>
       <use xlink:href="#DejaVuSans-50"/>
       <use x="63.623047" xlink:href="#DejaVuSans-46"/>
       <use x="95.410156" xlink:href="#DejaVuSans-48"/>
      </g>
     </g>
    </g>
    <g id="xtick_3">
     <g id="line2d_3">
      <g>
       <use style="stroke:#000000;stroke-width:0.8;" x="243.116822" xlink:href="#mc6d5db2e82" y="221.215748"/>
      </g>
     </g>
     <g id="text_3">
      <!-- 2.5 -->
      <g transform="translate(235.16526 235.814186)scale(0.1 -0.1)">
       <use xlink:href="#DejaVuSans-50"/>
       <use x="63.623047" xlink:href="#DejaVuSans-46"/>
       <use x="95.410156" xlink:href="#DejaVuSans-53"/>
      </g>
     </g>
    </g>
    <g id="xtick_4">
     <g id="line2d_4">
      <g>
       <use style="stroke:#000000;stroke-width:0.8;" x="330.210578" xlink:href="#mc6d5db2e82" y="221.215748"/>
      </g>
     </g>
     <g id="text_4">
      <!-- 3.0 -->
      <g transform="translate(322.259016 235.814186)scale(0.1 -0.1)">
       <defs>
        <path d="M 40.578125 39.3125 
Q 47.65625 37.796875 51.625 33 
Q 55.609375 28.21875 55.609375 21.1875 
Q 55.609375 10.40625 48.1875 4.484375 
Q 40.765625 -1.421875 27.09375 -1.421875 
Q 22.515625 -1.421875 17.65625 -0.515625 
Q 12.796875 0.390625 7.625 2.203125 
L 7.625 11.71875 
Q 11.71875 9.328125 16.59375 8.109375 
Q 21.484375 6.890625 26.8125 6.890625 
Q 36.078125 6.890625 40.9375 10.546875 
Q 45.796875 14.203125 45.796875 21.1875 
Q 45.796875 27.640625 41.28125 31.265625 
Q 36.765625 34.90625 28.71875 34.90625 
L 20.21875 34.90625 
L 20.21875 43.015625 
L 29.109375 43.015625 
Q 36.375 43.015625 40.234375 45.921875 
Q 44.09375 48.828125 44.09375 54.296875 
Q 44.09375 59.90625 40.109375 62.90625 
Q 36.140625 65.921875 28.71875 65.921875 
Q 24.65625 65.921875 20.015625 65.03125 
Q 15.375 64.15625 9.8125 62.3125 
L 9.8125 71.09375 
Q 15.4375 72.65625 20.34375 73.4375 
Q 25.25 74.21875 29.59375 74.21875 
Q 40.828125 74.21875 47.359375 69.109375 
Q 53.90625 64.015625 53.90625 55.328125 
Q 53.90625 49.265625 50.4375 45.09375 
Q 46.96875 40.921875 40.578125 39.3125 
z
" id="DejaVuSans-51"/>
       </defs>
       <use xlink:href="#DejaVuSans-51"/>
       <use x="63.623047" xlink:href="#DejaVuSans-46"/>
       <use x="95.410156" xlink:href="#DejaVuSans-48"/>
      </g>
     </g>
    </g>
    <g id="xtick_5">
     <g id="line2d_5">
      <g>
       <use style="stroke:#000000;stroke-width:0.8;" x="417.304335" xlink:href="#mc6d5db2e82" y="221.215748"/>
      </g>
     </g>
     <g id="text_5">
      <!-- 3.5 -->
      <g transform="translate(409.352772 235.814186)scale(0.1 -0.1)">
       <use xlink:href="#DejaVuSans-51"/>
       <use x="63.623047" xlink:href="#DejaVuSans-46"/>
       <use x="95.410156" xlink:href="#DejaVuSans-53"/>
      </g>
     </g>
    </g>
    <g id="text_6">
     <!-- $G_0 + G_0$ -->
     <g transform="translate(235.275664 249.492311)scale(0.1 -0.1)">
      <defs>
       <path d="M 54.59375 10.890625 
L 58.40625 29.984375 
L 42.1875 29.984375 
L 43.703125 38.09375 
L 69.578125 38.09375 
L 63.28125 6 
Q 56.78125 2.4375 49.109375 0.5 
Q 41.453125 -1.421875 33.6875 -1.421875 
Q 19.96875 -1.421875 12.234375 6.1875 
Q 4.5 13.8125 4.5 27.390625 
Q 4.5 38.671875 9.203125 48.84375 
Q 13.921875 59.03125 22.21875 65.828125 
Q 27.4375 70.0625 33.640625 72.140625 
Q 39.84375 74.21875 47.40625 74.21875 
Q 54.25 74.21875 60.515625 72.484375 
Q 66.796875 70.75 72.515625 67.28125 
L 70.515625 56.78125 
Q 66.109375 61.375 60.203125 63.796875 
Q 54.296875 66.21875 47.609375 66.21875 
Q 39.84375 66.21875 33.9375 63.25 
Q 28.03125 60.296875 23.390625 54.109375 
Q 19.4375 48.828125 17.15625 41.671875 
Q 14.890625 34.515625 14.890625 27.09375 
Q 14.890625 16.890625 20.109375 11.734375 
Q 25.34375 6.59375 35.6875 6.59375 
Q 40.875 6.59375 45.703125 7.6875 
Q 50.53125 8.796875 54.59375 10.890625 
z
" id="DejaVuSans-Oblique-71"/>
       <path d="M 46 62.703125 
L 46 35.5 
L 73.1875 35.5 
L 73.1875 27.203125 
L 46 27.203125 
L 46 0 
L 37.796875 0 
L 37.796875 27.203125 
L 10.59375 27.203125 
L 10.59375 35.5 
L 37.796875 35.5 
L 37.796875 62.703125 
z
" id="DejaVuSans-43"/>
      </defs>
      <use transform="translate(0 0.78125)" xlink:href="#DejaVuSans-Oblique-71"/>
      <use transform="translate(77.490234 -15.625)scale(0.7)" xlink:href="#DejaVuSans-48"/>
      <use transform="translate(144.243164 0.78125)" xlink:href="#DejaVuSans-43"/>
      <use transform="translate(247.514648 0.78125)" xlink:href="#DejaVuSans-Oblique-71"/>
      <use transform="translate(325.004883 -15.625)scale(0.7)" xlink:href="#DejaVuSans-48"/>
     </g>
    </g>
   </g>
   <g id="matplotlib.axis_2">
    <g id="ytick_1">
     <g id="line2d_6">
      <defs>
       <path d="M 0 0 
L -3.5 0 
" id="m0308befbe1" style="stroke:#000000;stroke-width:0.8;"/>
      </defs>
      <g>
       <use style="stroke:#000000;stroke-width:0.8;" x="34.240625" xlink:href="#m0308befbe1" y="221.215748"/>
      </g>
     </g>
     <g id="text_7">
      <!-- 0 -->
      <g transform="translate(20.878125 225.014967)scale(0.1 -0.1)">
       <use xlink:href="#DejaVuSans-48"/>
      </g>
     </g>
    </g>
    <g id="ytick_2">
     <g id="line2d_7">
      <g>
       <use style="stroke:#000000;stroke-width:0.8;" x="34.240625" xlink:href="#m0308befbe1" y="175.92141"/>
      </g>
     </g>
     <g id="text_8">
      <!-- 2 -->
      <g transform="translate(20.878125 179.720629)scale(0.1 -0.1)">
       <use xlink:href="#DejaVuSans-50"/>
      </g>
     </g>
    </g>
    <g id="ytick_3">
     <g id="line2d_8">
      <g>
       <use style="stroke:#000000;stroke-width:0.8;" x="34.240625" xlink:href="#m0308befbe1" y="130.627072"/>
      </g>
     </g>
     <g id="text_9">
      <!-- 4 -->
      <g transform="translate(20.878125 134.42629)scale(0.1 -0.1)">
       <defs>
        <path d="M 37.796875 64.3125 
L 12.890625 25.390625 
L 37.796875 25.390625 
z
M 35.203125 72.90625 
L 47.609375 72.90625 
L 47.609375 25.390625 
L 58.015625 25.390625 
L 58.015625 17.1875 
L 47.609375 17.1875 
L 47.609375 0 
L 37.796875 0 
L 37.796875 17.1875 
L 4.890625 17.1875 
L 4.890625 26.703125 
z
" id="DejaVuSans-52"/>
       </defs>
       <use xlink:href="#DejaVuSans-52"/>
      </g>
     </g>
    </g>
    <g id="ytick_4">
     <g id="line2d_9">
      <g>
       <use style="stroke:#000000;stroke-width:0.8;" x="34.240625" xlink:href="#m0308befbe1" y="85.332733"/>
      </g>
     </g>
     <g id="text_10">
      <!-- 6 -->
      <g transform="translate(20.878125 89.131952)scale(0.1 -0.1)">
       <defs>
        <path d="M 33.015625 40.375 
Q 26.375 40.375 22.484375 35.828125 
Q 18.609375 31.296875 18.609375 23.390625 
Q 18.609375 15.53125 22.484375 10.953125 
Q 26.375 6.390625 33.015625 6.390625 
Q 39.65625 6.390625 43.53125 10.953125 
Q 47.40625 15.53125 47.40625 23.390625 
Q 47.40625 31.296875 43.53125 35.828125 
Q 39.65625 40.375 33.015625 40.375 
z
M 52.59375 71.296875 
L 52.59375 62.3125 
Q 48.875 64.0625 45.09375 64.984375 
Q 41.3125 65.921875 37.59375 65.921875 
Q 27.828125 65.921875 22.671875 59.328125 
Q 17.53125 52.734375 16.796875 39.40625 
Q 19.671875 43.65625 24.015625 45.921875 
Q 28.375 48.1875 33.59375 48.1875 
Q 44.578125 48.1875 50.953125 41.515625 
Q 57.328125 34.859375 57.328125 23.390625 
Q 57.328125 12.15625 50.6875 5.359375 
Q 44.046875 -1.421875 33.015625 -1.421875 
Q 20.359375 -1.421875 13.671875 8.265625 
Q 6.984375 17.96875 6.984375 36.375 
Q 6.984375 53.65625 15.1875 63.9375 
Q 23.390625 74.21875 37.203125 74.21875 
Q 40.921875 74.21875 44.703125 73.484375 
Q 48.484375 72.75 52.59375 71.296875 
z
" id="DejaVuSans-54"/>
       </defs>
       <use xlink:href="#DejaVuSans-54"/>
      </g>
     </g>
    </g>
    <g id="ytick_5">
     <g id="line2d_10">
      <g>
       <use style="stroke:#000000;stroke-width:0.8;" x="34.240625" xlink:href="#m0308befbe1" y="40.038395"/>
      </g>
     </g>
     <g id="text_11">
      <!-- 8 -->
      <g transform="translate(20.878125 43.837614)scale(0.1 -0.1)">
       <defs>
        <path d="M 31.78125 34.625 
Q 24.75 34.625 20.71875 30.859375 
Q 16.703125 27.09375 16.703125 20.515625 
Q 16.703125 13.921875 20.71875 10.15625 
Q 24.75 6.390625 31.78125 6.390625 
Q 38.8125 6.390625 42.859375 10.171875 
Q 46.921875 13.96875 46.921875 20.515625 
Q 46.921875 27.09375 42.890625 30.859375 
Q 38.875 34.625 31.78125 34.625 
z
M 21.921875 38.8125 
Q 15.578125 40.375 12.03125 44.71875 
Q 8.5 49.078125 8.5 55.328125 
Q 8.5 64.0625 14.71875 69.140625 
Q 20.953125 74.21875 31.78125 74.21875 
Q 42.671875 74.21875 48.875 69.140625 
Q 55.078125 64.0625 55.078125 55.328125 
Q 55.078125 49.078125 51.53125 44.71875 
Q 48 40.375 41.703125 38.8125 
Q 48.828125 37.15625 52.796875 32.3125 
Q 56.78125 27.484375 56.78125 20.515625 
Q 56.78125 9.90625 50.3125 4.234375 
Q 43.84375 -1.421875 31.78125 -1.421875 
Q 19.734375 -1.421875 13.25 4.234375 
Q 6.78125 9.90625 6.78125 20.515625 
Q 6.78125 27.484375 10.78125 32.3125 
Q 14.796875 37.15625 21.921875 38.8125 
z
M 18.3125 54.390625 
Q 18.3125 48.734375 21.84375 45.5625 
Q 25.390625 42.390625 31.78125 42.390625 
Q 38.140625 42.390625 41.71875 45.5625 
Q 45.3125 48.734375 45.3125 54.390625 
Q 45.3125 60.0625 41.71875 63.234375 
Q 38.140625 66.40625 31.78125 66.40625 
Q 25.390625 66.40625 21.84375 63.234375 
Q 18.3125 60.0625 18.3125 54.390625 
z
" id="DejaVuSans-56"/>
       </defs>
       <use xlink:href="#DejaVuSans-56"/>
      </g>
     </g>
    </g>
    <g id="text_12">
     <!-- $SOMATÓRIO$ -->
     <g transform="translate(14.798437 144.957874)rotate(-90)scale(0.1 -0.1)">
      <defs>
       <path d="M 60.296875 70.515625 
L 58.40625 60.890625 
Q 53.46875 63.53125 48.609375 64.875 
Q 43.75 66.21875 39.203125 66.21875 
Q 30.375 66.21875 25.140625 62.359375 
Q 19.921875 58.5 19.921875 52.09375 
Q 19.921875 48.578125 21.84375 46.703125 
Q 23.78125 44.828125 31.78125 42.671875 
L 37.703125 41.21875 
Q 47.703125 38.625 51.609375 34.640625 
Q 55.515625 30.671875 55.515625 23.484375 
Q 55.515625 12.453125 46.84375 5.515625 
Q 38.1875 -1.421875 24.03125 -1.421875 
Q 18.21875 -1.421875 12.359375 -0.265625 
Q 6.5 0.875 0.59375 3.21875 
L 2.59375 13.375 
Q 8.015625 10.015625 13.453125 8.296875 
Q 18.890625 6.59375 24.3125 6.59375 
Q 33.546875 6.59375 39.109375 10.6875 
Q 44.671875 14.796875 44.671875 21.390625 
Q 44.671875 25.78125 42.453125 28.046875 
Q 40.234375 30.328125 32.90625 32.171875 
L 27 33.6875 
Q 16.890625 36.328125 13.203125 39.765625 
Q 9.515625 43.21875 9.515625 49.421875 
Q 9.515625 60.296875 17.890625 67.25 
Q 26.265625 74.21875 39.703125 74.21875 
Q 44.921875 74.21875 50.046875 73.28125 
Q 55.171875 72.359375 60.296875 70.515625 
z
" id="DejaVuSans-Oblique-83"/>
       <path d="M 45.609375 66.21875 
Q 37.5 66.21875 31.296875 62.28125 
Q 25.09375 58.34375 20.515625 50.296875 
Q 17.578125 45.171875 16.03125 39.40625 
Q 14.5 33.640625 14.5 27.78125 
Q 14.5 17.625 19.359375 12.109375 
Q 24.21875 6.59375 33.109375 6.59375 
Q 41.109375 6.59375 47.375 10.5625 
Q 53.65625 14.546875 58.109375 22.40625 
Q 61.078125 27.6875 62.640625 33.46875 
Q 64.203125 39.265625 64.203125 45.015625 
Q 64.203125 55.125 59.3125 60.671875 
Q 54.4375 66.21875 45.609375 66.21875 
z
M 32.8125 -1.421875 
Q 19.390625 -1.421875 11.6875 6.53125 
Q 4 14.5 4 28.328125 
Q 4 36.234375 7 44.484375 
Q 10.015625 52.734375 15.28125 59.1875 
Q 21.484375 66.75 29.09375 70.484375 
Q 36.71875 74.21875 45.90625 74.21875 
Q 59.28125 74.21875 66.984375 66.328125 
Q 74.703125 58.453125 74.703125 44.828125 
Q 74.703125 36.421875 71.765625 28.3125 
Q 68.84375 20.21875 63.375 13.625 
Q 57.125 6 49.578125 2.28125 
Q 42.046875 -1.421875 32.8125 -1.421875 
z
" id="DejaVuSans-Oblique-79"/>
       <path d="M 16.890625 72.90625 
L 31.6875 72.90625 
L 40.1875 23.78125 
L 68.40625 72.90625 
L 83.59375 72.90625 
L 69.390625 0 
L 59.8125 0 
L 72.21875 63.921875 
L 43.609375 14.015625 
L 33.984375 14.015625 
L 24.703125 64.109375 
L 12.3125 0 
L 2.6875 0 
z
" id="DejaVuSans-Oblique-77"/>
       <path d="M 36.8125 72.90625 
L 48 72.90625 
L 61.53125 0 
L 51.21875 0 
L 48.1875 18.703125 
L 15.375 18.703125 
L 5.078125 0 
L -5.328125 0 
z
M 40.375 63.1875 
L 19.921875 26.90625 
L 46.6875 26.90625 
z
" id="DejaVuSans-Oblique-65"/>
       <path d="M 5.90625 72.90625 
L 67.578125 72.90625 
L 66.015625 64.59375 
L 39.984375 64.59375 
L 27.484375 0 
L 17.578125 0 
L 30.078125 64.59375 
L 4.296875 64.59375 
z
" id="DejaVuSans-Oblique-84"/>
       <path d="M 45.609375 66.21875 
Q 37.5 66.21875 31.296875 62.28125 
Q 25.09375 58.34375 20.515625 50.296875 
Q 17.578125 45.171875 16.03125 39.40625 
Q 14.5 33.640625 14.5 27.78125 
Q 14.5 17.625 19.359375 12.109375 
Q 24.21875 6.59375 33.109375 6.59375 
Q 41.109375 6.59375 47.375 10.5625 
Q 53.65625 14.546875 58.109375 22.40625 
Q 61.078125 27.6875 62.640625 33.46875 
Q 64.203125 39.265625 64.203125 45.015625 
Q 64.203125 55.125 59.3125 60.671875 
Q 54.4375 66.21875 45.609375 66.21875 
z
M 32.8125 -1.421875 
Q 19.390625 -1.421875 11.6875 6.53125 
Q 4 14.5 4 28.328125 
Q 4 36.234375 7 44.484375 
Q 10.015625 52.734375 15.28125 59.1875 
Q 21.484375 66.75 29.09375 70.484375 
Q 36.71875 74.21875 45.90625 74.21875 
Q 59.28125 74.21875 66.984375 66.328125 
Q 74.703125 58.453125 74.703125 44.828125 
Q 74.703125 36.421875 71.765625 28.3125 
Q 68.84375 20.21875 63.375 13.625 
Q 57.125 6 49.578125 2.28125 
Q 42.046875 -1.421875 32.8125 -1.421875 
z
M 54.390625 92.734375 
L 64.5 92.734375 
L 49.515625 79.84375 
L 41.796875 79.84375 
z
" id="DejaVuSans-Oblique-211"/>
       <path d="M 25.203125 64.796875 
L 20.21875 38.921875 
L 32.90625 38.921875 
Q 40.375 38.921875 44.984375 43.046875 
Q 49.609375 47.171875 49.609375 53.8125 
Q 49.609375 59.125 46.5 61.953125 
Q 43.40625 64.796875 37.59375 64.796875 
z
M 43.3125 35.015625 
Q 46.4375 34.28125 48.515625 31.390625 
Q 50.59375 28.515625 53.328125 19.921875 
L 59.515625 0 
L 49.125 0 
L 43.40625 18.703125 
Q 41.21875 25.921875 38.328125 28.359375 
Q 35.453125 30.8125 29.5 30.8125 
L 18.609375 30.8125 
L 12.59375 0 
L 2.6875 0 
L 16.890625 72.90625 
L 39.109375 72.90625 
Q 49.21875 72.90625 54.609375 68.328125 
Q 60.015625 63.765625 60.015625 55.171875 
Q 60.015625 47.5625 55.421875 41.984375 
Q 50.828125 36.421875 43.3125 35.015625 
z
" id="DejaVuSans-Oblique-82"/>
       <path d="M 16.890625 72.90625 
L 26.8125 72.90625 
L 12.59375 0 
L 2.6875 0 
z
" id="DejaVuSans-Oblique-73"/>
      </defs>
      <use transform="translate(0 0.265625)" xlink:href="#DejaVuSans-Oblique-83"/>
      <use transform="translate(63.476562 0.265625)" xlink:href="#DejaVuSans-Oblique-79"/>
      <use transform="translate(142.1875 0.265625)" xlink:href="#DejaVuSans-Oblique-77"/>
      <use transform="translate(228.466797 0.265625)" xlink:href="#DejaVuSans-Oblique-65"/>
      <use transform="translate(296.875 0.265625)" xlink:href="#DejaVuSans-Oblique-84"/>
      <use transform="translate(357.958984 0.265625)" xlink:href="#DejaVuSans-Oblique-211"/>
      <use transform="translate(436.669922 0.265625)" xlink:href="#DejaVuSans-Oblique-82"/>
      <use transform="translate(506.152344 0.265625)" xlink:href="#DejaVuSans-Oblique-73"/>
      <use transform="translate(535.644531 0.265625)" xlink:href="#DejaVuSans-Oblique-79"/>
     </g>
    </g>
   </g>
   <g id="patch_103">
    <path d="M 34.240625 221.215748 
L 34.240625 7.2 
" style="fill:none;stroke:#000000;stroke-linecap:square;stroke-linejoin:miter;stroke-width:0.8;"/>
   </g>
   <g id="patch_104">
    <path d="M 473.610704 221.215748 
L 473.610704 7.2 
" style="fill:none;stroke:#000000;stroke-linecap:square;stroke-linejoin:miter;stroke-width:0.8;"/>
   </g>
   <g id="patch_105">
    <path d="M 34.240625 221.215748 
L 473.610704 221.215748 
" style="fill:none;stroke:#000000;stroke-linecap:square;stroke-linejoin:miter;stroke-width:0.8;"/>
   </g>
   <g id="patch_106">
    <path d="M 34.240625 7.2 
L 473.610704 7.2 
" style="fill:none;stroke:#000000;stroke-linecap:square;stroke-linejoin:miter;stroke-width:0.8;"/>
   </g>
   <g id="legend_1">
    <g id="patch_107">
     <path d="M 422.910704 44.55625 
L 466.610704 44.55625 
Q 468.610704 44.55625 468.610704 42.55625 
L 468.610704 14.2 
Q 468.610704 12.2 466.610704 12.2 
L 422.910704 12.2 
Q 420.910704 12.2 420.910704 14.2 
L 420.910704 42.55625 
Q 420.910704 44.55625 422.910704 44.55625 
z
" style="fill:#ffffff;opacity:0.8;stroke:#cccccc;stroke-linejoin:miter;"/>
    </g>
    <g id="patch_108">
     <path d="M 424.910704 23.798438 
L 444.910704 23.798438 
L 444.910704 16.798438 
L 424.910704 16.798438 
z
" style="fill:#1f77b4;opacity:0.5;"/>
    </g>
    <g id="text_13">
     <!-- $R_0$ -->
     <g transform="translate(452.910704 23.798438)scale(0.1 -0.1)">
      <use transform="translate(0 0.09375)" xlink:href="#DejaVuSans-Oblique-82"/>
      <use transform="translate(69.482422 -16.3125)scale(0.7)" xlink:href="#DejaVuSans-48"/>
     </g>
    </g>
    <g id="patch_109">
     <path d="M 424.910704 38.476562 
L 444.910704 38.476562 
L 444.910704 31.476562 
L 424.910704 31.476562 
z
" style="fill:#ff7f0e;opacity:0.5;"/>
    </g>
    <g id="text_14">
     <!-- $S_0$ -->
     <g transform="translate(452.910704 38.476562)scale(0.1 -0.1)">
      <use transform="translate(0 0.78125)" xlink:href="#DejaVuSans-Oblique-83"/>
      <use transform="translate(63.476562 -15.625)scale(0.7)" xlink:href="#DejaVuSans-48"/>
     </g>
    </g>
   </g>
  </g>
 </g>
 <defs>
  <clipPath id="p4649e38cfc">
   <rect height="214.015748" width="439.370079" x="34.240625" y="7.2"/>
  </clipPath>
 </defs>
</svg>
