<?xml version="1.0" encoding="utf-8" standalone="no"?>
<!DOCTYPE svg PUBLIC "-//W3C//DTD SVG 1.1//EN"
  "http://www.w3.org/Graphics/SVG/1.1/DTD/svg11.dtd">
<!-- Created with matplotlib (https://matplotlib.org/) -->
<svg height="263.135592pt" version="1.1" viewBox="0 0 509.255235 263.135592" width="509.255235pt" xmlns="http://www.w3.org/2000/svg" xmlns:xlink="http://www.w3.org/1999/xlink">
 <metadata>
  <rdf:RDF xmlns:cc="http://creativecommons.org/ns#" xmlns:dc="http://purl.org/dc/elements/1.1/" xmlns:rdf="http://www.w3.org/1999/02/22-rdf-syntax-ns#">
   <cc:Work>
    <dc:type rdf:resource="http://purl.org/dc/dcmitype/StillImage"/>
    <dc:date>2021-08-14T21:13:40.301517</dc:date>
    <dc:format>image/svg+xml</dc:format>
    <dc:creator>
     <cc:Agent>
      <dc:title>Matplotlib v3.3.4, https://matplotlib.org/</dc:title>
     </cc:Agent>
    </dc:creator>
   </cc:Work>
  </rdf:RDF>
 </metadata>
 <defs>
  <style type="text/css">*{stroke-linecap:butt;stroke-linejoin:round;}</style>
 </defs>
 <g id="figure_1">
  <g id="patch_1">
   <path d="M 0 263.135592 
L 509.255235 263.135592 
L 509.255235 0 
L 0 0 
z
" style="fill:none;"/>
  </g>
  <g id="axes_1">
   <g id="patch_2">
    <path d="M 62.685156 221.215748 
L 502.055235 221.215748 
L 502.055235 7.2 
L 62.685156 7.2 
z
" style="fill:none;"/>
   </g>
   <g id="matplotlib.axis_1">
    <g id="xtick_1">
     <g id="line2d_1">
      <defs>
       <path d="M 0 0 
L 0 6 
" id="m5a3cd4feb2" style="stroke:#262626;stroke-width:1.25;"/>
      </defs>
      <g>
       <use style="fill:#262626;stroke:#262626;stroke-width:1.25;" x="106.588163" xlink:href="#m5a3cd4feb2" y="221.215748"/>
      </g>
     </g>
     <g id="text_1">
      <!-- 1500 -->
      <g style="fill:#262626;" transform="translate(94.354101 238.589342)scale(0.11 -0.11)">
       <defs>
        <path d="M 37.25 0 
L 28.46875 0 
L 28.46875 56 
Q 25.296875 52.984375 20.140625 49.953125 
Q 14.984375 46.921875 10.890625 45.40625 
L 10.890625 53.90625 
Q 18.265625 57.375 23.78125 62.296875 
Q 29.296875 67.234375 31.59375 71.875 
L 37.25 71.875 
z
" id="ArialMT-49"/>
        <path d="M 4.15625 18.75 
L 13.375 19.53125 
Q 14.40625 12.796875 18.140625 9.390625 
Q 21.875 6 27.15625 6 
Q 33.5 6 37.890625 10.78125 
Q 42.28125 15.578125 42.28125 23.484375 
Q 42.28125 31 38.0625 35.34375 
Q 33.84375 39.703125 27 39.703125 
Q 22.75 39.703125 19.328125 37.765625 
Q 15.921875 35.84375 13.96875 32.765625 
L 5.71875 33.84375 
L 12.640625 70.609375 
L 48.25 70.609375 
L 48.25 62.203125 
L 19.671875 62.203125 
L 15.828125 42.96875 
Q 22.265625 47.46875 29.34375 47.46875 
Q 38.71875 47.46875 45.15625 40.96875 
Q 51.609375 34.46875 51.609375 24.265625 
Q 51.609375 14.546875 45.953125 7.46875 
Q 39.0625 -1.21875 27.15625 -1.21875 
Q 17.390625 -1.21875 11.203125 4.25 
Q 5.03125 9.71875 4.15625 18.75 
z
" id="ArialMT-53"/>
        <path d="M 4.15625 35.296875 
Q 4.15625 48 6.765625 55.734375 
Q 9.375 63.484375 14.515625 67.671875 
Q 19.671875 71.875 27.484375 71.875 
Q 33.25 71.875 37.59375 69.546875 
Q 41.9375 67.234375 44.765625 62.859375 
Q 47.609375 58.5 49.21875 52.21875 
Q 50.828125 45.953125 50.828125 35.296875 
Q 50.828125 22.703125 48.234375 14.96875 
Q 45.65625 7.234375 40.5 3 
Q 35.359375 -1.21875 27.484375 -1.21875 
Q 17.140625 -1.21875 11.234375 6.203125 
Q 4.15625 15.140625 4.15625 35.296875 
z
M 13.1875 35.296875 
Q 13.1875 17.671875 17.3125 11.828125 
Q 21.4375 6 27.484375 6 
Q 33.546875 6 37.671875 11.859375 
Q 41.796875 17.71875 41.796875 35.296875 
Q 41.796875 52.984375 37.671875 58.78125 
Q 33.546875 64.59375 27.390625 64.59375 
Q 21.34375 64.59375 17.71875 59.46875 
Q 13.1875 52.9375 13.1875 35.296875 
z
" id="ArialMT-48"/>
       </defs>
       <use xlink:href="#ArialMT-49"/>
       <use x="55.615234" xlink:href="#ArialMT-53"/>
       <use x="111.230469" xlink:href="#ArialMT-48"/>
       <use x="166.845703" xlink:href="#ArialMT-48"/>
      </g>
     </g>
    </g>
    <g id="xtick_2">
     <g id="line2d_2">
      <g>
       <use style="fill:#262626;stroke:#262626;stroke-width:1.25;" x="158.052563" xlink:href="#m5a3cd4feb2" y="221.215748"/>
      </g>
     </g>
     <g id="text_2">
      <!-- 2000 -->
      <g style="fill:#262626;" transform="translate(145.8185 238.589342)scale(0.11 -0.11)">
       <defs>
        <path d="M 50.34375 8.453125 
L 50.34375 0 
L 3.03125 0 
Q 2.9375 3.171875 4.046875 6.109375 
Q 5.859375 10.9375 9.828125 15.625 
Q 13.8125 20.3125 21.34375 26.46875 
Q 33.015625 36.03125 37.109375 41.625 
Q 41.21875 47.21875 41.21875 52.203125 
Q 41.21875 57.421875 37.46875 61 
Q 33.734375 64.59375 27.734375 64.59375 
Q 21.390625 64.59375 17.578125 60.78125 
Q 13.765625 56.984375 13.71875 50.25 
L 4.6875 51.171875 
Q 5.609375 61.28125 11.65625 66.578125 
Q 17.71875 71.875 27.9375 71.875 
Q 38.234375 71.875 44.234375 66.15625 
Q 50.25 60.453125 50.25 52 
Q 50.25 47.703125 48.484375 43.546875 
Q 46.734375 39.40625 42.65625 34.8125 
Q 38.578125 30.21875 29.109375 22.21875 
Q 21.1875 15.578125 18.9375 13.203125 
Q 16.703125 10.84375 15.234375 8.453125 
z
" id="ArialMT-50"/>
       </defs>
       <use xlink:href="#ArialMT-50"/>
       <use x="55.615234" xlink:href="#ArialMT-48"/>
       <use x="111.230469" xlink:href="#ArialMT-48"/>
       <use x="166.845703" xlink:href="#ArialMT-48"/>
      </g>
     </g>
    </g>
    <g id="xtick_3">
     <g id="line2d_3">
      <g>
       <use style="fill:#262626;stroke:#262626;stroke-width:1.25;" x="209.516962" xlink:href="#m5a3cd4feb2" y="221.215748"/>
      </g>
     </g>
     <g id="text_3">
      <!-- 2500 -->
      <g style="fill:#262626;" transform="translate(197.2829 238.589342)scale(0.11 -0.11)">
       <use xlink:href="#ArialMT-50"/>
       <use x="55.615234" xlink:href="#ArialMT-53"/>
       <use x="111.230469" xlink:href="#ArialMT-48"/>
       <use x="166.845703" xlink:href="#ArialMT-48"/>
      </g>
     </g>
    </g>
    <g id="xtick_4">
     <g id="line2d_4">
      <g>
       <use style="fill:#262626;stroke:#262626;stroke-width:1.25;" x="260.981361" xlink:href="#m5a3cd4feb2" y="221.215748"/>
      </g>
     </g>
     <g id="text_4">
      <!-- 3000 -->
      <g style="fill:#262626;" transform="translate(248.747299 238.589342)scale(0.11 -0.11)">
       <defs>
        <path d="M 4.203125 18.890625 
L 12.984375 20.0625 
Q 14.5 12.59375 18.140625 9.296875 
Q 21.78125 6 27 6 
Q 33.203125 6 37.46875 10.296875 
Q 41.75 14.59375 41.75 20.953125 
Q 41.75 27 37.796875 30.921875 
Q 33.84375 34.859375 27.734375 34.859375 
Q 25.25 34.859375 21.53125 33.890625 
L 22.515625 41.609375 
Q 23.390625 41.5 23.921875 41.5 
Q 29.546875 41.5 34.03125 44.421875 
Q 38.53125 47.359375 38.53125 53.46875 
Q 38.53125 58.296875 35.25 61.46875 
Q 31.984375 64.65625 26.8125 64.65625 
Q 21.6875 64.65625 18.265625 61.421875 
Q 14.84375 58.203125 13.875 51.765625 
L 5.078125 53.328125 
Q 6.6875 62.15625 12.390625 67.015625 
Q 18.109375 71.875 26.609375 71.875 
Q 32.46875 71.875 37.390625 69.359375 
Q 42.328125 66.84375 44.9375 62.5 
Q 47.5625 58.15625 47.5625 53.265625 
Q 47.5625 48.640625 45.0625 44.828125 
Q 42.578125 41.015625 37.703125 38.765625 
Q 44.046875 37.3125 47.5625 32.6875 
Q 51.078125 28.078125 51.078125 21.140625 
Q 51.078125 11.765625 44.234375 5.25 
Q 37.40625 -1.265625 26.953125 -1.265625 
Q 17.53125 -1.265625 11.296875 4.34375 
Q 5.078125 9.96875 4.203125 18.890625 
z
" id="ArialMT-51"/>
       </defs>
       <use xlink:href="#ArialMT-51"/>
       <use x="55.615234" xlink:href="#ArialMT-48"/>
       <use x="111.230469" xlink:href="#ArialMT-48"/>
       <use x="166.845703" xlink:href="#ArialMT-48"/>
      </g>
     </g>
    </g>
    <g id="xtick_5">
     <g id="line2d_5">
      <g>
       <use style="fill:#262626;stroke:#262626;stroke-width:1.25;" x="312.445761" xlink:href="#m5a3cd4feb2" y="221.215748"/>
      </g>
     </g>
     <g id="text_5">
      <!-- 3500 -->
      <g style="fill:#262626;" transform="translate(300.211698 238.589342)scale(0.11 -0.11)">
       <use xlink:href="#ArialMT-51"/>
       <use x="55.615234" xlink:href="#ArialMT-53"/>
       <use x="111.230469" xlink:href="#ArialMT-48"/>
       <use x="166.845703" xlink:href="#ArialMT-48"/>
      </g>
     </g>
    </g>
    <g id="xtick_6">
     <g id="line2d_6">
      <g>
       <use style="fill:#262626;stroke:#262626;stroke-width:1.25;" x="363.91016" xlink:href="#m5a3cd4feb2" y="221.215748"/>
      </g>
     </g>
     <g id="text_6">
      <!-- 4000 -->
      <g style="fill:#262626;" transform="translate(351.676097 238.589342)scale(0.11 -0.11)">
       <defs>
        <path d="M 32.328125 0 
L 32.328125 17.140625 
L 1.265625 17.140625 
L 1.265625 25.203125 
L 33.9375 71.578125 
L 41.109375 71.578125 
L 41.109375 25.203125 
L 50.78125 25.203125 
L 50.78125 17.140625 
L 41.109375 17.140625 
L 41.109375 0 
z
M 32.328125 25.203125 
L 32.328125 57.46875 
L 9.90625 25.203125 
z
" id="ArialMT-52"/>
       </defs>
       <use xlink:href="#ArialMT-52"/>
       <use x="55.615234" xlink:href="#ArialMT-48"/>
       <use x="111.230469" xlink:href="#ArialMT-48"/>
       <use x="166.845703" xlink:href="#ArialMT-48"/>
      </g>
     </g>
    </g>
    <g id="xtick_7">
     <g id="line2d_7">
      <g>
       <use style="fill:#262626;stroke:#262626;stroke-width:1.25;" x="415.374559" xlink:href="#m5a3cd4feb2" y="221.215748"/>
      </g>
     </g>
     <g id="text_7">
      <!-- 4500 -->
      <g style="fill:#262626;" transform="translate(403.140497 238.589342)scale(0.11 -0.11)">
       <use xlink:href="#ArialMT-52"/>
       <use x="55.615234" xlink:href="#ArialMT-53"/>
       <use x="111.230469" xlink:href="#ArialMT-48"/>
       <use x="166.845703" xlink:href="#ArialMT-48"/>
      </g>
     </g>
    </g>
    <g id="xtick_8">
     <g id="line2d_8">
      <g>
       <use style="fill:#262626;stroke:#262626;stroke-width:1.25;" x="466.838958" xlink:href="#m5a3cd4feb2" y="221.215748"/>
      </g>
     </g>
     <g id="text_8">
      <!-- 5000 -->
      <g style="fill:#262626;" transform="translate(454.604896 238.589342)scale(0.11 -0.11)">
       <use xlink:href="#ArialMT-53"/>
       <use x="55.615234" xlink:href="#ArialMT-48"/>
       <use x="111.230469" xlink:href="#ArialMT-48"/>
       <use x="166.845703" xlink:href="#ArialMT-48"/>
      </g>
     </g>
    </g>
    <g id="text_9">
     <!-- $G_0 + G_0$ -->
     <g style="fill:#262626;" transform="translate(259.990196 253.550592)scale(0.12 -0.12)">
      <defs>
       <path d="M 54.59375 10.890625 
L 58.40625 29.984375 
L 42.1875 29.984375 
L 43.703125 38.09375 
L 69.578125 38.09375 
L 63.28125 6 
Q 56.78125 2.4375 49.109375 0.5 
Q 41.453125 -1.421875 33.6875 -1.421875 
Q 19.96875 -1.421875 12.234375 6.1875 
Q 4.5 13.8125 4.5 27.390625 
Q 4.5 38.671875 9.203125 48.84375 
Q 13.921875 59.03125 22.21875 65.828125 
Q 27.4375 70.0625 33.640625 72.140625 
Q 39.84375 74.21875 47.40625 74.21875 
Q 54.25 74.21875 60.515625 72.484375 
Q 66.796875 70.75 72.515625 67.28125 
L 70.515625 56.78125 
Q 66.109375 61.375 60.203125 63.796875 
Q 54.296875 66.21875 47.609375 66.21875 
Q 39.84375 66.21875 33.9375 63.25 
Q 28.03125 60.296875 23.390625 54.109375 
Q 19.4375 48.828125 17.15625 41.671875 
Q 14.890625 34.515625 14.890625 27.09375 
Q 14.890625 16.890625 20.109375 11.734375 
Q 25.34375 6.59375 35.6875 6.59375 
Q 40.875 6.59375 45.703125 7.6875 
Q 50.53125 8.796875 54.59375 10.890625 
z
" id="DejaVuSans-Oblique-71"/>
       <path d="M 31.78125 66.40625 
Q 24.171875 66.40625 20.328125 58.90625 
Q 16.5 51.421875 16.5 36.375 
Q 16.5 21.390625 20.328125 13.890625 
Q 24.171875 6.390625 31.78125 6.390625 
Q 39.453125 6.390625 43.28125 13.890625 
Q 47.125 21.390625 47.125 36.375 
Q 47.125 51.421875 43.28125 58.90625 
Q 39.453125 66.40625 31.78125 66.40625 
z
M 31.78125 74.21875 
Q 44.046875 74.21875 50.515625 64.515625 
Q 56.984375 54.828125 56.984375 36.375 
Q 56.984375 17.96875 50.515625 8.265625 
Q 44.046875 -1.421875 31.78125 -1.421875 
Q 19.53125 -1.421875 13.0625 8.265625 
Q 6.59375 17.96875 6.59375 36.375 
Q 6.59375 54.828125 13.0625 64.515625 
Q 19.53125 74.21875 31.78125 74.21875 
z
" id="DejaVuSans-48"/>
       <path d="M 46 62.703125 
L 46 35.5 
L 73.1875 35.5 
L 73.1875 27.203125 
L 46 27.203125 
L 46 0 
L 37.796875 0 
L 37.796875 27.203125 
L 10.59375 27.203125 
L 10.59375 35.5 
L 37.796875 35.5 
L 37.796875 62.703125 
z
" id="DejaVuSans-43"/>
      </defs>
      <use transform="translate(0 0.78125)" xlink:href="#DejaVuSans-Oblique-71"/>
      <use transform="translate(77.490234 -15.625)scale(0.7)" xlink:href="#DejaVuSans-48"/>
      <use transform="translate(144.243164 0.78125)" xlink:href="#DejaVuSans-43"/>
      <use transform="translate(247.514648 0.78125)" xlink:href="#DejaVuSans-Oblique-71"/>
      <use transform="translate(325.004883 -15.625)scale(0.7)" xlink:href="#DejaVuSans-48"/>
     </g>
    </g>
   </g>
   <g id="matplotlib.axis_2">
    <g id="ytick_1">
     <g id="line2d_9">
      <defs>
       <path d="M 0 0 
L -6 0 
" id="m95cae363b0" style="stroke:#262626;stroke-width:1.25;"/>
      </defs>
      <g>
       <use style="fill:#262626;stroke:#262626;stroke-width:1.25;" x="62.685156" xlink:href="#m95cae363b0" y="221.215748"/>
      </g>
     </g>
     <g id="text_10">
      <!-- 0 -->
      <g style="fill:#262626;" transform="translate(47.068125 225.152545)scale(0.11 -0.11)">
       <use xlink:href="#ArialMT-48"/>
      </g>
     </g>
    </g>
    <g id="ytick_2">
     <g id="line2d_10">
      <g>
       <use style="fill:#262626;stroke:#262626;stroke-width:1.25;" x="62.685156" xlink:href="#m95cae363b0" y="195.42497"/>
      </g>
     </g>
     <g id="text_11">
      <!-- 10000 -->
      <g style="fill:#262626;" transform="translate(22.6 199.361766)scale(0.11 -0.11)">
       <use xlink:href="#ArialMT-49"/>
       <use x="55.615234" xlink:href="#ArialMT-48"/>
       <use x="111.230469" xlink:href="#ArialMT-48"/>
       <use x="166.845703" xlink:href="#ArialMT-48"/>
       <use x="222.460938" xlink:href="#ArialMT-48"/>
      </g>
     </g>
    </g>
    <g id="ytick_3">
     <g id="line2d_11">
      <g>
       <use style="fill:#262626;stroke:#262626;stroke-width:1.25;" x="62.685156" xlink:href="#m95cae363b0" y="169.634191"/>
      </g>
     </g>
     <g id="text_12">
      <!-- 20000 -->
      <g style="fill:#262626;" transform="translate(22.6 173.570988)scale(0.11 -0.11)">
       <use xlink:href="#ArialMT-50"/>
       <use x="55.615234" xlink:href="#ArialMT-48"/>
       <use x="111.230469" xlink:href="#ArialMT-48"/>
       <use x="166.845703" xlink:href="#ArialMT-48"/>
       <use x="222.460938" xlink:href="#ArialMT-48"/>
      </g>
     </g>
    </g>
    <g id="ytick_4">
     <g id="line2d_12">
      <g>
       <use style="fill:#262626;stroke:#262626;stroke-width:1.25;" x="62.685156" xlink:href="#m95cae363b0" y="143.843413"/>
      </g>
     </g>
     <g id="text_13">
      <!-- 30000 -->
      <g style="fill:#262626;" transform="translate(22.6 147.78021)scale(0.11 -0.11)">
       <use xlink:href="#ArialMT-51"/>
       <use x="55.615234" xlink:href="#ArialMT-48"/>
       <use x="111.230469" xlink:href="#ArialMT-48"/>
       <use x="166.845703" xlink:href="#ArialMT-48"/>
       <use x="222.460938" xlink:href="#ArialMT-48"/>
      </g>
     </g>
    </g>
    <g id="ytick_5">
     <g id="line2d_13">
      <g>
       <use style="fill:#262626;stroke:#262626;stroke-width:1.25;" x="62.685156" xlink:href="#m95cae363b0" y="118.052634"/>
      </g>
     </g>
     <g id="text_14">
      <!-- 40000 -->
      <g style="fill:#262626;" transform="translate(22.6 121.989431)scale(0.11 -0.11)">
       <use xlink:href="#ArialMT-52"/>
       <use x="55.615234" xlink:href="#ArialMT-48"/>
       <use x="111.230469" xlink:href="#ArialMT-48"/>
       <use x="166.845703" xlink:href="#ArialMT-48"/>
       <use x="222.460938" xlink:href="#ArialMT-48"/>
      </g>
     </g>
    </g>
    <g id="ytick_6">
     <g id="line2d_14">
      <g>
       <use style="fill:#262626;stroke:#262626;stroke-width:1.25;" x="62.685156" xlink:href="#m95cae363b0" y="92.261856"/>
      </g>
     </g>
     <g id="text_15">
      <!-- 50000 -->
      <g style="fill:#262626;" transform="translate(22.6 96.198653)scale(0.11 -0.11)">
       <use xlink:href="#ArialMT-53"/>
       <use x="55.615234" xlink:href="#ArialMT-48"/>
       <use x="111.230469" xlink:href="#ArialMT-48"/>
       <use x="166.845703" xlink:href="#ArialMT-48"/>
       <use x="222.460938" xlink:href="#ArialMT-48"/>
      </g>
     </g>
    </g>
    <g id="ytick_7">
     <g id="line2d_15">
      <g>
       <use style="fill:#262626;stroke:#262626;stroke-width:1.25;" x="62.685156" xlink:href="#m95cae363b0" y="66.471077"/>
      </g>
     </g>
     <g id="text_16">
      <!-- 60000 -->
      <g style="fill:#262626;" transform="translate(22.6 70.407874)scale(0.11 -0.11)">
       <defs>
        <path d="M 49.75 54.046875 
L 41.015625 53.375 
Q 39.84375 58.546875 37.703125 60.890625 
Q 34.125 64.65625 28.90625 64.65625 
Q 24.703125 64.65625 21.53125 62.3125 
Q 17.390625 59.28125 14.984375 53.46875 
Q 12.59375 47.65625 12.5 36.921875 
Q 15.671875 41.75 20.265625 44.09375 
Q 24.859375 46.4375 29.890625 46.4375 
Q 38.671875 46.4375 44.84375 39.96875 
Q 51.03125 33.5 51.03125 23.25 
Q 51.03125 16.5 48.125 10.71875 
Q 45.21875 4.9375 40.140625 1.859375 
Q 35.0625 -1.21875 28.609375 -1.21875 
Q 17.625 -1.21875 10.6875 6.859375 
Q 3.765625 14.9375 3.765625 33.5 
Q 3.765625 54.25 11.421875 63.671875 
Q 18.109375 71.875 29.4375 71.875 
Q 37.890625 71.875 43.28125 67.140625 
Q 48.6875 62.40625 49.75 54.046875 
z
M 13.875 23.1875 
Q 13.875 18.65625 15.796875 14.5 
Q 17.71875 10.359375 21.1875 8.171875 
Q 24.65625 6 28.46875 6 
Q 34.03125 6 38.03125 10.484375 
Q 42.046875 14.984375 42.046875 22.703125 
Q 42.046875 30.125 38.078125 34.390625 
Q 34.125 38.671875 28.125 38.671875 
Q 22.171875 38.671875 18.015625 34.390625 
Q 13.875 30.125 13.875 23.1875 
z
" id="ArialMT-54"/>
       </defs>
       <use xlink:href="#ArialMT-54"/>
       <use x="55.615234" xlink:href="#ArialMT-48"/>
       <use x="111.230469" xlink:href="#ArialMT-48"/>
       <use x="166.845703" xlink:href="#ArialMT-48"/>
       <use x="222.460938" xlink:href="#ArialMT-48"/>
      </g>
     </g>
    </g>
    <g id="ytick_8">
     <g id="line2d_16">
      <g>
       <use style="fill:#262626;stroke:#262626;stroke-width:1.25;" x="62.685156" xlink:href="#m95cae363b0" y="40.680299"/>
      </g>
     </g>
     <g id="text_17">
      <!-- 70000 -->
      <g style="fill:#262626;" transform="translate(22.6 44.617096)scale(0.11 -0.11)">
       <defs>
        <path d="M 4.734375 62.203125 
L 4.734375 70.65625 
L 51.078125 70.65625 
L 51.078125 63.8125 
Q 44.234375 56.546875 37.515625 44.484375 
Q 30.8125 32.421875 27.15625 19.671875 
Q 24.515625 10.6875 23.78125 0 
L 14.75 0 
Q 14.890625 8.453125 18.0625 20.40625 
Q 21.234375 32.375 27.171875 43.484375 
Q 33.109375 54.59375 39.796875 62.203125 
z
" id="ArialMT-55"/>
       </defs>
       <use xlink:href="#ArialMT-55"/>
       <use x="55.615234" xlink:href="#ArialMT-48"/>
       <use x="111.230469" xlink:href="#ArialMT-48"/>
       <use x="166.845703" xlink:href="#ArialMT-48"/>
       <use x="222.460938" xlink:href="#ArialMT-48"/>
      </g>
     </g>
    </g>
    <g id="ytick_9">
     <g id="line2d_17">
      <g>
       <use style="fill:#262626;stroke:#262626;stroke-width:1.25;" x="62.685156" xlink:href="#m95cae363b0" y="14.889521"/>
      </g>
     </g>
     <g id="text_18">
      <!-- 80000 -->
      <g style="fill:#262626;" transform="translate(22.6 18.826317)scale(0.11 -0.11)">
       <defs>
        <path d="M 17.671875 38.8125 
Q 12.203125 40.828125 9.5625 44.53125 
Q 6.9375 48.25 6.9375 53.421875 
Q 6.9375 61.234375 12.546875 66.546875 
Q 18.171875 71.875 27.484375 71.875 
Q 36.859375 71.875 42.578125 66.421875 
Q 48.296875 60.984375 48.296875 53.171875 
Q 48.296875 48.1875 45.671875 44.5 
Q 43.0625 40.828125 37.75 38.8125 
Q 44.34375 36.671875 47.78125 31.875 
Q 51.21875 27.09375 51.21875 20.453125 
Q 51.21875 11.28125 44.71875 5.03125 
Q 38.234375 -1.21875 27.640625 -1.21875 
Q 17.046875 -1.21875 10.546875 5.046875 
Q 4.046875 11.328125 4.046875 20.703125 
Q 4.046875 27.6875 7.59375 32.390625 
Q 11.140625 37.109375 17.671875 38.8125 
z
M 15.921875 53.71875 
Q 15.921875 48.640625 19.1875 45.40625 
Q 22.46875 42.1875 27.6875 42.1875 
Q 32.765625 42.1875 36.015625 45.375 
Q 39.265625 48.578125 39.265625 53.21875 
Q 39.265625 58.0625 35.90625 61.359375 
Q 32.5625 64.65625 27.59375 64.65625 
Q 22.5625 64.65625 19.234375 61.421875 
Q 15.921875 58.203125 15.921875 53.71875 
z
M 13.09375 20.65625 
Q 13.09375 16.890625 14.875 13.375 
Q 16.65625 9.859375 20.171875 7.921875 
Q 23.6875 6 27.734375 6 
Q 34.03125 6 38.125 10.046875 
Q 42.234375 14.109375 42.234375 20.359375 
Q 42.234375 26.703125 38.015625 30.859375 
Q 33.796875 35.015625 27.4375 35.015625 
Q 21.234375 35.015625 17.15625 30.90625 
Q 13.09375 26.8125 13.09375 20.65625 
z
" id="ArialMT-56"/>
       </defs>
       <use xlink:href="#ArialMT-56"/>
       <use x="55.615234" xlink:href="#ArialMT-48"/>
       <use x="111.230469" xlink:href="#ArialMT-48"/>
       <use x="166.845703" xlink:href="#ArialMT-48"/>
       <use x="222.460938" xlink:href="#ArialMT-48"/>
      </g>
     </g>
    </g>
    <g id="text_19">
     <!-- $SOMATÓRIO$ -->
     <g style="fill:#262626;" transform="translate(16.215 151.107874)rotate(-90)scale(0.12 -0.12)">
      <defs>
       <path d="M 60.296875 70.515625 
L 58.40625 60.890625 
Q 53.46875 63.53125 48.609375 64.875 
Q 43.75 66.21875 39.203125 66.21875 
Q 30.375 66.21875 25.140625 62.359375 
Q 19.921875 58.5 19.921875 52.09375 
Q 19.921875 48.578125 21.84375 46.703125 
Q 23.78125 44.828125 31.78125 42.671875 
L 37.703125 41.21875 
Q 47.703125 38.625 51.609375 34.640625 
Q 55.515625 30.671875 55.515625 23.484375 
Q 55.515625 12.453125 46.84375 5.515625 
Q 38.1875 -1.421875 24.03125 -1.421875 
Q 18.21875 -1.421875 12.359375 -0.265625 
Q 6.5 0.875 0.59375 3.21875 
L 2.59375 13.375 
Q 8.015625 10.015625 13.453125 8.296875 
Q 18.890625 6.59375 24.3125 6.59375 
Q 33.546875 6.59375 39.109375 10.6875 
Q 44.671875 14.796875 44.671875 21.390625 
Q 44.671875 25.78125 42.453125 28.046875 
Q 40.234375 30.328125 32.90625 32.171875 
L 27 33.6875 
Q 16.890625 36.328125 13.203125 39.765625 
Q 9.515625 43.21875 9.515625 49.421875 
Q 9.515625 60.296875 17.890625 67.25 
Q 26.265625 74.21875 39.703125 74.21875 
Q 44.921875 74.21875 50.046875 73.28125 
Q 55.171875 72.359375 60.296875 70.515625 
z
" id="DejaVuSans-Oblique-83"/>
       <path d="M 45.609375 66.21875 
Q 37.5 66.21875 31.296875 62.28125 
Q 25.09375 58.34375 20.515625 50.296875 
Q 17.578125 45.171875 16.03125 39.40625 
Q 14.5 33.640625 14.5 27.78125 
Q 14.5 17.625 19.359375 12.109375 
Q 24.21875 6.59375 33.109375 6.59375 
Q 41.109375 6.59375 47.375 10.5625 
Q 53.65625 14.546875 58.109375 22.40625 
Q 61.078125 27.6875 62.640625 33.46875 
Q 64.203125 39.265625 64.203125 45.015625 
Q 64.203125 55.125 59.3125 60.671875 
Q 54.4375 66.21875 45.609375 66.21875 
z
M 32.8125 -1.421875 
Q 19.390625 -1.421875 11.6875 6.53125 
Q 4 14.5 4 28.328125 
Q 4 36.234375 7 44.484375 
Q 10.015625 52.734375 15.28125 59.1875 
Q 21.484375 66.75 29.09375 70.484375 
Q 36.71875 74.21875 45.90625 74.21875 
Q 59.28125 74.21875 66.984375 66.328125 
Q 74.703125 58.453125 74.703125 44.828125 
Q 74.703125 36.421875 71.765625 28.3125 
Q 68.84375 20.21875 63.375 13.625 
Q 57.125 6 49.578125 2.28125 
Q 42.046875 -1.421875 32.8125 -1.421875 
z
" id="DejaVuSans-Oblique-79"/>
       <path d="M 16.890625 72.90625 
L 31.6875 72.90625 
L 40.1875 23.78125 
L 68.40625 72.90625 
L 83.59375 72.90625 
L 69.390625 0 
L 59.8125 0 
L 72.21875 63.921875 
L 43.609375 14.015625 
L 33.984375 14.015625 
L 24.703125 64.109375 
L 12.3125 0 
L 2.6875 0 
z
" id="DejaVuSans-Oblique-77"/>
       <path d="M 36.8125 72.90625 
L 48 72.90625 
L 61.53125 0 
L 51.21875 0 
L 48.1875 18.703125 
L 15.375 18.703125 
L 5.078125 0 
L -5.328125 0 
z
M 40.375 63.1875 
L 19.921875 26.90625 
L 46.6875 26.90625 
z
" id="DejaVuSans-Oblique-65"/>
       <path d="M 5.90625 72.90625 
L 67.578125 72.90625 
L 66.015625 64.59375 
L 39.984375 64.59375 
L 27.484375 0 
L 17.578125 0 
L 30.078125 64.59375 
L 4.296875 64.59375 
z
" id="DejaVuSans-Oblique-84"/>
       <path d="M 45.609375 66.21875 
Q 37.5 66.21875 31.296875 62.28125 
Q 25.09375 58.34375 20.515625 50.296875 
Q 17.578125 45.171875 16.03125 39.40625 
Q 14.5 33.640625 14.5 27.78125 
Q 14.5 17.625 19.359375 12.109375 
Q 24.21875 6.59375 33.109375 6.59375 
Q 41.109375 6.59375 47.375 10.5625 
Q 53.65625 14.546875 58.109375 22.40625 
Q 61.078125 27.6875 62.640625 33.46875 
Q 64.203125 39.265625 64.203125 45.015625 
Q 64.203125 55.125 59.3125 60.671875 
Q 54.4375 66.21875 45.609375 66.21875 
z
M 32.8125 -1.421875 
Q 19.390625 -1.421875 11.6875 6.53125 
Q 4 14.5 4 28.328125 
Q 4 36.234375 7 44.484375 
Q 10.015625 52.734375 15.28125 59.1875 
Q 21.484375 66.75 29.09375 70.484375 
Q 36.71875 74.21875 45.90625 74.21875 
Q 59.28125 74.21875 66.984375 66.328125 
Q 74.703125 58.453125 74.703125 44.828125 
Q 74.703125 36.421875 71.765625 28.3125 
Q 68.84375 20.21875 63.375 13.625 
Q 57.125 6 49.578125 2.28125 
Q 42.046875 -1.421875 32.8125 -1.421875 
z
M 54.390625 92.734375 
L 64.5 92.734375 
L 49.515625 79.84375 
L 41.796875 79.84375 
z
" id="DejaVuSans-Oblique-211"/>
       <path d="M 25.203125 64.796875 
L 20.21875 38.921875 
L 32.90625 38.921875 
Q 40.375 38.921875 44.984375 43.046875 
Q 49.609375 47.171875 49.609375 53.8125 
Q 49.609375 59.125 46.5 61.953125 
Q 43.40625 64.796875 37.59375 64.796875 
z
M 43.3125 35.015625 
Q 46.4375 34.28125 48.515625 31.390625 
Q 50.59375 28.515625 53.328125 19.921875 
L 59.515625 0 
L 49.125 0 
L 43.40625 18.703125 
Q 41.21875 25.921875 38.328125 28.359375 
Q 35.453125 30.8125 29.5 30.8125 
L 18.609375 30.8125 
L 12.59375 0 
L 2.6875 0 
L 16.890625 72.90625 
L 39.109375 72.90625 
Q 49.21875 72.90625 54.609375 68.328125 
Q 60.015625 63.765625 60.015625 55.171875 
Q 60.015625 47.5625 55.421875 41.984375 
Q 50.828125 36.421875 43.3125 35.015625 
z
" id="DejaVuSans-Oblique-82"/>
       <path d="M 16.890625 72.90625 
L 26.8125 72.90625 
L 12.59375 0 
L 2.6875 0 
z
" id="DejaVuSans-Oblique-73"/>
      </defs>
      <use transform="translate(0 0.265625)" xlink:href="#DejaVuSans-Oblique-83"/>
      <use transform="translate(63.476562 0.265625)" xlink:href="#DejaVuSans-Oblique-79"/>
      <use transform="translate(142.1875 0.265625)" xlink:href="#DejaVuSans-Oblique-77"/>
      <use transform="translate(228.466797 0.265625)" xlink:href="#DejaVuSans-Oblique-65"/>
      <use transform="translate(296.875 0.265625)" xlink:href="#DejaVuSans-Oblique-84"/>
      <use transform="translate(357.958984 0.265625)" xlink:href="#DejaVuSans-Oblique-211"/>
      <use transform="translate(436.669922 0.265625)" xlink:href="#DejaVuSans-Oblique-82"/>
      <use transform="translate(506.152344 0.265625)" xlink:href="#DejaVuSans-Oblique-73"/>
      <use transform="translate(535.644531 0.265625)" xlink:href="#DejaVuSans-Oblique-79"/>
     </g>
    </g>
   </g>
   <g id="patch_3">
    <path clip-path="url(#pce6d342fe0)" d="M 82.656523 221.215748 
L 85.790052 221.215748 
L 85.790052 221.208011 
L 82.656523 221.208011 
z
" style="fill:#4c72b0;opacity:0.5;stroke:#ffffff;stroke-linejoin:miter;"/>
   </g>
   <g id="patch_4">
    <path clip-path="url(#pce6d342fe0)" d="M 85.790052 221.215748 
L 88.92358 221.215748 
L 88.92358 221.205432 
L 85.790052 221.205432 
z
" style="fill:#4c72b0;opacity:0.5;stroke:#ffffff;stroke-linejoin:miter;"/>
   </g>
   <g id="patch_5">
    <path clip-path="url(#pce6d342fe0)" d="M 88.92358 221.215748 
L 92.057109 221.215748 
L 92.057109 221.197694 
L 88.92358 221.197694 
z
" style="fill:#4c72b0;opacity:0.5;stroke:#ffffff;stroke-linejoin:miter;"/>
   </g>
   <g id="patch_6">
    <path clip-path="url(#pce6d342fe0)" d="M 92.057109 221.215748 
L 95.190637 221.215748 
L 95.190637 221.135797 
L 92.057109 221.135797 
z
" style="fill:#4c72b0;opacity:0.5;stroke:#ffffff;stroke-linejoin:miter;"/>
   </g>
   <g id="patch_7">
    <path clip-path="url(#pce6d342fe0)" d="M 95.190637 221.215748 
L 98.324166 221.215748 
L 98.324166 221.07132 
L 95.190637 221.07132 
z
" style="fill:#4c72b0;opacity:0.5;stroke:#ffffff;stroke-linejoin:miter;"/>
   </g>
   <g id="patch_8">
    <path clip-path="url(#pce6d342fe0)" d="M 98.324166 221.215748 
L 101.457694 221.215748 
L 101.457694 220.968157 
L 98.324166 220.968157 
z
" style="fill:#4c72b0;opacity:0.5;stroke:#ffffff;stroke-linejoin:miter;"/>
   </g>
   <g id="patch_9">
    <path clip-path="url(#pce6d342fe0)" d="M 101.457694 221.215748 
L 104.591223 221.215748 
L 104.591223 220.748935 
L 101.457694 220.748935 
z
" style="fill:#4c72b0;opacity:0.5;stroke:#ffffff;stroke-linejoin:miter;"/>
   </g>
   <g id="patch_10">
    <path clip-path="url(#pce6d342fe0)" d="M 104.591223 221.215748 
L 107.724751 221.215748 
L 107.724751 220.181538 
L 104.591223 220.181538 
z
" style="fill:#4c72b0;opacity:0.5;stroke:#ffffff;stroke-linejoin:miter;"/>
   </g>
   <g id="patch_11">
    <path clip-path="url(#pce6d342fe0)" d="M 107.724751 221.215748 
L 110.85828 221.215748 
L 110.85828 219.294335 
L 107.724751 219.294335 
z
" style="fill:#4c72b0;opacity:0.5;stroke:#ffffff;stroke-linejoin:miter;"/>
   </g>
   <g id="patch_12">
    <path clip-path="url(#pce6d342fe0)" d="M 110.85828 221.215748 
L 113.991808 221.215748 
L 113.991808 217.914528 
L 110.85828 217.914528 
z
" style="fill:#4c72b0;opacity:0.5;stroke:#ffffff;stroke-linejoin:miter;"/>
   </g>
   <g id="patch_13">
    <path clip-path="url(#pce6d342fe0)" d="M 113.991808 221.215748 
L 117.125337 221.215748 
L 117.125337 215.64494 
L 113.991808 215.64494 
z
" style="fill:#4c72b0;opacity:0.5;stroke:#ffffff;stroke-linejoin:miter;"/>
   </g>
   <g id="patch_14">
    <path clip-path="url(#pce6d342fe0)" d="M 117.125337 221.215748 
L 120.258865 221.215748 
L 120.258865 212.139973 
L 117.125337 212.139973 
z
" style="fill:#4c72b0;opacity:0.5;stroke:#ffffff;stroke-linejoin:miter;"/>
   </g>
   <g id="patch_15">
    <path clip-path="url(#pce6d342fe0)" d="M 120.258865 221.215748 
L 123.392394 221.215748 
L 123.392394 206.832231 
L 120.258865 206.832231 
z
" style="fill:#4c72b0;opacity:0.5;stroke:#ffffff;stroke-linejoin:miter;"/>
   </g>
   <g id="patch_16">
    <path clip-path="url(#pce6d342fe0)" d="M 123.392394 221.215748 
L 126.525922 221.215748 
L 126.525922 198.847406 
L 123.392394 198.847406 
z
" style="fill:#4c72b0;opacity:0.5;stroke:#ffffff;stroke-linejoin:miter;"/>
   </g>
   <g id="patch_17">
    <path clip-path="url(#pce6d342fe0)" d="M 126.525922 221.215748 
L 129.659451 221.215748 
L 129.659451 188.845742 
L 126.525922 188.845742 
z
" style="fill:#4c72b0;opacity:0.5;stroke:#ffffff;stroke-linejoin:miter;"/>
   </g>
   <g id="patch_18">
    <path clip-path="url(#pce6d342fe0)" d="M 129.659451 221.215748 
L 132.792979 221.215748 
L 132.792979 175.725973 
L 129.659451 175.725973 
z
" style="fill:#4c72b0;opacity:0.5;stroke:#ffffff;stroke-linejoin:miter;"/>
   </g>
   <g id="patch_19">
    <path clip-path="url(#pce6d342fe0)" d="M 132.792979 221.215748 
L 135.926508 221.215748 
L 135.926508 158.59058 
L 132.792979 158.59058 
z
" style="fill:#4c72b0;opacity:0.5;stroke:#ffffff;stroke-linejoin:miter;"/>
   </g>
   <g id="patch_20">
    <path clip-path="url(#pce6d342fe0)" d="M 135.926508 221.215748 
L 139.060036 221.215748 
L 139.060036 138.981851 
L 135.926508 138.981851 
z
" style="fill:#4c72b0;opacity:0.5;stroke:#ffffff;stroke-linejoin:miter;"/>
   </g>
   <g id="patch_21">
    <path clip-path="url(#pce6d342fe0)" d="M 139.060036 221.215748 
L 142.193565 221.215748 
L 142.193565 116.912682 
L 139.060036 116.912682 
z
" style="fill:#4c72b0;opacity:0.5;stroke:#ffffff;stroke-linejoin:miter;"/>
   </g>
   <g id="patch_22">
    <path clip-path="url(#pce6d342fe0)" d="M 142.193565 221.215748 
L 145.327093 221.215748 
L 145.327093 94.456651 
L 142.193565 94.456651 
z
" style="fill:#4c72b0;opacity:0.5;stroke:#ffffff;stroke-linejoin:miter;"/>
   </g>
   <g id="patch_23">
    <path clip-path="url(#pce6d342fe0)" d="M 145.327093 221.215748 
L 148.460621 221.215748 
L 148.460621 72.217263 
L 145.327093 72.217263 
z
" style="fill:#4c72b0;opacity:0.5;stroke:#ffffff;stroke-linejoin:miter;"/>
   </g>
   <g id="patch_24">
    <path clip-path="url(#pce6d342fe0)" d="M 148.460621 221.215748 
L 151.59415 221.215748 
L 151.59415 52.193303 
L 148.460621 52.193303 
z
" style="fill:#4c72b0;opacity:0.5;stroke:#ffffff;stroke-linejoin:miter;"/>
   </g>
   <g id="patch_25">
    <path clip-path="url(#pce6d342fe0)" d="M 151.59415 221.215748 
L 154.727678 221.215748 
L 154.727678 36.463507 
L 151.59415 36.463507 
z
" style="fill:#4c72b0;opacity:0.5;stroke:#ffffff;stroke-linejoin:miter;"/>
   </g>
   <g id="patch_26">
    <path clip-path="url(#pce6d342fe0)" d="M 154.727678 221.215748 
L 157.861207 221.215748 
L 157.861207 27.382574 
L 154.727678 27.382574 
z
" style="fill:#4c72b0;opacity:0.5;stroke:#ffffff;stroke-linejoin:miter;"/>
   </g>
   <g id="patch_27">
    <path clip-path="url(#pce6d342fe0)" d="M 157.861207 221.215748 
L 160.994735 221.215748 
L 160.994735 25.693278 
L 157.861207 25.693278 
z
" style="fill:#4c72b0;opacity:0.5;stroke:#ffffff;stroke-linejoin:miter;"/>
   </g>
   <g id="patch_28">
    <path clip-path="url(#pce6d342fe0)" d="M 160.994735 221.215748 
L 164.128264 221.215748 
L 164.128264 30.376883 
L 160.994735 30.376883 
z
" style="fill:#4c72b0;opacity:0.5;stroke:#ffffff;stroke-linejoin:miter;"/>
   </g>
   <g id="patch_29">
    <path clip-path="url(#pce6d342fe0)" d="M 164.128264 221.215748 
L 167.261792 221.215748 
L 167.261792 40.45334 
L 164.128264 40.45334 
z
" style="fill:#4c72b0;opacity:0.5;stroke:#ffffff;stroke-linejoin:miter;"/>
   </g>
   <g id="patch_30">
    <path clip-path="url(#pce6d342fe0)" d="M 167.261792 221.215748 
L 170.395321 221.215748 
L 170.395321 58.272189 
L 167.261792 58.272189 
z
" style="fill:#4c72b0;opacity:0.5;stroke:#ffffff;stroke-linejoin:miter;"/>
   </g>
   <g id="patch_31">
    <path clip-path="url(#pce6d342fe0)" d="M 170.395321 221.215748 
L 173.528849 221.215748 
L 173.528849 78.536004 
L 170.395321 78.536004 
z
" style="fill:#4c72b0;opacity:0.5;stroke:#ffffff;stroke-linejoin:miter;"/>
   </g>
   <g id="patch_32">
    <path clip-path="url(#pce6d342fe0)" d="M 173.528849 221.215748 
L 176.662378 221.215748 
L 176.662378 101.845709 
L 173.528849 101.845709 
z
" style="fill:#4c72b0;opacity:0.5;stroke:#ffffff;stroke-linejoin:miter;"/>
   </g>
   <g id="patch_33">
    <path clip-path="url(#pce6d342fe0)" d="M 176.662378 221.215748 
L 179.795906 221.215748 
L 179.795906 123.963881 
L 176.662378 123.963881 
z
" style="fill:#4c72b0;opacity:0.5;stroke:#ffffff;stroke-linejoin:miter;"/>
   </g>
   <g id="patch_34">
    <path clip-path="url(#pce6d342fe0)" d="M 179.795906 221.215748 
L 182.929435 221.215748 
L 182.929435 145.148426 
L 179.795906 145.148426 
z
" style="fill:#4c72b0;opacity:0.5;stroke:#ffffff;stroke-linejoin:miter;"/>
   </g>
   <g id="patch_35">
    <path clip-path="url(#pce6d342fe0)" d="M 182.929435 221.215748 
L 186.062963 221.215748 
L 186.062963 164.261972 
L 182.929435 164.261972 
z
" style="fill:#4c72b0;opacity:0.5;stroke:#ffffff;stroke-linejoin:miter;"/>
   </g>
   <g id="patch_36">
    <path clip-path="url(#pce6d342fe0)" d="M 186.062963 221.215748 
L 189.196492 221.215748 
L 189.196492 179.274784 
L 186.062963 179.274784 
z
" style="fill:#4c72b0;opacity:0.5;stroke:#ffffff;stroke-linejoin:miter;"/>
   </g>
   <g id="patch_37">
    <path clip-path="url(#pce6d342fe0)" d="M 189.196492 221.215748 
L 192.33002 221.215748 
L 192.33002 191.912266 
L 189.196492 191.912266 
z
" style="fill:#4c72b0;opacity:0.5;stroke:#ffffff;stroke-linejoin:miter;"/>
   </g>
   <g id="patch_38">
    <path clip-path="url(#pce6d342fe0)" d="M 192.33002 221.215748 
L 195.463549 221.215748 
L 195.463549 201.947457 
L 192.33002 201.947457 
z
" style="fill:#4c72b0;opacity:0.5;stroke:#ffffff;stroke-linejoin:miter;"/>
   </g>
   <g id="patch_39">
    <path clip-path="url(#pce6d342fe0)" d="M 195.463549 221.215748 
L 198.597077 221.215748 
L 198.597077 208.299726 
L 195.463549 208.299726 
z
" style="fill:#4c72b0;opacity:0.5;stroke:#ffffff;stroke-linejoin:miter;"/>
   </g>
   <g id="patch_40">
    <path clip-path="url(#pce6d342fe0)" d="M 198.597077 221.215748 
L 201.730606 221.215748 
L 201.730606 213.349561 
L 198.597077 213.349561 
z
" style="fill:#4c72b0;opacity:0.5;stroke:#ffffff;stroke-linejoin:miter;"/>
   </g>
   <g id="patch_41">
    <path clip-path="url(#pce6d342fe0)" d="M 201.730606 221.215748 
L 204.864134 221.215748 
L 204.864134 216.395452 
L 201.730606 216.395452 
z
" style="fill:#4c72b0;opacity:0.5;stroke:#ffffff;stroke-linejoin:miter;"/>
   </g>
   <g id="patch_42">
    <path clip-path="url(#pce6d342fe0)" d="M 204.864134 221.215748 
L 207.997662 221.215748 
L 207.997662 218.574772 
L 204.864134 218.574772 
z
" style="fill:#4c72b0;opacity:0.5;stroke:#ffffff;stroke-linejoin:miter;"/>
   </g>
   <g id="patch_43">
    <path clip-path="url(#pce6d342fe0)" d="M 207.997662 221.215748 
L 211.131191 221.215748 
L 211.131191 219.763727 
L 207.997662 219.763727 
z
" style="fill:#4c72b0;opacity:0.5;stroke:#ffffff;stroke-linejoin:miter;"/>
   </g>
   <g id="patch_44">
    <path clip-path="url(#pce6d342fe0)" d="M 211.131191 221.215748 
L 214.264719 221.215748 
L 214.264719 220.36981 
L 211.131191 220.36981 
z
" style="fill:#4c72b0;opacity:0.5;stroke:#ffffff;stroke-linejoin:miter;"/>
   </g>
   <g id="patch_45">
    <path clip-path="url(#pce6d342fe0)" d="M 214.264719 221.215748 
L 217.398248 221.215748 
L 217.398248 220.810833 
L 214.264719 220.810833 
z
" style="fill:#4c72b0;opacity:0.5;stroke:#ffffff;stroke-linejoin:miter;"/>
   </g>
   <g id="patch_46">
    <path clip-path="url(#pce6d342fe0)" d="M 217.398248 221.215748 
L 220.531776 221.215748 
L 220.531776 220.942366 
L 217.398248 220.942366 
z
" style="fill:#4c72b0;opacity:0.5;stroke:#ffffff;stroke-linejoin:miter;"/>
   </g>
   <g id="patch_47">
    <path clip-path="url(#pce6d342fe0)" d="M 220.531776 221.215748 
L 223.665305 221.215748 
L 223.665305 221.138376 
L 220.531776 221.138376 
z
" style="fill:#4c72b0;opacity:0.5;stroke:#ffffff;stroke-linejoin:miter;"/>
   </g>
   <g id="patch_48">
    <path clip-path="url(#pce6d342fe0)" d="M 223.665305 221.215748 
L 226.798833 221.215748 
L 226.798833 221.161587 
L 223.665305 221.161587 
z
" style="fill:#4c72b0;opacity:0.5;stroke:#ffffff;stroke-linejoin:miter;"/>
   </g>
   <g id="patch_49">
    <path clip-path="url(#pce6d342fe0)" d="M 226.798833 221.215748 
L 229.932362 221.215748 
L 229.932362 221.187378 
L 226.798833 221.187378 
z
" style="fill:#4c72b0;opacity:0.5;stroke:#ffffff;stroke-linejoin:miter;"/>
   </g>
   <g id="patch_50">
    <path clip-path="url(#pce6d342fe0)" d="M 229.932362 221.215748 
L 233.06589 221.215748 
L 233.06589 221.208011 
L 229.932362 221.208011 
z
" style="fill:#4c72b0;opacity:0.5;stroke:#ffffff;stroke-linejoin:miter;"/>
   </g>
   <g id="patch_51">
    <path clip-path="url(#pce6d342fe0)" d="M 233.06589 221.215748 
L 236.199419 221.215748 
L 236.199419 221.215748 
L 233.06589 221.215748 
z
" style="fill:#4c72b0;opacity:0.5;stroke:#ffffff;stroke-linejoin:miter;"/>
   </g>
   <g id="patch_52">
    <path clip-path="url(#pce6d342fe0)" d="M 236.199419 221.215748 
L 239.332947 221.215748 
L 239.332947 221.21059 
L 236.199419 221.21059 
z
" style="fill:#4c72b0;opacity:0.5;stroke:#ffffff;stroke-linejoin:miter;"/>
   </g>
   <g id="patch_53">
    <path clip-path="url(#pce6d342fe0)" d="M 99.735528 221.215748 
L 107.382495 221.215748 
L 107.382495 221.208011 
L 99.735528 221.208011 
z
" style="fill:#dd8452;opacity:0.5;stroke:#ffffff;stroke-linejoin:miter;"/>
   </g>
   <g id="patch_54">
    <path clip-path="url(#pce6d342fe0)" d="M 107.382495 221.215748 
L 115.029461 221.215748 
L 115.029461 221.21059 
L 107.382495 221.21059 
z
" style="fill:#dd8452;opacity:0.5;stroke:#ffffff;stroke-linejoin:miter;"/>
   </g>
   <g id="patch_55">
    <path clip-path="url(#pce6d342fe0)" d="M 115.029461 221.215748 
L 122.676428 221.215748 
L 122.676428 221.189957 
L 115.029461 221.189957 
z
" style="fill:#dd8452;opacity:0.5;stroke:#ffffff;stroke-linejoin:miter;"/>
   </g>
   <g id="patch_56">
    <path clip-path="url(#pce6d342fe0)" d="M 122.676428 221.215748 
L 130.323395 221.215748 
L 130.323395 221.166746 
L 122.676428 221.166746 
z
" style="fill:#dd8452;opacity:0.5;stroke:#ffffff;stroke-linejoin:miter;"/>
   </g>
   <g id="patch_57">
    <path clip-path="url(#pce6d342fe0)" d="M 130.323395 221.215748 
L 137.970362 221.215748 
L 137.970362 221.122901 
L 130.323395 221.122901 
z
" style="fill:#dd8452;opacity:0.5;stroke:#ffffff;stroke-linejoin:miter;"/>
   </g>
   <g id="patch_58">
    <path clip-path="url(#pce6d342fe0)" d="M 137.970362 221.215748 
L 145.617329 221.215748 
L 145.617329 220.978473 
L 137.970362 220.978473 
z
" style="fill:#dd8452;opacity:0.5;stroke:#ffffff;stroke-linejoin:miter;"/>
   </g>
   <g id="patch_59">
    <path clip-path="url(#pce6d342fe0)" d="M 145.617329 221.215748 
L 153.264295 221.215748 
L 153.264295 220.800516 
L 145.617329 220.800516 
z
" style="fill:#dd8452;opacity:0.5;stroke:#ffffff;stroke-linejoin:miter;"/>
   </g>
   <g id="patch_60">
    <path clip-path="url(#pce6d342fe0)" d="M 153.264295 221.215748 
L 160.911262 221.215748 
L 160.911262 220.34402 
L 153.264295 220.34402 
z
" style="fill:#dd8452;opacity:0.5;stroke:#ffffff;stroke-linejoin:miter;"/>
   </g>
   <g id="patch_61">
    <path clip-path="url(#pce6d342fe0)" d="M 160.911262 221.215748 
L 168.558229 221.215748 
L 168.558229 219.665722 
L 160.911262 219.665722 
z
" style="fill:#dd8452;opacity:0.5;stroke:#ffffff;stroke-linejoin:miter;"/>
   </g>
   <g id="patch_62">
    <path clip-path="url(#pce6d342fe0)" d="M 168.558229 221.215748 
L 176.205196 221.215748 
L 176.205196 218.494821 
L 168.558229 218.494821 
z
" style="fill:#dd8452;opacity:0.5;stroke:#ffffff;stroke-linejoin:miter;"/>
   </g>
   <g id="patch_63">
    <path clip-path="url(#pce6d342fe0)" d="M 176.205196 221.215748 
L 183.852163 221.215748 
L 183.852163 216.142702 
L 176.205196 216.142702 
z
" style="fill:#dd8452;opacity:0.5;stroke:#ffffff;stroke-linejoin:miter;"/>
   </g>
   <g id="patch_64">
    <path clip-path="url(#pce6d342fe0)" d="M 183.852163 221.215748 
L 191.499129 221.215748 
L 191.499129 212.746056 
L 183.852163 212.746056 
z
" style="fill:#dd8452;opacity:0.5;stroke:#ffffff;stroke-linejoin:miter;"/>
   </g>
   <g id="patch_65">
    <path clip-path="url(#pce6d342fe0)" d="M 191.499129 221.215748 
L 199.146096 221.215748 
L 199.146096 207.211355 
L 191.499129 207.211355 
z
" style="fill:#dd8452;opacity:0.5;stroke:#ffffff;stroke-linejoin:miter;"/>
   </g>
   <g id="patch_66">
    <path clip-path="url(#pce6d342fe0)" d="M 199.146096 221.215748 
L 206.793063 221.215748 
L 206.793063 199.737188 
L 199.146096 199.737188 
z
" style="fill:#dd8452;opacity:0.5;stroke:#ffffff;stroke-linejoin:miter;"/>
   </g>
   <g id="patch_67">
    <path clip-path="url(#pce6d342fe0)" d="M 206.793063 221.215748 
L 214.44003 221.215748 
L 214.44003 188.755474 
L 206.793063 188.755474 
z
" style="fill:#dd8452;opacity:0.5;stroke:#ffffff;stroke-linejoin:miter;"/>
   </g>
   <g id="patch_68">
    <path clip-path="url(#pce6d342fe0)" d="M 214.44003 221.215748 
L 222.086997 221.215748 
L 222.086997 175.181788 
L 214.44003 175.181788 
z
" style="fill:#dd8452;opacity:0.5;stroke:#ffffff;stroke-linejoin:miter;"/>
   </g>
   <g id="patch_69">
    <path clip-path="url(#pce6d342fe0)" d="M 222.086997 221.215748 
L 229.733963 221.215748 
L 229.733963 157.651796 
L 222.086997 157.651796 
z
" style="fill:#dd8452;opacity:0.5;stroke:#ffffff;stroke-linejoin:miter;"/>
   </g>
   <g id="patch_70">
    <path clip-path="url(#pce6d342fe0)" d="M 229.733963 221.215748 
L 237.38093 221.215748 
L 237.38093 135.654841 
L 229.733963 135.654841 
z
" style="fill:#dd8452;opacity:0.5;stroke:#ffffff;stroke-linejoin:miter;"/>
   </g>
   <g id="patch_71">
    <path clip-path="url(#pce6d342fe0)" d="M 237.38093 221.215748 
L 245.027897 221.215748 
L 245.027897 112.200707 
L 237.38093 112.200707 
z
" style="fill:#dd8452;opacity:0.5;stroke:#ffffff;stroke-linejoin:miter;"/>
   </g>
   <g id="patch_72">
    <path clip-path="url(#pce6d342fe0)" d="M 245.027897 221.215748 
L 252.674864 221.215748 
L 252.674864 87.996061 
L 245.027897 87.996061 
z
" style="fill:#dd8452;opacity:0.5;stroke:#ffffff;stroke-linejoin:miter;"/>
   </g>
   <g id="patch_73">
    <path clip-path="url(#pce6d342fe0)" d="M 252.674864 221.215748 
L 260.321831 221.215748 
L 260.321831 63.72178 
L 252.674864 63.72178 
z
" style="fill:#dd8452;opacity:0.5;stroke:#ffffff;stroke-linejoin:miter;"/>
   </g>
   <g id="patch_74">
    <path clip-path="url(#pce6d342fe0)" d="M 260.321831 221.215748 
L 267.968797 221.215748 
L 267.968797 43.831932 
L 260.321831 43.831932 
z
" style="fill:#dd8452;opacity:0.5;stroke:#ffffff;stroke-linejoin:miter;"/>
   </g>
   <g id="patch_75">
    <path clip-path="url(#pce6d342fe0)" d="M 267.968797 221.215748 
L 275.615764 221.215748 
L 275.615764 27.382574 
L 267.968797 27.382574 
z
" style="fill:#dd8452;opacity:0.5;stroke:#ffffff;stroke-linejoin:miter;"/>
   </g>
   <g id="patch_76">
    <path clip-path="url(#pce6d342fe0)" d="M 275.615764 221.215748 
L 283.262731 221.215748 
L 283.262731 17.391226 
L 275.615764 17.391226 
z
" style="fill:#dd8452;opacity:0.5;stroke:#ffffff;stroke-linejoin:miter;"/>
   </g>
   <g id="patch_77">
    <path clip-path="url(#pce6d342fe0)" d="M 283.262731 221.215748 
L 290.909698 221.215748 
L 290.909698 18.559548 
L 283.262731 18.559548 
z
" style="fill:#dd8452;opacity:0.5;stroke:#ffffff;stroke-linejoin:miter;"/>
   </g>
   <g id="patch_78">
    <path clip-path="url(#pce6d342fe0)" d="M 290.909698 221.215748 
L 298.556665 221.215748 
L 298.556665 25.618484 
L 290.909698 25.618484 
z
" style="fill:#dd8452;opacity:0.5;stroke:#ffffff;stroke-linejoin:miter;"/>
   </g>
   <g id="patch_79">
    <path clip-path="url(#pce6d342fe0)" d="M 298.556665 221.215748 
L 306.203631 221.215748 
L 306.203631 40.471394 
L 298.556665 40.471394 
z
" style="fill:#dd8452;opacity:0.5;stroke:#ffffff;stroke-linejoin:miter;"/>
   </g>
   <g id="patch_80">
    <path clip-path="url(#pce6d342fe0)" d="M 306.203631 221.215748 
L 313.850598 221.215748 
L 313.850598 59.484356 
L 306.203631 59.484356 
z
" style="fill:#dd8452;opacity:0.5;stroke:#ffffff;stroke-linejoin:miter;"/>
   </g>
   <g id="patch_81">
    <path clip-path="url(#pce6d342fe0)" d="M 313.850598 221.215748 
L 321.497565 221.215748 
L 321.497565 84.506569 
L 313.850598 84.506569 
z
" style="fill:#dd8452;opacity:0.5;stroke:#ffffff;stroke-linejoin:miter;"/>
   </g>
   <g id="patch_82">
    <path clip-path="url(#pce6d342fe0)" d="M 321.497565 221.215748 
L 329.144532 221.215748 
L 329.144532 106.921334 
L 321.497565 106.921334 
z
" style="fill:#dd8452;opacity:0.5;stroke:#ffffff;stroke-linejoin:miter;"/>
   </g>
   <g id="patch_83">
    <path clip-path="url(#pce6d342fe0)" d="M 329.144532 221.215748 
L 336.791499 221.215748 
L 336.791499 131.185299 
L 329.144532 131.185299 
z
" style="fill:#dd8452;opacity:0.5;stroke:#ffffff;stroke-linejoin:miter;"/>
   </g>
   <g id="patch_84">
    <path clip-path="url(#pce6d342fe0)" d="M 336.791499 221.215748 
L 344.438465 221.215748 
L 344.438465 152.702545 
L 336.791499 152.702545 
z
" style="fill:#dd8452;opacity:0.5;stroke:#ffffff;stroke-linejoin:miter;"/>
   </g>
   <g id="patch_85">
    <path clip-path="url(#pce6d342fe0)" d="M 344.438465 221.215748 
L 352.085432 221.215748 
L 352.085432 171.54013 
L 344.438465 171.54013 
z
" style="fill:#dd8452;opacity:0.5;stroke:#ffffff;stroke-linejoin:miter;"/>
   </g>
   <g id="patch_86">
    <path clip-path="url(#pce6d342fe0)" d="M 352.085432 221.215748 
L 359.732399 221.215748 
L 359.732399 186.344037 
L 352.085432 186.344037 
z
" style="fill:#dd8452;opacity:0.5;stroke:#ffffff;stroke-linejoin:miter;"/>
   </g>
   <g id="patch_87">
    <path clip-path="url(#pce6d342fe0)" d="M 359.732399 221.215748 
L 367.379366 221.215748 
L 367.379366 197.66103 
L 359.732399 197.66103 
z
" style="fill:#dd8452;opacity:0.5;stroke:#ffffff;stroke-linejoin:miter;"/>
   </g>
   <g id="patch_88">
    <path clip-path="url(#pce6d342fe0)" d="M 367.379366 221.215748 
L 375.026333 221.215748 
L 375.026333 205.877972 
L 367.379366 205.877972 
z
" style="fill:#dd8452;opacity:0.5;stroke:#ffffff;stroke-linejoin:miter;"/>
   </g>
   <g id="patch_89">
    <path clip-path="url(#pce6d342fe0)" d="M 375.026333 221.215748 
L 382.673299 221.215748 
L 382.673299 211.742795 
L 375.026333 211.742795 
z
" style="fill:#dd8452;opacity:0.5;stroke:#ffffff;stroke-linejoin:miter;"/>
   </g>
   <g id="patch_90">
    <path clip-path="url(#pce6d342fe0)" d="M 382.673299 221.215748 
L 390.320266 221.215748 
L 390.320266 215.53146 
L 382.673299 215.53146 
z
" style="fill:#dd8452;opacity:0.5;stroke:#ffffff;stroke-linejoin:miter;"/>
   </g>
   <g id="patch_91">
    <path clip-path="url(#pce6d342fe0)" d="M 390.320266 221.215748 
L 397.967233 221.215748 
L 397.967233 217.948056 
L 390.320266 217.948056 
z
" style="fill:#dd8452;opacity:0.5;stroke:#ffffff;stroke-linejoin:miter;"/>
   </g>
   <g id="patch_92">
    <path clip-path="url(#pce6d342fe0)" d="M 397.967233 221.215748 
L 405.6142 221.215748 
L 405.6142 219.369128 
L 397.967233 219.369128 
z
" style="fill:#dd8452;opacity:0.5;stroke:#ffffff;stroke-linejoin:miter;"/>
   </g>
   <g id="patch_93">
    <path clip-path="url(#pce6d342fe0)" d="M 405.6142 221.215748 
L 413.261167 221.215748 
L 413.261167 220.225382 
L 405.6142 220.225382 
z
" style="fill:#dd8452;opacity:0.5;stroke:#ffffff;stroke-linejoin:miter;"/>
   </g>
   <g id="patch_94">
    <path clip-path="url(#pce6d342fe0)" d="M 413.261167 221.215748 
L 420.908133 221.215748 
L 420.908133 220.725723 
L 413.261167 220.725723 
z
" style="fill:#dd8452;opacity:0.5;stroke:#ffffff;stroke-linejoin:miter;"/>
   </g>
   <g id="patch_95">
    <path clip-path="url(#pce6d342fe0)" d="M 420.908133 221.215748 
L 428.5551 221.215748 
L 428.5551 220.937208 
L 420.908133 220.937208 
z
" style="fill:#dd8452;opacity:0.5;stroke:#ffffff;stroke-linejoin:miter;"/>
   </g>
   <g id="patch_96">
    <path clip-path="url(#pce6d342fe0)" d="M 428.5551 221.215748 
L 436.202067 221.215748 
L 436.202067 221.128059 
L 428.5551 221.128059 
z
" style="fill:#dd8452;opacity:0.5;stroke:#ffffff;stroke-linejoin:miter;"/>
   </g>
   <g id="patch_97">
    <path clip-path="url(#pce6d342fe0)" d="M 436.202067 221.215748 
L 443.849034 221.215748 
L 443.849034 221.159008 
L 436.202067 221.159008 
z
" style="fill:#dd8452;opacity:0.5;stroke:#ffffff;stroke-linejoin:miter;"/>
   </g>
   <g id="patch_98">
    <path clip-path="url(#pce6d342fe0)" d="M 443.849034 221.215748 
L 451.496001 221.215748 
L 451.496001 221.189957 
L 443.849034 221.189957 
z
" style="fill:#dd8452;opacity:0.5;stroke:#ffffff;stroke-linejoin:miter;"/>
   </g>
   <g id="patch_99">
    <path clip-path="url(#pce6d342fe0)" d="M 451.496001 221.215748 
L 459.142967 221.215748 
L 459.142967 221.213169 
L 451.496001 221.213169 
z
" style="fill:#dd8452;opacity:0.5;stroke:#ffffff;stroke-linejoin:miter;"/>
   </g>
   <g id="patch_100">
    <path clip-path="url(#pce6d342fe0)" d="M 459.142967 221.215748 
L 466.789934 221.215748 
L 466.789934 221.215748 
L 459.142967 221.215748 
z
" style="fill:#dd8452;opacity:0.5;stroke:#ffffff;stroke-linejoin:miter;"/>
   </g>
   <g id="patch_101">
    <path clip-path="url(#pce6d342fe0)" d="M 466.789934 221.215748 
L 474.436901 221.215748 
L 474.436901 221.215748 
L 466.789934 221.215748 
z
" style="fill:#dd8452;opacity:0.5;stroke:#ffffff;stroke-linejoin:miter;"/>
   </g>
   <g id="patch_102">
    <path clip-path="url(#pce6d342fe0)" d="M 474.436901 221.215748 
L 482.083868 221.215748 
L 482.083868 221.213169 
L 474.436901 221.213169 
z
" style="fill:#dd8452;opacity:0.5;stroke:#ffffff;stroke-linejoin:miter;"/>
   </g>
   <g id="patch_103">
    <path d="M 62.685156 221.215748 
L 62.685156 7.2 
" style="fill:none;stroke:#262626;stroke-linecap:square;stroke-linejoin:miter;stroke-width:1.25;"/>
   </g>
   <g id="patch_104">
    <path d="M 502.055235 221.215748 
L 502.055235 7.2 
" style="fill:none;stroke:#262626;stroke-linecap:square;stroke-linejoin:miter;stroke-width:1.25;"/>
   </g>
   <g id="patch_105">
    <path d="M 62.685156 221.215748 
L 502.055235 221.215748 
" style="fill:none;stroke:#262626;stroke-linecap:square;stroke-linejoin:miter;stroke-width:1.25;"/>
   </g>
   <g id="patch_106">
    <path d="M 62.685156 7.2 
L 502.055235 7.2 
" style="fill:none;stroke:#262626;stroke-linecap:square;stroke-linejoin:miter;stroke-width:1.25;"/>
   </g>
   <g id="legend_1">
    <g id="patch_107">
     <path d="M 446.285235 47.289844 
L 494.355235 47.289844 
Q 496.555235 47.289844 496.555235 45.089844 
L 496.555235 14.9 
Q 496.555235 12.7 494.355235 12.7 
L 446.285235 12.7 
Q 444.085235 12.7 444.085235 14.9 
L 444.085235 45.089844 
Q 444.085235 47.289844 446.285235 47.289844 
z
" style="fill:#ffffff;opacity:0.8;stroke:#cccccc;stroke-linejoin:miter;"/>
    </g>
    <g id="patch_108">
     <path d="M 448.485235 24.973594 
L 470.485235 24.973594 
L 470.485235 17.273594 
L 448.485235 17.273594 
z
" style="fill:#4c72b0;opacity:0.5;stroke:#ffffff;stroke-linejoin:miter;"/>
    </g>
    <g id="text_20">
     <!-- $R_0$ -->
     <g style="fill:#262626;" transform="translate(479.285235 24.973594)scale(0.11 -0.11)">
      <use transform="translate(0 0.09375)" xlink:href="#DejaVuSans-Oblique-82"/>
      <use transform="translate(69.482422 -16.3125)scale(0.7)" xlink:href="#DejaVuSans-48"/>
     </g>
    </g>
    <g id="patch_109">
     <path d="M 448.485235 40.703594 
L 470.485235 40.703594 
L 470.485235 33.003594 
L 448.485235 33.003594 
z
" style="fill:#dd8452;opacity:0.5;stroke:#ffffff;stroke-linejoin:miter;"/>
    </g>
    <g id="text_21">
     <!-- $S_0$ -->
     <g style="fill:#262626;" transform="translate(479.285235 40.703594)scale(0.11 -0.11)">
      <use transform="translate(0 0.78125)" xlink:href="#DejaVuSans-Oblique-83"/>
      <use transform="translate(63.476562 -15.625)scale(0.7)" xlink:href="#DejaVuSans-48"/>
     </g>
    </g>
   </g>
  </g>
 </g>
 <defs>
  <clipPath id="pce6d342fe0">
   <rect height="214.015748" width="439.370079" x="62.685156" y="7.2"/>
  </clipPath>
 </defs>
</svg>
