<?xml version="1.0" encoding="utf-8" standalone="no"?>
<!DOCTYPE svg PUBLIC "-//W3C//DTD SVG 1.1//EN"
  "http://www.w3.org/Graphics/SVG/1.1/DTD/svg11.dtd">
<!-- Created with matplotlib (https://matplotlib.org/) -->
<svg height="258.771998pt" version="1.1" viewBox="0 0 489.475785 258.771998" width="489.475785pt" xmlns="http://www.w3.org/2000/svg" xmlns:xlink="http://www.w3.org/1999/xlink">
 <metadata>
  <rdf:RDF xmlns:cc="http://creativecommons.org/ns#" xmlns:dc="http://purl.org/dc/elements/1.1/" xmlns:rdf="http://www.w3.org/1999/02/22-rdf-syntax-ns#">
   <cc:Work>
    <dc:type rdf:resource="http://purl.org/dc/dcmitype/StillImage"/>
    <dc:date>2021-10-07T21:08:25.561074</dc:date>
    <dc:format>image/svg+xml</dc:format>
    <dc:creator>
     <cc:Agent>
      <dc:title>Matplotlib v3.3.4, https://matplotlib.org/</dc:title>
     </cc:Agent>
    </dc:creator>
   </cc:Work>
  </rdf:RDF>
 </metadata>
 <defs>
  <style type="text/css">*{stroke-linecap:butt;stroke-linejoin:round;}</style>
 </defs>
 <g id="figure_1">
  <g id="patch_1">
   <path d="M 0 258.771998 
L 489.475785 258.771998 
L 489.475785 0 
L 0 0 
z
" style="fill:none;"/>
  </g>
  <g id="axes_1">
   <g id="patch_2">
    <path d="M 41.003125 221.215748 
L 480.373204 221.215748 
L 480.373204 7.2 
L 41.003125 7.2 
z
" style="fill:none;"/>
   </g>
   <g id="patch_3">
    <path clip-path="url(#pfb17eaf319)" d="M 219.838275 221.215748 
L 224.649547 221.215748 
L 224.649547 205.774496 
L 219.838275 205.774496 
z
" style="fill:#1f77b4;opacity:0.5;"/>
   </g>
   <g id="patch_4">
    <path clip-path="url(#pfb17eaf319)" d="M 224.649547 221.215748 
L 229.460818 221.215748 
L 229.460818 221.215748 
L 224.649547 221.215748 
z
" style="fill:#1f77b4;opacity:0.5;"/>
   </g>
   <g id="patch_5">
    <path clip-path="url(#pfb17eaf319)" d="M 229.460818 221.215748 
L 234.272089 221.215748 
L 234.272089 211.950997 
L 229.460818 211.950997 
z
" style="fill:#1f77b4;opacity:0.5;"/>
   </g>
   <g id="patch_6">
    <path clip-path="url(#pfb17eaf319)" d="M 234.272089 221.215748 
L 239.08336 221.215748 
L 239.08336 208.862747 
L 234.272089 208.862747 
z
" style="fill:#1f77b4;opacity:0.5;"/>
   </g>
   <g id="patch_7">
    <path clip-path="url(#pfb17eaf319)" d="M 239.08336 221.215748 
L 243.894632 221.215748 
L 243.894632 199.597996 
L 239.08336 199.597996 
z
" style="fill:#1f77b4;opacity:0.5;"/>
   </g>
   <g id="patch_8">
    <path clip-path="url(#pfb17eaf319)" d="M 243.894632 221.215748 
L 248.705903 221.215748 
L 248.705903 196.509745 
L 243.894632 196.509745 
z
" style="fill:#1f77b4;opacity:0.5;"/>
   </g>
   <g id="patch_9">
    <path clip-path="url(#pfb17eaf319)" d="M 248.705903 221.215748 
L 253.517174 221.215748 
L 253.517174 184.156744 
L 248.705903 184.156744 
z
" style="fill:#1f77b4;opacity:0.5;"/>
   </g>
   <g id="patch_10">
    <path clip-path="url(#pfb17eaf319)" d="M 253.517174 221.215748 
L 258.328445 221.215748 
L 258.328445 193.421495 
L 253.517174 193.421495 
z
" style="fill:#1f77b4;opacity:0.5;"/>
   </g>
   <g id="patch_11">
    <path clip-path="url(#pfb17eaf319)" d="M 258.328445 221.215748 
L 263.139716 221.215748 
L 263.139716 196.509745 
L 258.328445 196.509745 
z
" style="fill:#1f77b4;opacity:0.5;"/>
   </g>
   <g id="patch_12">
    <path clip-path="url(#pfb17eaf319)" d="M 263.139716 221.215748 
L 267.950988 221.215748 
L 267.950988 193.421495 
L 263.139716 193.421495 
z
" style="fill:#1f77b4;opacity:0.5;"/>
   </g>
   <g id="patch_13">
    <path clip-path="url(#pfb17eaf319)" d="M 267.950988 221.215748 
L 272.762259 221.215748 
L 272.762259 159.450741 
L 267.950988 159.450741 
z
" style="fill:#1f77b4;opacity:0.5;"/>
   </g>
   <g id="patch_14">
    <path clip-path="url(#pfb17eaf319)" d="M 272.762259 221.215748 
L 277.57353 221.215748 
L 277.57353 177.980243 
L 272.762259 177.980243 
z
" style="fill:#1f77b4;opacity:0.5;"/>
   </g>
   <g id="patch_15">
    <path clip-path="url(#pfb17eaf319)" d="M 277.57353 221.215748 
L 282.384801 221.215748 
L 282.384801 140.921239 
L 277.57353 140.921239 
z
" style="fill:#1f77b4;opacity:0.5;"/>
   </g>
   <g id="patch_16">
    <path clip-path="url(#pfb17eaf319)" d="M 282.384801 221.215748 
L 287.196073 221.215748 
L 287.196073 159.450741 
L 282.384801 159.450741 
z
" style="fill:#1f77b4;opacity:0.5;"/>
   </g>
   <g id="patch_17">
    <path clip-path="url(#pfb17eaf319)" d="M 287.196073 221.215748 
L 292.007344 221.215748 
L 292.007344 100.773985 
L 287.196073 100.773985 
z
" style="fill:#1f77b4;opacity:0.5;"/>
   </g>
   <g id="patch_18">
    <path clip-path="url(#pfb17eaf319)" d="M 292.007344 221.215748 
L 296.818615 221.215748 
L 296.818615 119.303487 
L 292.007344 119.303487 
z
" style="fill:#1f77b4;opacity:0.5;"/>
   </g>
   <g id="patch_19">
    <path clip-path="url(#pfb17eaf319)" d="M 296.818615 221.215748 
L 301.629886 221.215748 
L 301.629886 91.509234 
L 296.818615 91.509234 
z
" style="fill:#1f77b4;opacity:0.5;"/>
   </g>
   <g id="patch_20">
    <path clip-path="url(#pfb17eaf319)" d="M 301.629886 221.215748 
L 306.441157 221.215748 
L 306.441157 110.038736 
L 301.629886 110.038736 
z
" style="fill:#1f77b4;opacity:0.5;"/>
   </g>
   <g id="patch_21">
    <path clip-path="url(#pfb17eaf319)" d="M 306.441157 221.215748 
L 311.252429 221.215748 
L 311.252429 88.420984 
L 306.441157 88.420984 
z
" style="fill:#1f77b4;opacity:0.5;"/>
   </g>
   <g id="patch_22">
    <path clip-path="url(#pfb17eaf319)" d="M 311.252429 221.215748 
L 316.0637 221.215748 
L 316.0637 60.626731 
L 311.252429 60.626731 
z
" style="fill:#1f77b4;opacity:0.5;"/>
   </g>
   <g id="patch_23">
    <path clip-path="url(#pfb17eaf319)" d="M 316.0637 221.215748 
L 320.874971 221.215748 
L 320.874971 97.685735 
L 316.0637 97.685735 
z
" style="fill:#1f77b4;opacity:0.5;"/>
   </g>
   <g id="patch_24">
    <path clip-path="url(#pfb17eaf319)" d="M 320.874971 221.215748 
L 325.686242 221.215748 
L 325.686242 51.36198 
L 320.874971 51.36198 
z
" style="fill:#1f77b4;opacity:0.5;"/>
   </g>
   <g id="patch_25">
    <path clip-path="url(#pfb17eaf319)" d="M 325.686242 221.215748 
L 330.497514 221.215748 
L 330.497514 79.156233 
L 325.686242 79.156233 
z
" style="fill:#1f77b4;opacity:0.5;"/>
   </g>
   <g id="patch_26">
    <path clip-path="url(#pfb17eaf319)" d="M 330.497514 221.215748 
L 335.308785 221.215748 
L 335.308785 63.714981 
L 330.497514 63.714981 
z
" style="fill:#1f77b4;opacity:0.5;"/>
   </g>
   <g id="patch_27">
    <path clip-path="url(#pfb17eaf319)" d="M 335.308785 221.215748 
L 340.120056 221.215748 
L 340.120056 72.979732 
L 335.308785 72.979732 
z
" style="fill:#1f77b4;opacity:0.5;"/>
   </g>
   <g id="patch_28">
    <path clip-path="url(#pfb17eaf319)" d="M 340.120056 221.215748 
L 344.931327 221.215748 
L 344.931327 91.509234 
L 340.120056 91.509234 
z
" style="fill:#1f77b4;opacity:0.5;"/>
   </g>
   <g id="patch_29">
    <path clip-path="url(#pfb17eaf319)" d="M 344.931327 221.215748 
L 349.742598 221.215748 
L 349.742598 110.038736 
L 344.931327 110.038736 
z
" style="fill:#1f77b4;opacity:0.5;"/>
   </g>
   <g id="patch_30">
    <path clip-path="url(#pfb17eaf319)" d="M 349.742598 221.215748 
L 354.55387 221.215748 
L 354.55387 134.744739 
L 349.742598 134.744739 
z
" style="fill:#1f77b4;opacity:0.5;"/>
   </g>
   <g id="patch_31">
    <path clip-path="url(#pfb17eaf319)" d="M 354.55387 221.215748 
L 359.365141 221.215748 
L 359.365141 79.156233 
L 354.55387 79.156233 
z
" style="fill:#1f77b4;opacity:0.5;"/>
   </g>
   <g id="patch_32">
    <path clip-path="url(#pfb17eaf319)" d="M 359.365141 221.215748 
L 364.176412 221.215748 
L 364.176412 113.126986 
L 359.365141 113.126986 
z
" style="fill:#1f77b4;opacity:0.5;"/>
   </g>
   <g id="patch_33">
    <path clip-path="url(#pfb17eaf319)" d="M 364.176412 221.215748 
L 368.987683 221.215748 
L 368.987683 134.744739 
L 364.176412 134.744739 
z
" style="fill:#1f77b4;opacity:0.5;"/>
   </g>
   <g id="patch_34">
    <path clip-path="url(#pfb17eaf319)" d="M 368.987683 221.215748 
L 373.798955 221.215748 
L 373.798955 147.09774 
L 368.987683 147.09774 
z
" style="fill:#1f77b4;opacity:0.5;"/>
   </g>
   <g id="patch_35">
    <path clip-path="url(#pfb17eaf319)" d="M 373.798955 221.215748 
L 378.610226 221.215748 
L 378.610226 156.362491 
L 373.798955 156.362491 
z
" style="fill:#1f77b4;opacity:0.5;"/>
   </g>
   <g id="patch_36">
    <path clip-path="url(#pfb17eaf319)" d="M 378.610226 221.215748 
L 383.421497 221.215748 
L 383.421497 168.715492 
L 378.610226 168.715492 
z
" style="fill:#1f77b4;opacity:0.5;"/>
   </g>
   <g id="patch_37">
    <path clip-path="url(#pfb17eaf319)" d="M 383.421497 221.215748 
L 388.232768 221.215748 
L 388.232768 159.450741 
L 383.421497 159.450741 
z
" style="fill:#1f77b4;opacity:0.5;"/>
   </g>
   <g id="patch_38">
    <path clip-path="url(#pfb17eaf319)" d="M 388.232768 221.215748 
L 393.044039 221.215748 
L 393.044039 181.068494 
L 388.232768 181.068494 
z
" style="fill:#1f77b4;opacity:0.5;"/>
   </g>
   <g id="patch_39">
    <path clip-path="url(#pfb17eaf319)" d="M 393.044039 221.215748 
L 397.855311 221.215748 
L 397.855311 184.156744 
L 393.044039 184.156744 
z
" style="fill:#1f77b4;opacity:0.5;"/>
   </g>
   <g id="patch_40">
    <path clip-path="url(#pfb17eaf319)" d="M 397.855311 221.215748 
L 402.666582 221.215748 
L 402.666582 171.803743 
L 397.855311 171.803743 
z
" style="fill:#1f77b4;opacity:0.5;"/>
   </g>
   <g id="patch_41">
    <path clip-path="url(#pfb17eaf319)" d="M 402.666582 221.215748 
L 407.477853 221.215748 
L 407.477853 199.597996 
L 402.666582 199.597996 
z
" style="fill:#1f77b4;opacity:0.5;"/>
   </g>
   <g id="patch_42">
    <path clip-path="url(#pfb17eaf319)" d="M 407.477853 221.215748 
L 412.289124 221.215748 
L 412.289124 208.862747 
L 407.477853 208.862747 
z
" style="fill:#1f77b4;opacity:0.5;"/>
   </g>
   <g id="patch_43">
    <path clip-path="url(#pfb17eaf319)" d="M 412.289124 221.215748 
L 417.100396 221.215748 
L 417.100396 196.509745 
L 412.289124 196.509745 
z
" style="fill:#1f77b4;opacity:0.5;"/>
   </g>
   <g id="patch_44">
    <path clip-path="url(#pfb17eaf319)" d="M 417.100396 221.215748 
L 421.911667 221.215748 
L 421.911667 221.215748 
L 417.100396 221.215748 
z
" style="fill:#1f77b4;opacity:0.5;"/>
   </g>
   <g id="patch_45">
    <path clip-path="url(#pfb17eaf319)" d="M 421.911667 221.215748 
L 426.722938 221.215748 
L 426.722938 202.686246 
L 421.911667 202.686246 
z
" style="fill:#1f77b4;opacity:0.5;"/>
   </g>
   <g id="patch_46">
    <path clip-path="url(#pfb17eaf319)" d="M 426.722938 221.215748 
L 431.534209 221.215748 
L 431.534209 211.950997 
L 426.722938 211.950997 
z
" style="fill:#1f77b4;opacity:0.5;"/>
   </g>
   <g id="patch_47">
    <path clip-path="url(#pfb17eaf319)" d="M 431.534209 221.215748 
L 436.34548 221.215748 
L 436.34548 221.215748 
L 431.534209 221.215748 
z
" style="fill:#1f77b4;opacity:0.5;"/>
   </g>
   <g id="patch_48">
    <path clip-path="url(#pfb17eaf319)" d="M 436.34548 221.215748 
L 441.156752 221.215748 
L 441.156752 218.127498 
L 436.34548 218.127498 
z
" style="fill:#1f77b4;opacity:0.5;"/>
   </g>
   <g id="patch_49">
    <path clip-path="url(#pfb17eaf319)" d="M 441.156752 221.215748 
L 445.968023 221.215748 
L 445.968023 221.215748 
L 441.156752 221.215748 
z
" style="fill:#1f77b4;opacity:0.5;"/>
   </g>
   <g id="patch_50">
    <path clip-path="url(#pfb17eaf319)" d="M 445.968023 221.215748 
L 450.779294 221.215748 
L 450.779294 221.215748 
L 445.968023 221.215748 
z
" style="fill:#1f77b4;opacity:0.5;"/>
   </g>
   <g id="patch_51">
    <path clip-path="url(#pfb17eaf319)" d="M 450.779294 221.215748 
L 455.590565 221.215748 
L 455.590565 221.215748 
L 450.779294 221.215748 
z
" style="fill:#1f77b4;opacity:0.5;"/>
   </g>
   <g id="patch_52">
    <path clip-path="url(#pfb17eaf319)" d="M 455.590565 221.215748 
L 460.401837 221.215748 
L 460.401837 211.950997 
L 455.590565 211.950997 
z
" style="fill:#1f77b4;opacity:0.5;"/>
   </g>
   <g id="patch_53">
    <path clip-path="url(#pfb17eaf319)" d="M 60.974492 221.215748 
L 64.011681 221.215748 
L 64.011681 218.127498 
L 60.974492 218.127498 
z
" style="fill:#ff7f0e;opacity:0.5;"/>
   </g>
   <g id="patch_54">
    <path clip-path="url(#pfb17eaf319)" d="M 64.011681 221.215748 
L 67.04887 221.215748 
L 67.04887 221.215748 
L 64.011681 221.215748 
z
" style="fill:#ff7f0e;opacity:0.5;"/>
   </g>
   <g id="patch_55">
    <path clip-path="url(#pfb17eaf319)" d="M 67.04887 221.215748 
L 70.086058 221.215748 
L 70.086058 218.127498 
L 67.04887 218.127498 
z
" style="fill:#ff7f0e;opacity:0.5;"/>
   </g>
   <g id="patch_56">
    <path clip-path="url(#pfb17eaf319)" d="M 70.086058 221.215748 
L 73.123247 221.215748 
L 73.123247 221.215748 
L 70.086058 221.215748 
z
" style="fill:#ff7f0e;opacity:0.5;"/>
   </g>
   <g id="patch_57">
    <path clip-path="url(#pfb17eaf319)" d="M 73.123247 221.215748 
L 76.160436 221.215748 
L 76.160436 215.039247 
L 73.123247 215.039247 
z
" style="fill:#ff7f0e;opacity:0.5;"/>
   </g>
   <g id="patch_58">
    <path clip-path="url(#pfb17eaf319)" d="M 76.160436 221.215748 
L 79.197625 221.215748 
L 79.197625 215.039247 
L 76.160436 215.039247 
z
" style="fill:#ff7f0e;opacity:0.5;"/>
   </g>
   <g id="patch_59">
    <path clip-path="url(#pfb17eaf319)" d="M 79.197625 221.215748 
L 82.234813 221.215748 
L 82.234813 218.127498 
L 79.197625 218.127498 
z
" style="fill:#ff7f0e;opacity:0.5;"/>
   </g>
   <g id="patch_60">
    <path clip-path="url(#pfb17eaf319)" d="M 82.234813 221.215748 
L 85.272002 221.215748 
L 85.272002 215.039247 
L 82.234813 215.039247 
z
" style="fill:#ff7f0e;opacity:0.5;"/>
   </g>
   <g id="patch_61">
    <path clip-path="url(#pfb17eaf319)" d="M 85.272002 221.215748 
L 88.309191 221.215748 
L 88.309191 190.333245 
L 85.272002 190.333245 
z
" style="fill:#ff7f0e;opacity:0.5;"/>
   </g>
   <g id="patch_62">
    <path clip-path="url(#pfb17eaf319)" d="M 88.309191 221.215748 
L 91.346379 221.215748 
L 91.346379 202.686246 
L 88.309191 202.686246 
z
" style="fill:#ff7f0e;opacity:0.5;"/>
   </g>
   <g id="patch_63">
    <path clip-path="url(#pfb17eaf319)" d="M 91.346379 221.215748 
L 94.383568 221.215748 
L 94.383568 199.597996 
L 91.346379 199.597996 
z
" style="fill:#ff7f0e;opacity:0.5;"/>
   </g>
   <g id="patch_64">
    <path clip-path="url(#pfb17eaf319)" d="M 94.383568 221.215748 
L 97.420757 221.215748 
L 97.420757 196.509745 
L 94.383568 196.509745 
z
" style="fill:#ff7f0e;opacity:0.5;"/>
   </g>
   <g id="patch_65">
    <path clip-path="url(#pfb17eaf319)" d="M 97.420757 221.215748 
L 100.457946 221.215748 
L 100.457946 184.156744 
L 97.420757 184.156744 
z
" style="fill:#ff7f0e;opacity:0.5;"/>
   </g>
   <g id="patch_66">
    <path clip-path="url(#pfb17eaf319)" d="M 100.457946 221.215748 
L 103.495134 221.215748 
L 103.495134 190.333245 
L 100.457946 190.333245 
z
" style="fill:#ff7f0e;opacity:0.5;"/>
   </g>
   <g id="patch_67">
    <path clip-path="url(#pfb17eaf319)" d="M 103.495134 221.215748 
L 106.532323 221.215748 
L 106.532323 144.00949 
L 103.495134 144.00949 
z
" style="fill:#ff7f0e;opacity:0.5;"/>
   </g>
   <g id="patch_68">
    <path clip-path="url(#pfb17eaf319)" d="M 106.532323 221.215748 
L 109.569512 221.215748 
L 109.569512 147.09774 
L 106.532323 147.09774 
z
" style="fill:#ff7f0e;opacity:0.5;"/>
   </g>
   <g id="patch_69">
    <path clip-path="url(#pfb17eaf319)" d="M 109.569512 221.215748 
L 112.606701 221.215748 
L 112.606701 119.303487 
L 109.569512 119.303487 
z
" style="fill:#ff7f0e;opacity:0.5;"/>
   </g>
   <g id="patch_70">
    <path clip-path="url(#pfb17eaf319)" d="M 112.606701 221.215748 
L 115.643889 221.215748 
L 115.643889 94.597484 
L 112.606701 94.597484 
z
" style="fill:#ff7f0e;opacity:0.5;"/>
   </g>
   <g id="patch_71">
    <path clip-path="url(#pfb17eaf319)" d="M 115.643889 221.215748 
L 118.681078 221.215748 
L 118.681078 88.420984 
L 115.643889 88.420984 
z
" style="fill:#ff7f0e;opacity:0.5;"/>
   </g>
   <g id="patch_72">
    <path clip-path="url(#pfb17eaf319)" d="M 118.681078 221.215748 
L 121.718267 221.215748 
L 121.718267 69.891482 
L 118.681078 69.891482 
z
" style="fill:#ff7f0e;opacity:0.5;"/>
   </g>
   <g id="patch_73">
    <path clip-path="url(#pfb17eaf319)" d="M 121.718267 221.215748 
L 124.755455 221.215748 
L 124.755455 17.391226 
L 121.718267 17.391226 
z
" style="fill:#ff7f0e;opacity:0.5;"/>
   </g>
   <g id="patch_74">
    <path clip-path="url(#pfb17eaf319)" d="M 124.755455 221.215748 
L 127.792644 221.215748 
L 127.792644 39.008978 
L 124.755455 39.008978 
z
" style="fill:#ff7f0e;opacity:0.5;"/>
   </g>
   <g id="patch_75">
    <path clip-path="url(#pfb17eaf319)" d="M 127.792644 221.215748 
L 130.829833 221.215748 
L 130.829833 26.655977 
L 127.792644 26.655977 
z
" style="fill:#ff7f0e;opacity:0.5;"/>
   </g>
   <g id="patch_76">
    <path clip-path="url(#pfb17eaf319)" d="M 130.829833 221.215748 
L 133.867022 221.215748 
L 133.867022 66.803231 
L 130.829833 66.803231 
z
" style="fill:#ff7f0e;opacity:0.5;"/>
   </g>
   <g id="patch_77">
    <path clip-path="url(#pfb17eaf319)" d="M 133.867022 221.215748 
L 136.90421 221.215748 
L 136.90421 45.185479 
L 133.867022 45.185479 
z
" style="fill:#ff7f0e;opacity:0.5;"/>
   </g>
   <g id="patch_78">
    <path clip-path="url(#pfb17eaf319)" d="M 136.90421 221.215748 
L 139.941399 221.215748 
L 139.941399 35.920728 
L 136.90421 35.920728 
z
" style="fill:#ff7f0e;opacity:0.5;"/>
   </g>
   <g id="patch_79">
    <path clip-path="url(#pfb17eaf319)" d="M 139.941399 221.215748 
L 142.978588 221.215748 
L 142.978588 63.714981 
L 139.941399 63.714981 
z
" style="fill:#ff7f0e;opacity:0.5;"/>
   </g>
   <g id="patch_80">
    <path clip-path="url(#pfb17eaf319)" d="M 142.978588 221.215748 
L 146.015777 221.215748 
L 146.015777 72.979732 
L 142.978588 72.979732 
z
" style="fill:#ff7f0e;opacity:0.5;"/>
   </g>
   <g id="patch_81">
    <path clip-path="url(#pfb17eaf319)" d="M 146.015777 221.215748 
L 149.052965 221.215748 
L 149.052965 110.038736 
L 146.015777 110.038736 
z
" style="fill:#ff7f0e;opacity:0.5;"/>
   </g>
   <g id="patch_82">
    <path clip-path="url(#pfb17eaf319)" d="M 149.052965 221.215748 
L 152.090154 221.215748 
L 152.090154 97.685735 
L 149.052965 97.685735 
z
" style="fill:#ff7f0e;opacity:0.5;"/>
   </g>
   <g id="patch_83">
    <path clip-path="url(#pfb17eaf319)" d="M 152.090154 221.215748 
L 155.127343 221.215748 
L 155.127343 134.744739 
L 152.090154 134.744739 
z
" style="fill:#ff7f0e;opacity:0.5;"/>
   </g>
   <g id="patch_84">
    <path clip-path="url(#pfb17eaf319)" d="M 155.127343 221.215748 
L 158.164531 221.215748 
L 158.164531 119.303487 
L 155.127343 119.303487 
z
" style="fill:#ff7f0e;opacity:0.5;"/>
   </g>
   <g id="patch_85">
    <path clip-path="url(#pfb17eaf319)" d="M 158.164531 221.215748 
L 161.20172 221.215748 
L 161.20172 134.744739 
L 158.164531 134.744739 
z
" style="fill:#ff7f0e;opacity:0.5;"/>
   </g>
   <g id="patch_86">
    <path clip-path="url(#pfb17eaf319)" d="M 161.20172 221.215748 
L 164.238909 221.215748 
L 164.238909 134.744739 
L 161.20172 134.744739 
z
" style="fill:#ff7f0e;opacity:0.5;"/>
   </g>
   <g id="patch_87">
    <path clip-path="url(#pfb17eaf319)" d="M 164.238909 221.215748 
L 167.276098 221.215748 
L 167.276098 177.980243 
L 164.238909 177.980243 
z
" style="fill:#ff7f0e;opacity:0.5;"/>
   </g>
   <g id="patch_88">
    <path clip-path="url(#pfb17eaf319)" d="M 167.276098 221.215748 
L 170.313286 221.215748 
L 170.313286 177.980243 
L 167.276098 177.980243 
z
" style="fill:#ff7f0e;opacity:0.5;"/>
   </g>
   <g id="patch_89">
    <path clip-path="url(#pfb17eaf319)" d="M 170.313286 221.215748 
L 173.350475 221.215748 
L 173.350475 165.627242 
L 170.313286 165.627242 
z
" style="fill:#ff7f0e;opacity:0.5;"/>
   </g>
   <g id="patch_90">
    <path clip-path="url(#pfb17eaf319)" d="M 173.350475 221.215748 
L 176.387664 221.215748 
L 176.387664 193.421495 
L 173.350475 193.421495 
z
" style="fill:#ff7f0e;opacity:0.5;"/>
   </g>
   <g id="patch_91">
    <path clip-path="url(#pfb17eaf319)" d="M 176.387664 221.215748 
L 179.424853 221.215748 
L 179.424853 199.597996 
L 176.387664 199.597996 
z
" style="fill:#ff7f0e;opacity:0.5;"/>
   </g>
   <g id="patch_92">
    <path clip-path="url(#pfb17eaf319)" d="M 179.424853 221.215748 
L 182.462041 221.215748 
L 182.462041 215.039247 
L 179.424853 215.039247 
z
" style="fill:#ff7f0e;opacity:0.5;"/>
   </g>
   <g id="patch_93">
    <path clip-path="url(#pfb17eaf319)" d="M 182.462041 221.215748 
L 185.49923 221.215748 
L 185.49923 205.774496 
L 182.462041 205.774496 
z
" style="fill:#ff7f0e;opacity:0.5;"/>
   </g>
   <g id="patch_94">
    <path clip-path="url(#pfb17eaf319)" d="M 185.49923 221.215748 
L 188.536419 221.215748 
L 188.536419 218.127498 
L 185.49923 218.127498 
z
" style="fill:#ff7f0e;opacity:0.5;"/>
   </g>
   <g id="patch_95">
    <path clip-path="url(#pfb17eaf319)" d="M 188.536419 221.215748 
L 191.573607 221.215748 
L 191.573607 211.950997 
L 188.536419 211.950997 
z
" style="fill:#ff7f0e;opacity:0.5;"/>
   </g>
   <g id="patch_96">
    <path clip-path="url(#pfb17eaf319)" d="M 191.573607 221.215748 
L 194.610796 221.215748 
L 194.610796 218.127498 
L 191.573607 218.127498 
z
" style="fill:#ff7f0e;opacity:0.5;"/>
   </g>
   <g id="patch_97">
    <path clip-path="url(#pfb17eaf319)" d="M 194.610796 221.215748 
L 197.647985 221.215748 
L 197.647985 221.215748 
L 194.610796 221.215748 
z
" style="fill:#ff7f0e;opacity:0.5;"/>
   </g>
   <g id="patch_98">
    <path clip-path="url(#pfb17eaf319)" d="M 197.647985 221.215748 
L 200.685174 221.215748 
L 200.685174 221.215748 
L 197.647985 221.215748 
z
" style="fill:#ff7f0e;opacity:0.5;"/>
   </g>
   <g id="patch_99">
    <path clip-path="url(#pfb17eaf319)" d="M 200.685174 221.215748 
L 203.722362 221.215748 
L 203.722362 221.215748 
L 200.685174 221.215748 
z
" style="fill:#ff7f0e;opacity:0.5;"/>
   </g>
   <g id="patch_100">
    <path clip-path="url(#pfb17eaf319)" d="M 203.722362 221.215748 
L 206.759551 221.215748 
L 206.759551 218.127498 
L 203.722362 218.127498 
z
" style="fill:#ff7f0e;opacity:0.5;"/>
   </g>
   <g id="patch_101">
    <path clip-path="url(#pfb17eaf319)" d="M 206.759551 221.215748 
L 209.79674 221.215748 
L 209.79674 221.215748 
L 206.759551 221.215748 
z
" style="fill:#ff7f0e;opacity:0.5;"/>
   </g>
   <g id="patch_102">
    <path clip-path="url(#pfb17eaf319)" d="M 209.79674 221.215748 
L 212.833929 221.215748 
L 212.833929 218.127498 
L 209.79674 218.127498 
z
" style="fill:#ff7f0e;opacity:0.5;"/>
   </g>
   <g id="matplotlib.axis_1">
    <g id="xtick_1">
     <g id="line2d_1">
      <defs>
       <path d="M 0 0 
L 0 3.5 
" id="m07807ae221" style="stroke:#000000;stroke-width:0.8;"/>
      </defs>
      <g>
       <use style="stroke:#000000;stroke-width:0.8;" x="52.495547" xlink:href="#m07807ae221" y="221.215748"/>
      </g>
     </g>
     <g id="text_1">
      <!-- 10000 -->
      <g transform="translate(36.589297 235.814186)scale(0.1 -0.1)">
       <defs>
        <path d="M 12.40625 8.296875 
L 28.515625 8.296875 
L 28.515625 63.921875 
L 10.984375 60.40625 
L 10.984375 69.390625 
L 28.421875 72.90625 
L 38.28125 72.90625 
L 38.28125 8.296875 
L 54.390625 8.296875 
L 54.390625 0 
L 12.40625 0 
z
" id="DejaVuSans-49"/>
        <path d="M 31.78125 66.40625 
Q 24.171875 66.40625 20.328125 58.90625 
Q 16.5 51.421875 16.5 36.375 
Q 16.5 21.390625 20.328125 13.890625 
Q 24.171875 6.390625 31.78125 6.390625 
Q 39.453125 6.390625 43.28125 13.890625 
Q 47.125 21.390625 47.125 36.375 
Q 47.125 51.421875 43.28125 58.90625 
Q 39.453125 66.40625 31.78125 66.40625 
z
M 31.78125 74.21875 
Q 44.046875 74.21875 50.515625 64.515625 
Q 56.984375 54.828125 56.984375 36.375 
Q 56.984375 17.96875 50.515625 8.265625 
Q 44.046875 -1.421875 31.78125 -1.421875 
Q 19.53125 -1.421875 13.0625 8.265625 
Q 6.59375 17.96875 6.59375 36.375 
Q 6.59375 54.828125 13.0625 64.515625 
Q 19.53125 74.21875 31.78125 74.21875 
z
" id="DejaVuSans-48"/>
       </defs>
       <use xlink:href="#DejaVuSans-49"/>
       <use x="63.623047" xlink:href="#DejaVuSans-48"/>
       <use x="127.246094" xlink:href="#DejaVuSans-48"/>
       <use x="190.869141" xlink:href="#DejaVuSans-48"/>
       <use x="254.492188" xlink:href="#DejaVuSans-48"/>
      </g>
     </g>
    </g>
    <g id="xtick_2">
     <g id="line2d_2">
      <g>
       <use style="stroke:#000000;stroke-width:0.8;" x="111.620403" xlink:href="#m07807ae221" y="221.215748"/>
      </g>
     </g>
     <g id="text_2">
      <!-- 15000 -->
      <g transform="translate(95.714153 235.814186)scale(0.1 -0.1)">
       <defs>
        <path d="M 10.796875 72.90625 
L 49.515625 72.90625 
L 49.515625 64.59375 
L 19.828125 64.59375 
L 19.828125 46.734375 
Q 21.96875 47.46875 24.109375 47.828125 
Q 26.265625 48.1875 28.421875 48.1875 
Q 40.625 48.1875 47.75 41.5 
Q 54.890625 34.8125 54.890625 23.390625 
Q 54.890625 11.625 47.5625 5.09375 
Q 40.234375 -1.421875 26.90625 -1.421875 
Q 22.3125 -1.421875 17.546875 -0.640625 
Q 12.796875 0.140625 7.71875 1.703125 
L 7.71875 11.625 
Q 12.109375 9.234375 16.796875 8.0625 
Q 21.484375 6.890625 26.703125 6.890625 
Q 35.15625 6.890625 40.078125 11.328125 
Q 45.015625 15.765625 45.015625 23.390625 
Q 45.015625 31 40.078125 35.4375 
Q 35.15625 39.890625 26.703125 39.890625 
Q 22.75 39.890625 18.8125 39.015625 
Q 14.890625 38.140625 10.796875 36.28125 
z
" id="DejaVuSans-53"/>
       </defs>
       <use xlink:href="#DejaVuSans-49"/>
       <use x="63.623047" xlink:href="#DejaVuSans-53"/>
       <use x="127.246094" xlink:href="#DejaVuSans-48"/>
       <use x="190.869141" xlink:href="#DejaVuSans-48"/>
       <use x="254.492188" xlink:href="#DejaVuSans-48"/>
      </g>
     </g>
    </g>
    <g id="xtick_3">
     <g id="line2d_3">
      <g>
       <use style="stroke:#000000;stroke-width:0.8;" x="170.745258" xlink:href="#m07807ae221" y="221.215748"/>
      </g>
     </g>
     <g id="text_3">
      <!-- 20000 -->
      <g transform="translate(154.839008 235.814186)scale(0.1 -0.1)">
       <defs>
        <path d="M 19.1875 8.296875 
L 53.609375 8.296875 
L 53.609375 0 
L 7.328125 0 
L 7.328125 8.296875 
Q 12.9375 14.109375 22.625 23.890625 
Q 32.328125 33.6875 34.8125 36.53125 
Q 39.546875 41.84375 41.421875 45.53125 
Q 43.3125 49.21875 43.3125 52.78125 
Q 43.3125 58.59375 39.234375 62.25 
Q 35.15625 65.921875 28.609375 65.921875 
Q 23.96875 65.921875 18.8125 64.3125 
Q 13.671875 62.703125 7.8125 59.421875 
L 7.8125 69.390625 
Q 13.765625 71.78125 18.9375 73 
Q 24.125 74.21875 28.421875 74.21875 
Q 39.75 74.21875 46.484375 68.546875 
Q 53.21875 62.890625 53.21875 53.421875 
Q 53.21875 48.921875 51.53125 44.890625 
Q 49.859375 40.875 45.40625 35.40625 
Q 44.1875 33.984375 37.640625 27.21875 
Q 31.109375 20.453125 19.1875 8.296875 
z
" id="DejaVuSans-50"/>
       </defs>
       <use xlink:href="#DejaVuSans-50"/>
       <use x="63.623047" xlink:href="#DejaVuSans-48"/>
       <use x="127.246094" xlink:href="#DejaVuSans-48"/>
       <use x="190.869141" xlink:href="#DejaVuSans-48"/>
       <use x="254.492188" xlink:href="#DejaVuSans-48"/>
      </g>
     </g>
    </g>
    <g id="xtick_4">
     <g id="line2d_4">
      <g>
       <use style="stroke:#000000;stroke-width:0.8;" x="229.870113" xlink:href="#m07807ae221" y="221.215748"/>
      </g>
     </g>
     <g id="text_4">
      <!-- 25000 -->
      <g transform="translate(213.963863 235.814186)scale(0.1 -0.1)">
       <use xlink:href="#DejaVuSans-50"/>
       <use x="63.623047" xlink:href="#DejaVuSans-53"/>
       <use x="127.246094" xlink:href="#DejaVuSans-48"/>
       <use x="190.869141" xlink:href="#DejaVuSans-48"/>
       <use x="254.492188" xlink:href="#DejaVuSans-48"/>
      </g>
     </g>
    </g>
    <g id="xtick_5">
     <g id="line2d_5">
      <g>
       <use style="stroke:#000000;stroke-width:0.8;" x="288.994969" xlink:href="#m07807ae221" y="221.215748"/>
      </g>
     </g>
     <g id="text_5">
      <!-- 30000 -->
      <g transform="translate(273.088719 235.814186)scale(0.1 -0.1)">
       <defs>
        <path d="M 40.578125 39.3125 
Q 47.65625 37.796875 51.625 33 
Q 55.609375 28.21875 55.609375 21.1875 
Q 55.609375 10.40625 48.1875 4.484375 
Q 40.765625 -1.421875 27.09375 -1.421875 
Q 22.515625 -1.421875 17.65625 -0.515625 
Q 12.796875 0.390625 7.625 2.203125 
L 7.625 11.71875 
Q 11.71875 9.328125 16.59375 8.109375 
Q 21.484375 6.890625 26.8125 6.890625 
Q 36.078125 6.890625 40.9375 10.546875 
Q 45.796875 14.203125 45.796875 21.1875 
Q 45.796875 27.640625 41.28125 31.265625 
Q 36.765625 34.90625 28.71875 34.90625 
L 20.21875 34.90625 
L 20.21875 43.015625 
L 29.109375 43.015625 
Q 36.375 43.015625 40.234375 45.921875 
Q 44.09375 48.828125 44.09375 54.296875 
Q 44.09375 59.90625 40.109375 62.90625 
Q 36.140625 65.921875 28.71875 65.921875 
Q 24.65625 65.921875 20.015625 65.03125 
Q 15.375 64.15625 9.8125 62.3125 
L 9.8125 71.09375 
Q 15.4375 72.65625 20.34375 73.4375 
Q 25.25 74.21875 29.59375 74.21875 
Q 40.828125 74.21875 47.359375 69.109375 
Q 53.90625 64.015625 53.90625 55.328125 
Q 53.90625 49.265625 50.4375 45.09375 
Q 46.96875 40.921875 40.578125 39.3125 
z
" id="DejaVuSans-51"/>
       </defs>
       <use xlink:href="#DejaVuSans-51"/>
       <use x="63.623047" xlink:href="#DejaVuSans-48"/>
       <use x="127.246094" xlink:href="#DejaVuSans-48"/>
       <use x="190.869141" xlink:href="#DejaVuSans-48"/>
       <use x="254.492188" xlink:href="#DejaVuSans-48"/>
      </g>
     </g>
    </g>
    <g id="xtick_6">
     <g id="line2d_6">
      <g>
       <use style="stroke:#000000;stroke-width:0.8;" x="348.119824" xlink:href="#m07807ae221" y="221.215748"/>
      </g>
     </g>
     <g id="text_6">
      <!-- 35000 -->
      <g transform="translate(332.213574 235.814186)scale(0.1 -0.1)">
       <use xlink:href="#DejaVuSans-51"/>
       <use x="63.623047" xlink:href="#DejaVuSans-53"/>
       <use x="127.246094" xlink:href="#DejaVuSans-48"/>
       <use x="190.869141" xlink:href="#DejaVuSans-48"/>
       <use x="254.492188" xlink:href="#DejaVuSans-48"/>
      </g>
     </g>
    </g>
    <g id="xtick_7">
     <g id="line2d_7">
      <g>
       <use style="stroke:#000000;stroke-width:0.8;" x="407.24468" xlink:href="#m07807ae221" y="221.215748"/>
      </g>
     </g>
     <g id="text_7">
      <!-- 40000 -->
      <g transform="translate(391.33843 235.814186)scale(0.1 -0.1)">
       <defs>
        <path d="M 37.796875 64.3125 
L 12.890625 25.390625 
L 37.796875 25.390625 
z
M 35.203125 72.90625 
L 47.609375 72.90625 
L 47.609375 25.390625 
L 58.015625 25.390625 
L 58.015625 17.1875 
L 47.609375 17.1875 
L 47.609375 0 
L 37.796875 0 
L 37.796875 17.1875 
L 4.890625 17.1875 
L 4.890625 26.703125 
z
" id="DejaVuSans-52"/>
       </defs>
       <use xlink:href="#DejaVuSans-52"/>
       <use x="63.623047" xlink:href="#DejaVuSans-48"/>
       <use x="127.246094" xlink:href="#DejaVuSans-48"/>
       <use x="190.869141" xlink:href="#DejaVuSans-48"/>
       <use x="254.492188" xlink:href="#DejaVuSans-48"/>
      </g>
     </g>
    </g>
    <g id="xtick_8">
     <g id="line2d_8">
      <g>
       <use style="stroke:#000000;stroke-width:0.8;" x="466.369535" xlink:href="#m07807ae221" y="221.215748"/>
      </g>
     </g>
     <g id="text_8">
      <!-- 45000 -->
      <g transform="translate(450.463285 235.814186)scale(0.1 -0.1)">
       <use xlink:href="#DejaVuSans-52"/>
       <use x="63.623047" xlink:href="#DejaVuSans-53"/>
       <use x="127.246094" xlink:href="#DejaVuSans-48"/>
       <use x="190.869141" xlink:href="#DejaVuSans-48"/>
       <use x="254.492188" xlink:href="#DejaVuSans-48"/>
      </g>
     </g>
    </g>
    <g id="text_9">
     <!-- $Z_0$ -->
     <g transform="translate(254.888164 249.492311)scale(0.1 -0.1)">
      <defs>
       <path d="M 13.09375 72.90625 
L 70.3125 72.90625 
L 68.890625 65.375 
L 12.40625 8.296875 
L 58.890625 8.296875 
L 57.328125 0 
L -2.203125 0 
L -0.78125 7.515625 
L 55.71875 64.59375 
L 11.53125 64.59375 
z
" id="DejaVuSans-Oblique-90"/>
      </defs>
      <use transform="translate(0 0.09375)" xlink:href="#DejaVuSans-Oblique-90"/>
      <use transform="translate(68.505859 -16.3125)scale(0.7)" xlink:href="#DejaVuSans-48"/>
     </g>
    </g>
   </g>
   <g id="matplotlib.axis_2">
    <g id="ytick_1">
     <g id="line2d_9">
      <defs>
       <path d="M 0 0 
L -3.5 0 
" id="m115d96f6d7" style="stroke:#000000;stroke-width:0.8;"/>
      </defs>
      <g>
       <use style="stroke:#000000;stroke-width:0.8;" x="41.003125" xlink:href="#m115d96f6d7" y="221.215748"/>
      </g>
     </g>
     <g id="text_10">
      <!-- 0 -->
      <g transform="translate(27.640625 225.014967)scale(0.1 -0.1)">
       <use xlink:href="#DejaVuSans-48"/>
      </g>
     </g>
    </g>
    <g id="ytick_2">
     <g id="line2d_10">
      <g>
       <use style="stroke:#000000;stroke-width:0.8;" x="41.003125" xlink:href="#m115d96f6d7" y="190.333245"/>
      </g>
     </g>
     <g id="text_11">
      <!-- 10 -->
      <g transform="translate(21.278125 194.132463)scale(0.1 -0.1)">
       <use xlink:href="#DejaVuSans-49"/>
       <use x="63.623047" xlink:href="#DejaVuSans-48"/>
      </g>
     </g>
    </g>
    <g id="ytick_3">
     <g id="line2d_11">
      <g>
       <use style="stroke:#000000;stroke-width:0.8;" x="41.003125" xlink:href="#m115d96f6d7" y="159.450741"/>
      </g>
     </g>
     <g id="text_12">
      <!-- 20 -->
      <g transform="translate(21.278125 163.24996)scale(0.1 -0.1)">
       <use xlink:href="#DejaVuSans-50"/>
       <use x="63.623047" xlink:href="#DejaVuSans-48"/>
      </g>
     </g>
    </g>
    <g id="ytick_4">
     <g id="line2d_12">
      <g>
       <use style="stroke:#000000;stroke-width:0.8;" x="41.003125" xlink:href="#m115d96f6d7" y="128.568238"/>
      </g>
     </g>
     <g id="text_13">
      <!-- 30 -->
      <g transform="translate(21.278125 132.367457)scale(0.1 -0.1)">
       <use xlink:href="#DejaVuSans-51"/>
       <use x="63.623047" xlink:href="#DejaVuSans-48"/>
      </g>
     </g>
    </g>
    <g id="ytick_5">
     <g id="line2d_13">
      <g>
       <use style="stroke:#000000;stroke-width:0.8;" x="41.003125" xlink:href="#m115d96f6d7" y="97.685735"/>
      </g>
     </g>
     <g id="text_14">
      <!-- 40 -->
      <g transform="translate(21.278125 101.484953)scale(0.1 -0.1)">
       <use xlink:href="#DejaVuSans-52"/>
       <use x="63.623047" xlink:href="#DejaVuSans-48"/>
      </g>
     </g>
    </g>
    <g id="ytick_6">
     <g id="line2d_14">
      <g>
       <use style="stroke:#000000;stroke-width:0.8;" x="41.003125" xlink:href="#m115d96f6d7" y="66.803231"/>
      </g>
     </g>
     <g id="text_15">
      <!-- 50 -->
      <g transform="translate(21.278125 70.60245)scale(0.1 -0.1)">
       <use xlink:href="#DejaVuSans-53"/>
       <use x="63.623047" xlink:href="#DejaVuSans-48"/>
      </g>
     </g>
    </g>
    <g id="ytick_7">
     <g id="line2d_15">
      <g>
       <use style="stroke:#000000;stroke-width:0.8;" x="41.003125" xlink:href="#m115d96f6d7" y="35.920728"/>
      </g>
     </g>
     <g id="text_16">
      <!-- 60 -->
      <g transform="translate(21.278125 39.719947)scale(0.1 -0.1)">
       <defs>
        <path d="M 33.015625 40.375 
Q 26.375 40.375 22.484375 35.828125 
Q 18.609375 31.296875 18.609375 23.390625 
Q 18.609375 15.53125 22.484375 10.953125 
Q 26.375 6.390625 33.015625 6.390625 
Q 39.65625 6.390625 43.53125 10.953125 
Q 47.40625 15.53125 47.40625 23.390625 
Q 47.40625 31.296875 43.53125 35.828125 
Q 39.65625 40.375 33.015625 40.375 
z
M 52.59375 71.296875 
L 52.59375 62.3125 
Q 48.875 64.0625 45.09375 64.984375 
Q 41.3125 65.921875 37.59375 65.921875 
Q 27.828125 65.921875 22.671875 59.328125 
Q 17.53125 52.734375 16.796875 39.40625 
Q 19.671875 43.65625 24.015625 45.921875 
Q 28.375 48.1875 33.59375 48.1875 
Q 44.578125 48.1875 50.953125 41.515625 
Q 57.328125 34.859375 57.328125 23.390625 
Q 57.328125 12.15625 50.6875 5.359375 
Q 44.046875 -1.421875 33.015625 -1.421875 
Q 20.359375 -1.421875 13.671875 8.265625 
Q 6.984375 17.96875 6.984375 36.375 
Q 6.984375 53.65625 15.1875 63.9375 
Q 23.390625 74.21875 37.203125 74.21875 
Q 40.921875 74.21875 44.703125 73.484375 
Q 48.484375 72.75 52.59375 71.296875 
z
" id="DejaVuSans-54"/>
       </defs>
       <use xlink:href="#DejaVuSans-54"/>
       <use x="63.623047" xlink:href="#DejaVuSans-48"/>
      </g>
     </g>
    </g>
    <g id="text_17">
     <!-- Frequência -->
     <g transform="translate(15.198438 141.531312)rotate(-90)scale(0.1 -0.1)">
      <defs>
       <path d="M 9.8125 72.90625 
L 51.703125 72.90625 
L 51.703125 64.59375 
L 19.671875 64.59375 
L 19.671875 43.109375 
L 48.578125 43.109375 
L 48.578125 34.8125 
L 19.671875 34.8125 
L 19.671875 0 
L 9.8125 0 
z
" id="DejaVuSans-70"/>
       <path d="M 41.109375 46.296875 
Q 39.59375 47.171875 37.8125 47.578125 
Q 36.03125 48 33.890625 48 
Q 26.265625 48 22.1875 43.046875 
Q 18.109375 38.09375 18.109375 28.8125 
L 18.109375 0 
L 9.078125 0 
L 9.078125 54.6875 
L 18.109375 54.6875 
L 18.109375 46.1875 
Q 20.953125 51.171875 25.484375 53.578125 
Q 30.03125 56 36.53125 56 
Q 37.453125 56 38.578125 55.875 
Q 39.703125 55.765625 41.0625 55.515625 
z
" id="DejaVuSans-114"/>
       <path d="M 56.203125 29.59375 
L 56.203125 25.203125 
L 14.890625 25.203125 
Q 15.484375 15.921875 20.484375 11.0625 
Q 25.484375 6.203125 34.421875 6.203125 
Q 39.59375 6.203125 44.453125 7.46875 
Q 49.3125 8.734375 54.109375 11.28125 
L 54.109375 2.78125 
Q 49.265625 0.734375 44.1875 -0.34375 
Q 39.109375 -1.421875 33.890625 -1.421875 
Q 20.796875 -1.421875 13.15625 6.1875 
Q 5.515625 13.8125 5.515625 26.8125 
Q 5.515625 40.234375 12.765625 48.109375 
Q 20.015625 56 32.328125 56 
Q 43.359375 56 49.78125 48.890625 
Q 56.203125 41.796875 56.203125 29.59375 
z
M 47.21875 32.234375 
Q 47.125 39.59375 43.09375 43.984375 
Q 39.0625 48.390625 32.421875 48.390625 
Q 24.90625 48.390625 20.390625 44.140625 
Q 15.875 39.890625 15.1875 32.171875 
z
" id="DejaVuSans-101"/>
       <path d="M 14.796875 27.296875 
Q 14.796875 17.390625 18.875 11.75 
Q 22.953125 6.109375 30.078125 6.109375 
Q 37.203125 6.109375 41.296875 11.75 
Q 45.40625 17.390625 45.40625 27.296875 
Q 45.40625 37.203125 41.296875 42.84375 
Q 37.203125 48.484375 30.078125 48.484375 
Q 22.953125 48.484375 18.875 42.84375 
Q 14.796875 37.203125 14.796875 27.296875 
z
M 45.40625 8.203125 
Q 42.578125 3.328125 38.25 0.953125 
Q 33.9375 -1.421875 27.875 -1.421875 
Q 17.96875 -1.421875 11.734375 6.484375 
Q 5.515625 14.40625 5.515625 27.296875 
Q 5.515625 40.1875 11.734375 48.09375 
Q 17.96875 56 27.875 56 
Q 33.9375 56 38.25 53.625 
Q 42.578125 51.265625 45.40625 46.390625 
L 45.40625 54.6875 
L 54.390625 54.6875 
L 54.390625 -20.796875 
L 45.40625 -20.796875 
z
" id="DejaVuSans-113"/>
       <path d="M 8.5 21.578125 
L 8.5 54.6875 
L 17.484375 54.6875 
L 17.484375 21.921875 
Q 17.484375 14.15625 20.5 10.265625 
Q 23.53125 6.390625 29.59375 6.390625 
Q 36.859375 6.390625 41.078125 11.03125 
Q 45.3125 15.671875 45.3125 23.6875 
L 45.3125 54.6875 
L 54.296875 54.6875 
L 54.296875 0 
L 45.3125 0 
L 45.3125 8.40625 
Q 42.046875 3.421875 37.71875 1 
Q 33.40625 -1.421875 27.6875 -1.421875 
Q 18.265625 -1.421875 13.375 4.4375 
Q 8.5 10.296875 8.5 21.578125 
z
M 31.109375 56 
z
" id="DejaVuSans-117"/>
       <path d="M 56.203125 29.59375 
L 56.203125 25.203125 
L 14.890625 25.203125 
Q 15.484375 15.921875 20.484375 11.0625 
Q 25.484375 6.203125 34.421875 6.203125 
Q 39.59375 6.203125 44.453125 7.46875 
Q 49.3125 8.734375 54.109375 11.28125 
L 54.109375 2.78125 
Q 49.265625 0.734375 44.1875 -0.34375 
Q 39.109375 -1.421875 33.890625 -1.421875 
Q 20.796875 -1.421875 13.15625 6.1875 
Q 5.515625 13.8125 5.515625 26.8125 
Q 5.515625 40.234375 12.765625 48.109375 
Q 20.015625 56 32.328125 56 
Q 43.359375 56 49.78125 48.890625 
Q 56.203125 41.796875 56.203125 29.59375 
z
M 47.21875 32.234375 
Q 47.125 39.59375 43.09375 43.984375 
Q 39.0625 48.390625 32.421875 48.390625 
Q 24.90625 48.390625 20.390625 44.140625 
Q 15.875 39.890625 15.1875 32.171875 
z
M 28.171875 79.984375 
L 35.40625 79.984375 
L 47.359375 61.625 
L 40.578125 61.625 
L 31.78125 73.578125 
L 23 61.625 
L 16.21875 61.625 
z
" id="DejaVuSans-234"/>
       <path d="M 54.890625 33.015625 
L 54.890625 0 
L 45.90625 0 
L 45.90625 32.71875 
Q 45.90625 40.484375 42.875 44.328125 
Q 39.84375 48.1875 33.796875 48.1875 
Q 26.515625 48.1875 22.3125 43.546875 
Q 18.109375 38.921875 18.109375 30.90625 
L 18.109375 0 
L 9.078125 0 
L 9.078125 54.6875 
L 18.109375 54.6875 
L 18.109375 46.1875 
Q 21.34375 51.125 25.703125 53.5625 
Q 30.078125 56 35.796875 56 
Q 45.21875 56 50.046875 50.171875 
Q 54.890625 44.34375 54.890625 33.015625 
z
" id="DejaVuSans-110"/>
       <path d="M 48.78125 52.59375 
L 48.78125 44.1875 
Q 44.96875 46.296875 41.140625 47.34375 
Q 37.3125 48.390625 33.40625 48.390625 
Q 24.65625 48.390625 19.8125 42.84375 
Q 14.984375 37.3125 14.984375 27.296875 
Q 14.984375 17.28125 19.8125 11.734375 
Q 24.65625 6.203125 33.40625 6.203125 
Q 37.3125 6.203125 41.140625 7.25 
Q 44.96875 8.296875 48.78125 10.40625 
L 48.78125 2.09375 
Q 45.015625 0.34375 40.984375 -0.53125 
Q 36.96875 -1.421875 32.421875 -1.421875 
Q 20.0625 -1.421875 12.78125 6.34375 
Q 5.515625 14.109375 5.515625 27.296875 
Q 5.515625 40.671875 12.859375 48.328125 
Q 20.21875 56 33.015625 56 
Q 37.15625 56 41.109375 55.140625 
Q 45.0625 54.296875 48.78125 52.59375 
z
" id="DejaVuSans-99"/>
       <path d="M 9.421875 54.6875 
L 18.40625 54.6875 
L 18.40625 0 
L 9.421875 0 
z
M 9.421875 75.984375 
L 18.40625 75.984375 
L 18.40625 64.59375 
L 9.421875 64.59375 
z
" id="DejaVuSans-105"/>
       <path d="M 34.28125 27.484375 
Q 23.390625 27.484375 19.1875 25 
Q 14.984375 22.515625 14.984375 16.5 
Q 14.984375 11.71875 18.140625 8.90625 
Q 21.296875 6.109375 26.703125 6.109375 
Q 34.1875 6.109375 38.703125 11.40625 
Q 43.21875 16.703125 43.21875 25.484375 
L 43.21875 27.484375 
z
M 52.203125 31.203125 
L 52.203125 0 
L 43.21875 0 
L 43.21875 8.296875 
Q 40.140625 3.328125 35.546875 0.953125 
Q 30.953125 -1.421875 24.3125 -1.421875 
Q 15.921875 -1.421875 10.953125 3.296875 
Q 6 8.015625 6 15.921875 
Q 6 25.140625 12.171875 29.828125 
Q 18.359375 34.515625 30.609375 34.515625 
L 43.21875 34.515625 
L 43.21875 35.40625 
Q 43.21875 41.609375 39.140625 45 
Q 35.0625 48.390625 27.6875 48.390625 
Q 23 48.390625 18.546875 47.265625 
Q 14.109375 46.140625 10.015625 43.890625 
L 10.015625 52.203125 
Q 14.9375 54.109375 19.578125 55.046875 
Q 24.21875 56 28.609375 56 
Q 40.484375 56 46.34375 49.84375 
Q 52.203125 43.703125 52.203125 31.203125 
z
" id="DejaVuSans-97"/>
      </defs>
      <use xlink:href="#DejaVuSans-70"/>
      <use x="50.269531" xlink:href="#DejaVuSans-114"/>
      <use x="89.132812" xlink:href="#DejaVuSans-101"/>
      <use x="150.65625" xlink:href="#DejaVuSans-113"/>
      <use x="214.132812" xlink:href="#DejaVuSans-117"/>
      <use x="277.511719" xlink:href="#DejaVuSans-234"/>
      <use x="339.035156" xlink:href="#DejaVuSans-110"/>
      <use x="402.414062" xlink:href="#DejaVuSans-99"/>
      <use x="457.394531" xlink:href="#DejaVuSans-105"/>
      <use x="485.177734" xlink:href="#DejaVuSans-97"/>
     </g>
    </g>
   </g>
   <g id="patch_103">
    <path d="M 41.003125 221.215748 
L 41.003125 7.2 
" style="fill:none;stroke:#000000;stroke-linecap:square;stroke-linejoin:miter;stroke-width:0.8;"/>
   </g>
   <g id="patch_104">
    <path d="M 480.373204 221.215748 
L 480.373204 7.2 
" style="fill:none;stroke:#000000;stroke-linecap:square;stroke-linejoin:miter;stroke-width:0.8;"/>
   </g>
   <g id="patch_105">
    <path d="M 41.003125 221.215748 
L 480.373204 221.215748 
" style="fill:none;stroke:#000000;stroke-linecap:square;stroke-linejoin:miter;stroke-width:0.8;"/>
   </g>
   <g id="patch_106">
    <path d="M 41.003125 7.2 
L 480.373204 7.2 
" style="fill:none;stroke:#000000;stroke-linecap:square;stroke-linejoin:miter;stroke-width:0.8;"/>
   </g>
   <g id="legend_1">
    <g id="patch_107">
     <path d="M 429.673204 44.55625 
L 473.373204 44.55625 
Q 475.373204 44.55625 475.373204 42.55625 
L 475.373204 14.2 
Q 475.373204 12.2 473.373204 12.2 
L 429.673204 12.2 
Q 427.673204 12.2 427.673204 14.2 
L 427.673204 42.55625 
Q 427.673204 44.55625 429.673204 44.55625 
z
" style="fill:#ffffff;opacity:0.8;stroke:#cccccc;stroke-linejoin:miter;"/>
    </g>
    <g id="patch_108">
     <path d="M 431.673204 23.798438 
L 451.673204 23.798438 
L 451.673204 16.798438 
L 431.673204 16.798438 
z
" style="fill:#1f77b4;opacity:0.5;"/>
    </g>
    <g id="text_18">
     <!-- $R_0$ -->
     <g transform="translate(459.673204 23.798438)scale(0.1 -0.1)">
      <defs>
       <path d="M 25.203125 64.796875 
L 20.21875 38.921875 
L 32.90625 38.921875 
Q 40.375 38.921875 44.984375 43.046875 
Q 49.609375 47.171875 49.609375 53.8125 
Q 49.609375 59.125 46.5 61.953125 
Q 43.40625 64.796875 37.59375 64.796875 
z
M 43.3125 35.015625 
Q 46.4375 34.28125 48.515625 31.390625 
Q 50.59375 28.515625 53.328125 19.921875 
L 59.515625 0 
L 49.125 0 
L 43.40625 18.703125 
Q 41.21875 25.921875 38.328125 28.359375 
Q 35.453125 30.8125 29.5 30.8125 
L 18.609375 30.8125 
L 12.59375 0 
L 2.6875 0 
L 16.890625 72.90625 
L 39.109375 72.90625 
Q 49.21875 72.90625 54.609375 68.328125 
Q 60.015625 63.765625 60.015625 55.171875 
Q 60.015625 47.5625 55.421875 41.984375 
Q 50.828125 36.421875 43.3125 35.015625 
z
" id="DejaVuSans-Oblique-82"/>
      </defs>
      <use transform="translate(0 0.09375)" xlink:href="#DejaVuSans-Oblique-82"/>
      <use transform="translate(69.482422 -16.3125)scale(0.7)" xlink:href="#DejaVuSans-48"/>
     </g>
    </g>
    <g id="patch_109">
     <path d="M 431.673204 38.476562 
L 451.673204 38.476562 
L 451.673204 31.476562 
L 431.673204 31.476562 
z
" style="fill:#ff7f0e;opacity:0.5;"/>
    </g>
    <g id="text_19">
     <!-- $S_0$ -->
     <g transform="translate(459.673204 38.476562)scale(0.1 -0.1)">
      <defs>
       <path d="M 60.296875 70.515625 
L 58.40625 60.890625 
Q 53.46875 63.53125 48.609375 64.875 
Q 43.75 66.21875 39.203125 66.21875 
Q 30.375 66.21875 25.140625 62.359375 
Q 19.921875 58.5 19.921875 52.09375 
Q 19.921875 48.578125 21.84375 46.703125 
Q 23.78125 44.828125 31.78125 42.671875 
L 37.703125 41.21875 
Q 47.703125 38.625 51.609375 34.640625 
Q 55.515625 30.671875 55.515625 23.484375 
Q 55.515625 12.453125 46.84375 5.515625 
Q 38.1875 -1.421875 24.03125 -1.421875 
Q 18.21875 -1.421875 12.359375 -0.265625 
Q 6.5 0.875 0.59375 3.21875 
L 2.59375 13.375 
Q 8.015625 10.015625 13.453125 8.296875 
Q 18.890625 6.59375 24.3125 6.59375 
Q 33.546875 6.59375 39.109375 10.6875 
Q 44.671875 14.796875 44.671875 21.390625 
Q 44.671875 25.78125 42.453125 28.046875 
Q 40.234375 30.328125 32.90625 32.171875 
L 27 33.6875 
Q 16.890625 36.328125 13.203125 39.765625 
Q 9.515625 43.21875 9.515625 49.421875 
Q 9.515625 60.296875 17.890625 67.25 
Q 26.265625 74.21875 39.703125 74.21875 
Q 44.921875 74.21875 50.046875 73.28125 
Q 55.171875 72.359375 60.296875 70.515625 
z
" id="DejaVuSans-Oblique-83"/>
      </defs>
      <use transform="translate(0 0.78125)" xlink:href="#DejaVuSans-Oblique-83"/>
      <use transform="translate(63.476562 -15.625)scale(0.7)" xlink:href="#DejaVuSans-48"/>
     </g>
    </g>
   </g>
  </g>
 </g>
 <defs>
  <clipPath id="pfb17eaf319">
   <rect height="214.015748" width="439.370079" x="41.003125" y="7.2"/>
  </clipPath>
 </defs>
</svg>
