<?xml version="1.0" encoding="utf-8" standalone="no"?>
<!DOCTYPE svg PUBLIC "-//W3C//DTD SVG 1.1//EN"
  "http://www.w3.org/Graphics/SVG/1.1/DTD/svg11.dtd">
<!-- Created with matplotlib (https://matplotlib.org/) -->
<svg height="490.097121pt" version="1.1" viewBox="0 0 965.822657 490.097121" width="965.822657pt" xmlns="http://www.w3.org/2000/svg" xmlns:xlink="http://www.w3.org/1999/xlink">
 <metadata>
  <rdf:RDF xmlns:cc="http://creativecommons.org/ns#" xmlns:dc="http://purl.org/dc/elements/1.1/" xmlns:rdf="http://www.w3.org/1999/02/22-rdf-syntax-ns#">
   <cc:Work>
    <dc:type rdf:resource="http://purl.org/dc/dcmitype/StillImage"/>
    <dc:date>2021-09-23T15:49:12.299944</dc:date>
    <dc:format>image/svg+xml</dc:format>
    <dc:creator>
     <cc:Agent>
      <dc:title>Matplotlib v3.3.4, https://matplotlib.org/</dc:title>
     </cc:Agent>
    </dc:creator>
   </cc:Work>
  </rdf:RDF>
 </metadata>
 <defs>
  <style type="text/css">*{stroke-linecap:butt;stroke-linejoin:round;}</style>
 </defs>
 <g id="figure_1">
  <g id="patch_1">
   <path d="M -0 490.097121 
L 965.822657 490.097121 
L 965.822657 0 
L -0 0 
z
" style="fill:none;"/>
  </g>
  <g id="axes_1">
   <g id="patch_2">
    <path d="M 79.8825 65.567931 
L 958.622657 65.567931 
L 958.622657 7.2 
L 79.8825 7.2 
z
" style="fill:none;"/>
   </g>
   <g id="matplotlib.axis_1">
    <g id="xtick_1">
     <g id="line2d_1">
      <defs>
       <path d="M 0 0 
L 0 6 
" id="m80e88bb16e" style="stroke:#262626;stroke-width:1.25;"/>
      </defs>
      <g>
       <use style="fill:#262626;stroke:#262626;stroke-width:1.25;" x="192.656639" xlink:href="#m80e88bb16e" y="65.567931"/>
      </g>
     </g>
    </g>
    <g id="xtick_2">
     <g id="line2d_2">
      <g>
       <use style="fill:#262626;stroke:#262626;stroke-width:1.25;" x="309.280977" xlink:href="#m80e88bb16e" y="65.567931"/>
      </g>
     </g>
    </g>
    <g id="xtick_3">
     <g id="line2d_3">
      <g>
       <use style="fill:#262626;stroke:#262626;stroke-width:1.25;" x="425.905314" xlink:href="#m80e88bb16e" y="65.567931"/>
      </g>
     </g>
    </g>
    <g id="xtick_4">
     <g id="line2d_4">
      <g>
       <use style="fill:#262626;stroke:#262626;stroke-width:1.25;" x="542.529652" xlink:href="#m80e88bb16e" y="65.567931"/>
      </g>
     </g>
    </g>
    <g id="xtick_5">
     <g id="line2d_5">
      <g>
       <use style="fill:#262626;stroke:#262626;stroke-width:1.25;" x="659.153989" xlink:href="#m80e88bb16e" y="65.567931"/>
      </g>
     </g>
    </g>
    <g id="xtick_6">
     <g id="line2d_6">
      <g>
       <use style="fill:#262626;stroke:#262626;stroke-width:1.25;" x="775.778327" xlink:href="#m80e88bb16e" y="65.567931"/>
      </g>
     </g>
    </g>
    <g id="xtick_7">
     <g id="line2d_7">
      <g>
       <use style="fill:#262626;stroke:#262626;stroke-width:1.25;" x="892.402664" xlink:href="#m80e88bb16e" y="65.567931"/>
      </g>
     </g>
    </g>
   </g>
   <g id="matplotlib.axis_2"/>
   <g id="patch_3">
    <path clip-path="url(#p66a6bfb4a3)" d="M 463.071458 13.036793 
L 463.071458 59.731138 
L 620.57349 59.731138 
L 620.57349 13.036793 
L 463.071458 13.036793 
z
" style="fill:#e3ad40;stroke:#575757;stroke-linejoin:miter;stroke-width:1.5;"/>
   </g>
   <g id="line2d_8">
    <path clip-path="url(#p66a6bfb4a3)" d="M 463.071458 36.383966 
L 227.582063 36.383966 
" style="fill:none;stroke:#575757;stroke-linecap:round;stroke-width:1.5;"/>
   </g>
   <g id="line2d_9">
    <path clip-path="url(#p66a6bfb4a3)" d="M 620.57349 36.383966 
L 855.191254 36.383966 
" style="fill:none;stroke:#575757;stroke-linecap:round;stroke-width:1.5;"/>
   </g>
   <g id="line2d_10">
    <path clip-path="url(#p66a6bfb4a3)" d="M 227.582063 24.710379 
L 227.582063 48.057552 
" style="fill:none;stroke:#575757;stroke-linecap:round;stroke-width:1.5;"/>
   </g>
   <g id="line2d_11">
    <path clip-path="url(#p66a6bfb4a3)" d="M 855.191254 24.710379 
L 855.191254 48.057552 
" style="fill:none;stroke:#575757;stroke-linecap:round;stroke-width:1.5;"/>
   </g>
   <g id="line2d_12">
    <defs>
     <path d="M 0 3.535534 
L 2.12132 0 
L 0 -3.535534 
L -2.12132 0 
z
" id="ma96d0d6383" style="stroke:#575757;stroke-linejoin:miter;"/>
    </defs>
    <g clip-path="url(#p66a6bfb4a3)">
     <use style="fill:#575757;stroke:#575757;stroke-linejoin:miter;" x="153.233268" xlink:href="#ma96d0d6383" y="36.383966"/>
     <use style="fill:#575757;stroke:#575757;stroke-linejoin:miter;" x="225.405144" xlink:href="#ma96d0d6383" y="36.383966"/>
     <use style="fill:#575757;stroke:#575757;stroke-linejoin:miter;" x="221.634742" xlink:href="#ma96d0d6383" y="36.383966"/>
     <use style="fill:#575757;stroke:#575757;stroke-linejoin:miter;" x="212.612021" xlink:href="#ma96d0d6383" y="36.383966"/>
     <use style="fill:#575757;stroke:#575757;stroke-linejoin:miter;" x="210.176512" xlink:href="#ma96d0d6383" y="36.383966"/>
     <use style="fill:#575757;stroke:#575757;stroke-linejoin:miter;" x="169.4825" xlink:href="#ma96d0d6383" y="36.383966"/>
     <use style="fill:#575757;stroke:#575757;stroke-linejoin:miter;" x="173.456185" xlink:href="#ma96d0d6383" y="36.383966"/>
     <use style="fill:#575757;stroke:#575757;stroke-linejoin:miter;" x="213.432237" xlink:href="#ma96d0d6383" y="36.383966"/>
     <use style="fill:#575757;stroke:#575757;stroke-linejoin:miter;" x="185.979104" xlink:href="#ma96d0d6383" y="36.383966"/>
     <use style="fill:#575757;stroke:#575757;stroke-linejoin:miter;" x="207.239663" xlink:href="#ma96d0d6383" y="36.383966"/>
     <use style="fill:#575757;stroke:#575757;stroke-linejoin:miter;" x="180.73473" xlink:href="#ma96d0d6383" y="36.383966"/>
     <use style="fill:#575757;stroke:#575757;stroke-linejoin:miter;" x="131.7941" xlink:href="#ma96d0d6383" y="36.383966"/>
     <use style="fill:#575757;stroke:#575757;stroke-linejoin:miter;" x="214.082764" xlink:href="#ma96d0d6383" y="36.383966"/>
     <use style="fill:#575757;stroke:#575757;stroke-linejoin:miter;" x="119.825234" xlink:href="#ma96d0d6383" y="36.383966"/>
     <use style="fill:#575757;stroke:#575757;stroke-linejoin:miter;" x="191.936315" xlink:href="#ma96d0d6383" y="36.383966"/>
     <use style="fill:#575757;stroke:#575757;stroke-linejoin:miter;" x="185.156423" xlink:href="#ma96d0d6383" y="36.383966"/>
     <use style="fill:#575757;stroke:#575757;stroke-linejoin:miter;" x="175.692501" xlink:href="#ma96d0d6383" y="36.383966"/>
     <use style="fill:#575757;stroke:#575757;stroke-linejoin:miter;" x="217.401326" xlink:href="#ma96d0d6383" y="36.383966"/>
     <use style="fill:#575757;stroke:#575757;stroke-linejoin:miter;" x="201.08295" xlink:href="#ma96d0d6383" y="36.383966"/>
     <use style="fill:#575757;stroke:#575757;stroke-linejoin:miter;" x="147.3305" xlink:href="#ma96d0d6383" y="36.383966"/>
     <use style="fill:#575757;stroke:#575757;stroke-linejoin:miter;" x="199.355376" xlink:href="#ma96d0d6383" y="36.383966"/>
     <use style="fill:#575757;stroke:#575757;stroke-linejoin:miter;" x="211.082003" xlink:href="#ma96d0d6383" y="36.383966"/>
     <use style="fill:#575757;stroke:#575757;stroke-linejoin:miter;" x="210.630959" xlink:href="#ma96d0d6383" y="36.383966"/>
     <use style="fill:#575757;stroke:#575757;stroke-linejoin:miter;" x="221.728605" xlink:href="#ma96d0d6383" y="36.383966"/>
     <use style="fill:#575757;stroke:#575757;stroke-linejoin:miter;" x="198.325582" xlink:href="#ma96d0d6383" y="36.383966"/>
     <use style="fill:#575757;stroke:#575757;stroke-linejoin:miter;" x="188.289247" xlink:href="#ma96d0d6383" y="36.383966"/>
     <use style="fill:#575757;stroke:#575757;stroke-linejoin:miter;" x="190.553114" xlink:href="#ma96d0d6383" y="36.383966"/>
     <use style="fill:#575757;stroke:#575757;stroke-linejoin:miter;" x="223.842656" xlink:href="#ma96d0d6383" y="36.383966"/>
     <use style="fill:#575757;stroke:#575757;stroke-linejoin:miter;" x="182.408853" xlink:href="#ma96d0d6383" y="36.383966"/>
     <use style="fill:#575757;stroke:#575757;stroke-linejoin:miter;" x="868.747394" xlink:href="#ma96d0d6383" y="36.383966"/>
     <use style="fill:#575757;stroke:#575757;stroke-linejoin:miter;" x="858.055798" xlink:href="#ma96d0d6383" y="36.383966"/>
     <use style="fill:#575757;stroke:#575757;stroke-linejoin:miter;" x="918.679923" xlink:href="#ma96d0d6383" y="36.383966"/>
     <use style="fill:#575757;stroke:#575757;stroke-linejoin:miter;" x="859.26404" xlink:href="#ma96d0d6383" y="36.383966"/>
     <use style="fill:#575757;stroke:#575757;stroke-linejoin:miter;" x="864.182071" xlink:href="#ma96d0d6383" y="36.383966"/>
     <use style="fill:#575757;stroke:#575757;stroke-linejoin:miter;" x="905.248001" xlink:href="#ma96d0d6383" y="36.383966"/>
     <use style="fill:#575757;stroke:#575757;stroke-linejoin:miter;" x="879.83495" xlink:href="#ma96d0d6383" y="36.383966"/>
     <use style="fill:#575757;stroke:#575757;stroke-linejoin:miter;" x="869.081402" xlink:href="#ma96d0d6383" y="36.383966"/>
     <use style="fill:#575757;stroke:#575757;stroke-linejoin:miter;" x="870.514383" xlink:href="#ma96d0d6383" y="36.383966"/>
     <use style="fill:#575757;stroke:#575757;stroke-linejoin:miter;" x="858.482684" xlink:href="#ma96d0d6383" y="36.383966"/>
     <use style="fill:#575757;stroke:#575757;stroke-linejoin:miter;" x="863.252733" xlink:href="#ma96d0d6383" y="36.383966"/>
     <use style="fill:#575757;stroke:#575757;stroke-linejoin:miter;" x="886.774954" xlink:href="#ma96d0d6383" y="36.383966"/>
     <use style="fill:#575757;stroke:#575757;stroke-linejoin:miter;" x="874.960578" xlink:href="#ma96d0d6383" y="36.383966"/>
     <use style="fill:#575757;stroke:#575757;stroke-linejoin:miter;" x="858.93667" xlink:href="#ma96d0d6383" y="36.383966"/>
     <use style="fill:#575757;stroke:#575757;stroke-linejoin:miter;" x="874.519715" xlink:href="#ma96d0d6383" y="36.383966"/>
     <use style="fill:#575757;stroke:#575757;stroke-linejoin:miter;" x="865.587272" xlink:href="#ma96d0d6383" y="36.383966"/>
     <use style="fill:#575757;stroke:#575757;stroke-linejoin:miter;" x="870.105681" xlink:href="#ma96d0d6383" y="36.383966"/>
     <use style="fill:#575757;stroke:#575757;stroke-linejoin:miter;" x="911.303234" xlink:href="#ma96d0d6383" y="36.383966"/>
     <use style="fill:#575757;stroke:#575757;stroke-linejoin:miter;" x="882.96926" xlink:href="#ma96d0d6383" y="36.383966"/>
     <use style="fill:#575757;stroke:#575757;stroke-linejoin:miter;" x="915.045968" xlink:href="#ma96d0d6383" y="36.383966"/>
     <use style="fill:#575757;stroke:#575757;stroke-linejoin:miter;" x="912.487892" xlink:href="#ma96d0d6383" y="36.383966"/>
     <use style="fill:#575757;stroke:#575757;stroke-linejoin:miter;" x="891.064017" xlink:href="#ma96d0d6383" y="36.383966"/>
     <use style="fill:#575757;stroke:#575757;stroke-linejoin:miter;" x="900.360702" xlink:href="#ma96d0d6383" y="36.383966"/>
     <use style="fill:#575757;stroke:#575757;stroke-linejoin:miter;" x="857.964666" xlink:href="#ma96d0d6383" y="36.383966"/>
     <use style="fill:#575757;stroke:#575757;stroke-linejoin:miter;" x="880.525649" xlink:href="#ma96d0d6383" y="36.383966"/>
     <use style="fill:#575757;stroke:#575757;stroke-linejoin:miter;" x="867.446693" xlink:href="#ma96d0d6383" y="36.383966"/>
     <use style="fill:#575757;stroke:#575757;stroke-linejoin:miter;" x="859.56853" xlink:href="#ma96d0d6383" y="36.383966"/>
    </g>
   </g>
   <g id="line2d_13">
    <path clip-path="url(#p66a6bfb4a3)" d="M 542.315612 13.036793 
L 542.315612 59.731138 
" style="fill:none;stroke:#575757;stroke-linecap:round;stroke-width:1.5;"/>
   </g>
   <g id="patch_4">
    <path d="M 79.8825 65.567931 
L 958.622657 65.567931 
" style="fill:none;stroke:#262626;stroke-linecap:square;stroke-linejoin:miter;stroke-width:1.25;"/>
   </g>
  </g>
  <g id="axes_2">
   <g id="patch_5">
    <path d="M 79.8825 435.231496 
L 958.622657 435.231496 
L 958.622657 104.479885 
L 79.8825 104.479885 
z
" style="fill:none;"/>
   </g>
   <g id="matplotlib.axis_3">
    <g id="xtick_8">
     <g id="line2d_14">
      <defs>
       <path d="M 0 0 
L 0 6 
" id="ma478fd831d" style="stroke:#000000;stroke-width:1.25;"/>
      </defs>
      <g>
       <use style="stroke:#000000;stroke-width:1.25;" x="192.656639" xlink:href="#ma478fd831d" y="435.231496"/>
      </g>
     </g>
     <g id="text_1">
      <!-- 1.7 -->
      <g transform="translate(178.756639 459.047121)scale(0.2 -0.2)">
       <defs>
        <path d="M 37.25 0 
L 28.46875 0 
L 28.46875 56 
Q 25.296875 52.984375 20.140625 49.953125 
Q 14.984375 46.921875 10.890625 45.40625 
L 10.890625 53.90625 
Q 18.265625 57.375 23.78125 62.296875 
Q 29.296875 67.234375 31.59375 71.875 
L 37.25 71.875 
z
" id="ArialMT-49"/>
        <path d="M 9.078125 0 
L 9.078125 10.015625 
L 19.09375 10.015625 
L 19.09375 0 
z
" id="ArialMT-46"/>
        <path d="M 4.734375 62.203125 
L 4.734375 70.65625 
L 51.078125 70.65625 
L 51.078125 63.8125 
Q 44.234375 56.546875 37.515625 44.484375 
Q 30.8125 32.421875 27.15625 19.671875 
Q 24.515625 10.6875 23.78125 0 
L 14.75 0 
Q 14.890625 8.453125 18.0625 20.40625 
Q 21.234375 32.375 27.171875 43.484375 
Q 33.109375 54.59375 39.796875 62.203125 
z
" id="ArialMT-55"/>
       </defs>
       <use xlink:href="#ArialMT-49"/>
       <use x="55.615234" xlink:href="#ArialMT-46"/>
       <use x="83.398438" xlink:href="#ArialMT-55"/>
      </g>
     </g>
    </g>
    <g id="xtick_9">
     <g id="line2d_15">
      <g>
       <use style="stroke:#000000;stroke-width:1.25;" x="309.280977" xlink:href="#ma478fd831d" y="435.231496"/>
      </g>
     </g>
     <g id="text_2">
      <!-- 1.8 -->
      <g transform="translate(295.380977 459.047121)scale(0.2 -0.2)">
       <defs>
        <path d="M 17.671875 38.8125 
Q 12.203125 40.828125 9.5625 44.53125 
Q 6.9375 48.25 6.9375 53.421875 
Q 6.9375 61.234375 12.546875 66.546875 
Q 18.171875 71.875 27.484375 71.875 
Q 36.859375 71.875 42.578125 66.421875 
Q 48.296875 60.984375 48.296875 53.171875 
Q 48.296875 48.1875 45.671875 44.5 
Q 43.0625 40.828125 37.75 38.8125 
Q 44.34375 36.671875 47.78125 31.875 
Q 51.21875 27.09375 51.21875 20.453125 
Q 51.21875 11.28125 44.71875 5.03125 
Q 38.234375 -1.21875 27.640625 -1.21875 
Q 17.046875 -1.21875 10.546875 5.046875 
Q 4.046875 11.328125 4.046875 20.703125 
Q 4.046875 27.6875 7.59375 32.390625 
Q 11.140625 37.109375 17.671875 38.8125 
z
M 15.921875 53.71875 
Q 15.921875 48.640625 19.1875 45.40625 
Q 22.46875 42.1875 27.6875 42.1875 
Q 32.765625 42.1875 36.015625 45.375 
Q 39.265625 48.578125 39.265625 53.21875 
Q 39.265625 58.0625 35.90625 61.359375 
Q 32.5625 64.65625 27.59375 64.65625 
Q 22.5625 64.65625 19.234375 61.421875 
Q 15.921875 58.203125 15.921875 53.71875 
z
M 13.09375 20.65625 
Q 13.09375 16.890625 14.875 13.375 
Q 16.65625 9.859375 20.171875 7.921875 
Q 23.6875 6 27.734375 6 
Q 34.03125 6 38.125 10.046875 
Q 42.234375 14.109375 42.234375 20.359375 
Q 42.234375 26.703125 38.015625 30.859375 
Q 33.796875 35.015625 27.4375 35.015625 
Q 21.234375 35.015625 17.15625 30.90625 
Q 13.09375 26.8125 13.09375 20.65625 
z
" id="ArialMT-56"/>
       </defs>
       <use xlink:href="#ArialMT-49"/>
       <use x="55.615234" xlink:href="#ArialMT-46"/>
       <use x="83.398438" xlink:href="#ArialMT-56"/>
      </g>
     </g>
    </g>
    <g id="xtick_10">
     <g id="line2d_16">
      <g>
       <use style="stroke:#000000;stroke-width:1.25;" x="425.905314" xlink:href="#ma478fd831d" y="435.231496"/>
      </g>
     </g>
     <g id="text_3">
      <!-- 1.9 -->
      <g transform="translate(412.005314 459.047121)scale(0.2 -0.2)">
       <defs>
        <path d="M 5.46875 16.546875 
L 13.921875 17.328125 
Q 14.984375 11.375 18.015625 8.6875 
Q 21.046875 6 25.78125 6 
Q 29.828125 6 32.875 7.859375 
Q 35.9375 9.71875 37.890625 12.8125 
Q 39.84375 15.921875 41.15625 21.1875 
Q 42.484375 26.46875 42.484375 31.9375 
Q 42.484375 32.515625 42.4375 33.6875 
Q 39.796875 29.5 35.234375 26.875 
Q 30.671875 24.265625 25.34375 24.265625 
Q 16.453125 24.265625 10.296875 30.703125 
Q 4.15625 37.15625 4.15625 47.703125 
Q 4.15625 58.59375 10.578125 65.234375 
Q 17 71.875 26.65625 71.875 
Q 33.640625 71.875 39.421875 68.109375 
Q 45.21875 64.359375 48.21875 57.390625 
Q 51.21875 50.4375 51.21875 37.25 
Q 51.21875 23.53125 48.234375 15.40625 
Q 45.265625 7.28125 39.375 3.03125 
Q 33.5 -1.21875 25.59375 -1.21875 
Q 17.1875 -1.21875 11.859375 3.4375 
Q 6.546875 8.109375 5.46875 16.546875 
z
M 41.453125 48.140625 
Q 41.453125 55.71875 37.421875 60.15625 
Q 33.40625 64.59375 27.734375 64.59375 
Q 21.875 64.59375 17.53125 59.8125 
Q 13.1875 55.03125 13.1875 47.40625 
Q 13.1875 40.578125 17.3125 36.296875 
Q 21.4375 32.03125 27.484375 32.03125 
Q 33.59375 32.03125 37.515625 36.296875 
Q 41.453125 40.578125 41.453125 48.140625 
z
" id="ArialMT-57"/>
       </defs>
       <use xlink:href="#ArialMT-49"/>
       <use x="55.615234" xlink:href="#ArialMT-46"/>
       <use x="83.398438" xlink:href="#ArialMT-57"/>
      </g>
     </g>
    </g>
    <g id="xtick_11">
     <g id="line2d_17">
      <g>
       <use style="stroke:#000000;stroke-width:1.25;" x="542.529652" xlink:href="#ma478fd831d" y="435.231496"/>
      </g>
     </g>
     <g id="text_4">
      <!-- 2.0 -->
      <g transform="translate(528.629652 459.047121)scale(0.2 -0.2)">
       <defs>
        <path d="M 50.34375 8.453125 
L 50.34375 0 
L 3.03125 0 
Q 2.9375 3.171875 4.046875 6.109375 
Q 5.859375 10.9375 9.828125 15.625 
Q 13.8125 20.3125 21.34375 26.46875 
Q 33.015625 36.03125 37.109375 41.625 
Q 41.21875 47.21875 41.21875 52.203125 
Q 41.21875 57.421875 37.46875 61 
Q 33.734375 64.59375 27.734375 64.59375 
Q 21.390625 64.59375 17.578125 60.78125 
Q 13.765625 56.984375 13.71875 50.25 
L 4.6875 51.171875 
Q 5.609375 61.28125 11.65625 66.578125 
Q 17.71875 71.875 27.9375 71.875 
Q 38.234375 71.875 44.234375 66.15625 
Q 50.25 60.453125 50.25 52 
Q 50.25 47.703125 48.484375 43.546875 
Q 46.734375 39.40625 42.65625 34.8125 
Q 38.578125 30.21875 29.109375 22.21875 
Q 21.1875 15.578125 18.9375 13.203125 
Q 16.703125 10.84375 15.234375 8.453125 
z
" id="ArialMT-50"/>
        <path d="M 4.15625 35.296875 
Q 4.15625 48 6.765625 55.734375 
Q 9.375 63.484375 14.515625 67.671875 
Q 19.671875 71.875 27.484375 71.875 
Q 33.25 71.875 37.59375 69.546875 
Q 41.9375 67.234375 44.765625 62.859375 
Q 47.609375 58.5 49.21875 52.21875 
Q 50.828125 45.953125 50.828125 35.296875 
Q 50.828125 22.703125 48.234375 14.96875 
Q 45.65625 7.234375 40.5 3 
Q 35.359375 -1.21875 27.484375 -1.21875 
Q 17.140625 -1.21875 11.234375 6.203125 
Q 4.15625 15.140625 4.15625 35.296875 
z
M 13.1875 35.296875 
Q 13.1875 17.671875 17.3125 11.828125 
Q 21.4375 6 27.484375 6 
Q 33.546875 6 37.671875 11.859375 
Q 41.796875 17.71875 41.796875 35.296875 
Q 41.796875 52.984375 37.671875 58.78125 
Q 33.546875 64.59375 27.390625 64.59375 
Q 21.34375 64.59375 17.71875 59.46875 
Q 13.1875 52.9375 13.1875 35.296875 
z
" id="ArialMT-48"/>
       </defs>
       <use xlink:href="#ArialMT-50"/>
       <use x="55.615234" xlink:href="#ArialMT-46"/>
       <use x="83.398438" xlink:href="#ArialMT-48"/>
      </g>
     </g>
    </g>
    <g id="xtick_12">
     <g id="line2d_18">
      <g>
       <use style="stroke:#000000;stroke-width:1.25;" x="659.153989" xlink:href="#ma478fd831d" y="435.231496"/>
      </g>
     </g>
     <g id="text_5">
      <!-- 2.1 -->
      <g transform="translate(645.253989 459.047121)scale(0.2 -0.2)">
       <use xlink:href="#ArialMT-50"/>
       <use x="55.615234" xlink:href="#ArialMT-46"/>
       <use x="83.398438" xlink:href="#ArialMT-49"/>
      </g>
     </g>
    </g>
    <g id="xtick_13">
     <g id="line2d_19">
      <g>
       <use style="stroke:#000000;stroke-width:1.25;" x="775.778327" xlink:href="#ma478fd831d" y="435.231496"/>
      </g>
     </g>
     <g id="text_6">
      <!-- 2.2 -->
      <g transform="translate(761.878327 459.047121)scale(0.2 -0.2)">
       <use xlink:href="#ArialMT-50"/>
       <use x="55.615234" xlink:href="#ArialMT-46"/>
       <use x="83.398438" xlink:href="#ArialMT-50"/>
      </g>
     </g>
    </g>
    <g id="xtick_14">
     <g id="line2d_20">
      <g>
       <use style="stroke:#000000;stroke-width:1.25;" x="892.402664" xlink:href="#ma478fd831d" y="435.231496"/>
      </g>
     </g>
     <g id="text_7">
      <!-- 2.3 -->
      <g transform="translate(878.502664 459.047121)scale(0.2 -0.2)">
       <defs>
        <path d="M 4.203125 18.890625 
L 12.984375 20.0625 
Q 14.5 12.59375 18.140625 9.296875 
Q 21.78125 6 27 6 
Q 33.203125 6 37.46875 10.296875 
Q 41.75 14.59375 41.75 20.953125 
Q 41.75 27 37.796875 30.921875 
Q 33.84375 34.859375 27.734375 34.859375 
Q 25.25 34.859375 21.53125 33.890625 
L 22.515625 41.609375 
Q 23.390625 41.5 23.921875 41.5 
Q 29.546875 41.5 34.03125 44.421875 
Q 38.53125 47.359375 38.53125 53.46875 
Q 38.53125 58.296875 35.25 61.46875 
Q 31.984375 64.65625 26.8125 64.65625 
Q 21.6875 64.65625 18.265625 61.421875 
Q 14.84375 58.203125 13.875 51.765625 
L 5.078125 53.328125 
Q 6.6875 62.15625 12.390625 67.015625 
Q 18.109375 71.875 26.609375 71.875 
Q 32.46875 71.875 37.390625 69.359375 
Q 42.328125 66.84375 44.9375 62.5 
Q 47.5625 58.15625 47.5625 53.265625 
Q 47.5625 48.640625 45.0625 44.828125 
Q 42.578125 41.015625 37.703125 38.765625 
Q 44.046875 37.3125 47.5625 32.6875 
Q 51.078125 28.078125 51.078125 21.140625 
Q 51.078125 11.765625 44.234375 5.25 
Q 37.40625 -1.265625 26.953125 -1.265625 
Q 17.53125 -1.265625 11.296875 4.34375 
Q 5.078125 9.96875 4.203125 18.890625 
z
" id="ArialMT-51"/>
       </defs>
       <use xlink:href="#ArialMT-50"/>
       <use x="55.615234" xlink:href="#ArialMT-46"/>
       <use x="83.398438" xlink:href="#ArialMT-51"/>
      </g>
     </g>
    </g>
    <g id="text_8">
     <!-- $x_0$ (MPa)$ -->
     <g transform="translate(469.010079 479.529621)scale(0.16 -0.16)">
      <defs>
       <path d="M 24.90625 -10.296875 
L 24.90625 -1.515625 
Q 18.3125 -0.6875 14.1875 1.4375 
Q 10.0625 3.5625 7.046875 8.296875 
Q 4.046875 13.03125 3.5625 19.875 
L 12.40625 21.53125 
Q 13.421875 14.453125 16.015625 11.140625 
Q 19.734375 6.453125 24.90625 5.90625 
L 24.90625 33.890625 
Q 19.484375 34.90625 13.8125 38.09375 
Q 9.625 40.4375 7.34375 44.578125 
Q 5.078125 48.734375 5.078125 54 
Q 5.078125 63.375 11.71875 69.1875 
Q 16.15625 73.09375 24.90625 73.96875 
L 24.90625 78.171875 
L 30.078125 78.171875 
L 30.078125 73.96875 
Q 37.75 73.25 42.234375 69.484375 
Q 48 64.703125 49.171875 56.34375 
L 40.09375 54.984375 
Q 39.3125 60.15625 36.84375 62.90625 
Q 34.375 65.671875 30.078125 66.546875 
L 30.078125 41.21875 
Q 36.71875 39.546875 38.875 38.625 
Q 42.96875 36.8125 45.546875 34.21875 
Q 48.140625 31.640625 49.53125 28.078125 
Q 50.921875 24.515625 50.921875 20.359375 
Q 50.921875 11.234375 45.109375 5.125 
Q 39.3125 -0.984375 30.078125 -1.421875 
L 30.078125 -10.296875 
z
M 24.90625 66.65625 
Q 19.78125 65.875 16.828125 62.546875 
Q 13.875 59.234375 13.875 54.6875 
Q 13.875 50.203125 16.375 47.171875 
Q 18.890625 44.140625 24.90625 42.328125 
z
M 30.078125 5.90625 
Q 35.203125 6.546875 38.546875 10.34375 
Q 41.890625 14.15625 41.890625 19.78125 
Q 41.890625 24.5625 39.515625 27.46875 
Q 37.15625 30.375 30.078125 32.671875 
z
" id="ArialMT-36"/>
       <path d="M 0.734375 0 
L 19.671875 26.953125 
L 2.15625 51.859375 
L 13.140625 51.859375 
L 21.09375 39.703125 
Q 23.34375 36.234375 24.703125 33.890625 
Q 26.859375 37.109375 28.65625 39.59375 
L 37.40625 51.859375 
L 47.90625 51.859375 
L 29.984375 27.4375 
L 49.265625 0 
L 38.484375 0 
L 27.828125 16.109375 
L 25 20.453125 
L 11.375 0 
z
" id="ArialMT-120"/>
       <path d="M -1.515625 -19.875 
L -1.515625 -13.53125 
L 56.734375 -13.53125 
L 56.734375 -19.875 
z
" id="ArialMT-95"/>
       <path id="ArialMT-32"/>
       <path d="M 23.390625 -21.046875 
Q 16.109375 -11.859375 11.078125 0.4375 
Q 6.0625 12.75 6.0625 25.921875 
Q 6.0625 37.546875 9.8125 48.1875 
Q 14.203125 60.546875 23.390625 72.796875 
L 29.6875 72.796875 
Q 23.78125 62.640625 21.875 58.296875 
Q 18.890625 51.5625 17.1875 44.234375 
Q 15.09375 35.109375 15.09375 25.875 
Q 15.09375 2.390625 29.6875 -21.046875 
z
" id="ArialMT-40"/>
       <path d="M 7.421875 0 
L 7.421875 71.578125 
L 21.6875 71.578125 
L 38.625 20.90625 
Q 40.96875 13.8125 42.046875 10.296875 
Q 43.265625 14.203125 45.84375 21.78125 
L 62.984375 71.578125 
L 75.734375 71.578125 
L 75.734375 0 
L 66.609375 0 
L 66.609375 59.90625 
L 45.796875 0 
L 37.25 0 
L 16.546875 60.9375 
L 16.546875 0 
z
" id="ArialMT-77"/>
       <path d="M 7.71875 0 
L 7.71875 71.578125 
L 34.71875 71.578125 
Q 41.84375 71.578125 45.609375 70.90625 
Q 50.875 70.015625 54.4375 67.546875 
Q 58.015625 65.09375 60.1875 60.640625 
Q 62.359375 56.203125 62.359375 50.875 
Q 62.359375 41.75 56.546875 35.421875 
Q 50.734375 29.109375 35.546875 29.109375 
L 17.1875 29.109375 
L 17.1875 0 
z
M 17.1875 37.546875 
L 35.6875 37.546875 
Q 44.875 37.546875 48.734375 40.96875 
Q 52.59375 44.390625 52.59375 50.59375 
Q 52.59375 55.078125 50.3125 58.265625 
Q 48.046875 61.46875 44.34375 62.5 
Q 41.9375 63.140625 35.5 63.140625 
L 17.1875 63.140625 
z
" id="ArialMT-80"/>
       <path d="M 40.4375 6.390625 
Q 35.546875 2.25 31.03125 0.53125 
Q 26.515625 -1.171875 21.34375 -1.171875 
Q 12.796875 -1.171875 8.203125 3 
Q 3.609375 7.171875 3.609375 13.671875 
Q 3.609375 17.484375 5.34375 20.625 
Q 7.078125 23.78125 9.890625 25.6875 
Q 12.703125 27.59375 16.21875 28.5625 
Q 18.796875 29.25 24.03125 29.890625 
Q 34.671875 31.15625 39.703125 32.90625 
Q 39.75 34.71875 39.75 35.203125 
Q 39.75 40.578125 37.25 42.78125 
Q 33.890625 45.75 27.25 45.75 
Q 21.046875 45.75 18.09375 43.578125 
Q 15.140625 41.40625 13.71875 35.890625 
L 5.125 37.0625 
Q 6.296875 42.578125 8.984375 45.96875 
Q 11.671875 49.359375 16.75 51.1875 
Q 21.828125 53.03125 28.515625 53.03125 
Q 35.15625 53.03125 39.296875 51.46875 
Q 43.453125 49.90625 45.40625 47.53125 
Q 47.359375 45.171875 48.140625 41.546875 
Q 48.578125 39.3125 48.578125 33.453125 
L 48.578125 21.734375 
Q 48.578125 9.46875 49.140625 6.21875 
Q 49.703125 2.984375 51.375 0 
L 42.1875 0 
Q 40.828125 2.734375 40.4375 6.390625 
z
M 39.703125 26.03125 
Q 34.90625 24.078125 25.34375 22.703125 
Q 19.921875 21.921875 17.671875 20.9375 
Q 15.4375 19.96875 14.203125 18.09375 
Q 12.984375 16.21875 12.984375 13.921875 
Q 12.984375 10.40625 15.640625 8.0625 
Q 18.3125 5.71875 23.4375 5.71875 
Q 28.515625 5.71875 32.46875 7.9375 
Q 36.421875 10.15625 38.28125 14.015625 
Q 39.703125 17 39.703125 22.796875 
z
" id="ArialMT-97"/>
       <path d="M 12.359375 -21.046875 
L 6.0625 -21.046875 
Q 20.65625 2.390625 20.65625 25.875 
Q 20.65625 35.0625 18.5625 44.09375 
Q 16.890625 51.421875 13.921875 58.15625 
Q 12.015625 62.546875 6.0625 72.796875 
L 12.359375 72.796875 
Q 21.53125 60.546875 25.921875 48.1875 
Q 29.6875 37.546875 29.6875 25.921875 
Q 29.6875 12.75 24.625 0.4375 
Q 19.578125 -11.859375 12.359375 -21.046875 
z
" id="ArialMT-41"/>
      </defs>
      <use xlink:href="#ArialMT-36"/>
      <use x="55.615234" xlink:href="#ArialMT-120"/>
      <use x="105.615234" xlink:href="#ArialMT-95"/>
      <use x="161.230469" xlink:href="#ArialMT-48"/>
      <use x="216.845703" xlink:href="#ArialMT-36"/>
      <use x="272.460938" xlink:href="#ArialMT-32"/>
      <use x="300.244141" xlink:href="#ArialMT-40"/>
      <use x="333.544922" xlink:href="#ArialMT-77"/>
      <use x="416.845703" xlink:href="#ArialMT-80"/>
      <use x="483.544922" xlink:href="#ArialMT-97"/>
      <use x="539.160156" xlink:href="#ArialMT-41"/>
      <use x="572.460938" xlink:href="#ArialMT-36"/>
     </g>
    </g>
    <g id="text_9">
     <!-- 1e11 -->
     <g transform="translate(934.965782 473.895715)scale(0.11 -0.11)">
      <defs>
       <path d="M 42.09375 16.703125 
L 51.171875 15.578125 
Q 49.03125 7.625 43.21875 3.21875 
Q 37.40625 -1.171875 28.375 -1.171875 
Q 17 -1.171875 10.328125 5.828125 
Q 3.65625 12.84375 3.65625 25.484375 
Q 3.65625 38.578125 10.390625 45.796875 
Q 17.140625 53.03125 27.875 53.03125 
Q 38.28125 53.03125 44.875 45.953125 
Q 51.46875 38.875 51.46875 26.03125 
Q 51.46875 25.25 51.421875 23.6875 
L 12.75 23.6875 
Q 13.234375 15.140625 17.578125 10.59375 
Q 21.921875 6.0625 28.421875 6.0625 
Q 33.25 6.0625 36.671875 8.59375 
Q 40.09375 11.140625 42.09375 16.703125 
z
M 13.234375 30.90625 
L 42.1875 30.90625 
Q 41.609375 37.453125 38.875 40.71875 
Q 34.671875 45.796875 27.984375 45.796875 
Q 21.921875 45.796875 17.796875 41.75 
Q 13.671875 37.703125 13.234375 30.90625 
z
" id="ArialMT-101"/>
      </defs>
      <use xlink:href="#ArialMT-49"/>
      <use x="55.615234" xlink:href="#ArialMT-101"/>
      <use x="111.230469" xlink:href="#ArialMT-49"/>
      <use x="159.470703" xlink:href="#ArialMT-49"/>
     </g>
    </g>
   </g>
   <g id="matplotlib.axis_4">
    <g id="ytick_1">
     <g id="line2d_21">
      <defs>
       <path d="M 0 0 
L -6 0 
" id="m3d7d58d773" style="stroke:#000000;stroke-width:1.25;"/>
      </defs>
      <g>
       <use style="stroke:#000000;stroke-width:1.25;" x="79.8825" xlink:href="#m3d7d58d773" y="435.231496"/>
      </g>
     </g>
     <g id="text_10">
      <!-- 0 -->
      <g transform="translate(59.260625 442.389309)scale(0.2 -0.2)">
       <use xlink:href="#ArialMT-48"/>
      </g>
     </g>
    </g>
    <g id="ytick_2">
     <g id="line2d_22">
      <g>
       <use style="stroke:#000000;stroke-width:1.25;" x="79.8825" xlink:href="#m3d7d58d773" y="391.932316"/>
      </g>
     </g>
     <g id="text_11">
      <!-- 200 -->
      <g transform="translate(37.016875 399.090129)scale(0.2 -0.2)">
       <use xlink:href="#ArialMT-50"/>
       <use x="55.615234" xlink:href="#ArialMT-48"/>
       <use x="111.230469" xlink:href="#ArialMT-48"/>
      </g>
     </g>
    </g>
    <g id="ytick_3">
     <g id="line2d_23">
      <g>
       <use style="stroke:#000000;stroke-width:1.25;" x="79.8825" xlink:href="#m3d7d58d773" y="348.633136"/>
      </g>
     </g>
     <g id="text_12">
      <!-- 400 -->
      <g transform="translate(37.016875 355.790949)scale(0.2 -0.2)">
       <defs>
        <path d="M 32.328125 0 
L 32.328125 17.140625 
L 1.265625 17.140625 
L 1.265625 25.203125 
L 33.9375 71.578125 
L 41.109375 71.578125 
L 41.109375 25.203125 
L 50.78125 25.203125 
L 50.78125 17.140625 
L 41.109375 17.140625 
L 41.109375 0 
z
M 32.328125 25.203125 
L 32.328125 57.46875 
L 9.90625 25.203125 
z
" id="ArialMT-52"/>
       </defs>
       <use xlink:href="#ArialMT-52"/>
       <use x="55.615234" xlink:href="#ArialMT-48"/>
       <use x="111.230469" xlink:href="#ArialMT-48"/>
      </g>
     </g>
    </g>
    <g id="ytick_4">
     <g id="line2d_24">
      <g>
       <use style="stroke:#000000;stroke-width:1.25;" x="79.8825" xlink:href="#m3d7d58d773" y="305.333956"/>
      </g>
     </g>
     <g id="text_13">
      <!-- 600 -->
      <g transform="translate(37.016875 312.491769)scale(0.2 -0.2)">
       <defs>
        <path d="M 49.75 54.046875 
L 41.015625 53.375 
Q 39.84375 58.546875 37.703125 60.890625 
Q 34.125 64.65625 28.90625 64.65625 
Q 24.703125 64.65625 21.53125 62.3125 
Q 17.390625 59.28125 14.984375 53.46875 
Q 12.59375 47.65625 12.5 36.921875 
Q 15.671875 41.75 20.265625 44.09375 
Q 24.859375 46.4375 29.890625 46.4375 
Q 38.671875 46.4375 44.84375 39.96875 
Q 51.03125 33.5 51.03125 23.25 
Q 51.03125 16.5 48.125 10.71875 
Q 45.21875 4.9375 40.140625 1.859375 
Q 35.0625 -1.21875 28.609375 -1.21875 
Q 17.625 -1.21875 10.6875 6.859375 
Q 3.765625 14.9375 3.765625 33.5 
Q 3.765625 54.25 11.421875 63.671875 
Q 18.109375 71.875 29.4375 71.875 
Q 37.890625 71.875 43.28125 67.140625 
Q 48.6875 62.40625 49.75 54.046875 
z
M 13.875 23.1875 
Q 13.875 18.65625 15.796875 14.5 
Q 17.71875 10.359375 21.1875 8.171875 
Q 24.65625 6 28.46875 6 
Q 34.03125 6 38.03125 10.484375 
Q 42.046875 14.984375 42.046875 22.703125 
Q 42.046875 30.125 38.078125 34.390625 
Q 34.125 38.671875 28.125 38.671875 
Q 22.171875 38.671875 18.015625 34.390625 
Q 13.875 30.125 13.875 23.1875 
z
" id="ArialMT-54"/>
       </defs>
       <use xlink:href="#ArialMT-54"/>
       <use x="55.615234" xlink:href="#ArialMT-48"/>
       <use x="111.230469" xlink:href="#ArialMT-48"/>
      </g>
     </g>
    </g>
    <g id="ytick_5">
     <g id="line2d_25">
      <g>
       <use style="stroke:#000000;stroke-width:1.25;" x="79.8825" xlink:href="#m3d7d58d773" y="262.034776"/>
      </g>
     </g>
     <g id="text_14">
      <!-- 800 -->
      <g transform="translate(37.016875 269.192589)scale(0.2 -0.2)">
       <use xlink:href="#ArialMT-56"/>
       <use x="55.615234" xlink:href="#ArialMT-48"/>
       <use x="111.230469" xlink:href="#ArialMT-48"/>
      </g>
     </g>
    </g>
    <g id="ytick_6">
     <g id="line2d_26">
      <g>
       <use style="stroke:#000000;stroke-width:1.25;" x="79.8825" xlink:href="#m3d7d58d773" y="218.735596"/>
      </g>
     </g>
     <g id="text_15">
      <!-- 1000 -->
      <g transform="translate(25.895 225.893409)scale(0.2 -0.2)">
       <use xlink:href="#ArialMT-49"/>
       <use x="55.615234" xlink:href="#ArialMT-48"/>
       <use x="111.230469" xlink:href="#ArialMT-48"/>
       <use x="166.845703" xlink:href="#ArialMT-48"/>
      </g>
     </g>
    </g>
    <g id="ytick_7">
     <g id="line2d_27">
      <g>
       <use style="stroke:#000000;stroke-width:1.25;" x="79.8825" xlink:href="#m3d7d58d773" y="175.436417"/>
      </g>
     </g>
     <g id="text_16">
      <!-- 1200 -->
      <g transform="translate(25.895 182.594229)scale(0.2 -0.2)">
       <use xlink:href="#ArialMT-49"/>
       <use x="55.615234" xlink:href="#ArialMT-50"/>
       <use x="111.230469" xlink:href="#ArialMT-48"/>
       <use x="166.845703" xlink:href="#ArialMT-48"/>
      </g>
     </g>
    </g>
    <g id="ytick_8">
     <g id="line2d_28">
      <g>
       <use style="stroke:#000000;stroke-width:1.25;" x="79.8825" xlink:href="#m3d7d58d773" y="132.137237"/>
      </g>
     </g>
     <g id="text_17">
      <!-- 1400 -->
      <g transform="translate(25.895 139.295049)scale(0.2 -0.2)">
       <use xlink:href="#ArialMT-49"/>
       <use x="55.615234" xlink:href="#ArialMT-52"/>
       <use x="111.230469" xlink:href="#ArialMT-48"/>
       <use x="166.845703" xlink:href="#ArialMT-48"/>
      </g>
     </g>
    </g>
    <g id="text_18">
     <!-- Frequência -->
     <g transform="translate(18.715 309.875691)rotate(-90)scale(0.16 -0.16)">
      <defs>
       <path d="M 8.203125 0 
L 8.203125 71.578125 
L 56.5 71.578125 
L 56.5 63.140625 
L 17.671875 63.140625 
L 17.671875 40.96875 
L 51.265625 40.96875 
L 51.265625 32.515625 
L 17.671875 32.515625 
L 17.671875 0 
z
" id="ArialMT-70"/>
       <path d="M 6.5 0 
L 6.5 51.859375 
L 14.40625 51.859375 
L 14.40625 44 
Q 17.4375 49.515625 20 51.265625 
Q 22.5625 53.03125 25.640625 53.03125 
Q 30.078125 53.03125 34.671875 50.203125 
L 31.640625 42.046875 
Q 28.421875 43.953125 25.203125 43.953125 
Q 22.3125 43.953125 20.015625 42.21875 
Q 17.71875 40.484375 16.75 37.40625 
Q 15.28125 32.71875 15.28125 27.15625 
L 15.28125 0 
z
" id="ArialMT-114"/>
       <path d="M 39.65625 -19.875 
L 39.65625 5.515625 
Q 37.59375 2.640625 33.90625 0.734375 
Q 30.21875 -1.171875 26.078125 -1.171875 
Q 16.84375 -1.171875 10.171875 6.203125 
Q 3.515625 13.578125 3.515625 26.421875 
Q 3.515625 34.234375 6.21875 40.421875 
Q 8.9375 46.625 14.078125 49.828125 
Q 19.234375 53.03125 25.390625 53.03125 
Q 35.015625 53.03125 40.53125 44.921875 
L 40.53125 51.859375 
L 48.4375 51.859375 
L 48.4375 -19.875 
z
M 12.546875 26.078125 
Q 12.546875 16.0625 16.75 11.0625 
Q 20.953125 6.0625 26.8125 6.0625 
Q 32.421875 6.0625 36.46875 10.8125 
Q 40.53125 15.578125 40.53125 25.296875 
Q 40.53125 35.640625 36.25 40.859375 
Q 31.984375 46.09375 26.21875 46.09375 
Q 20.515625 46.09375 16.53125 41.234375 
Q 12.546875 36.375 12.546875 26.078125 
z
" id="ArialMT-113"/>
       <path d="M 40.578125 0 
L 40.578125 7.625 
Q 34.515625 -1.171875 24.125 -1.171875 
Q 19.53125 -1.171875 15.546875 0.578125 
Q 11.578125 2.34375 9.640625 5 
Q 7.71875 7.671875 6.9375 11.53125 
Q 6.390625 14.109375 6.390625 19.734375 
L 6.390625 51.859375 
L 15.1875 51.859375 
L 15.1875 23.09375 
Q 15.1875 16.21875 15.71875 13.8125 
Q 16.546875 10.359375 19.234375 8.375 
Q 21.921875 6.390625 25.875 6.390625 
Q 29.828125 6.390625 33.296875 8.421875 
Q 36.765625 10.453125 38.203125 13.9375 
Q 39.65625 17.4375 39.65625 24.078125 
L 39.65625 51.859375 
L 48.4375 51.859375 
L 48.4375 0 
z
" id="ArialMT-117"/>
       <path d="M 42.09375 16.703125 
L 51.171875 15.578125 
Q 49.03125 7.625 43.21875 3.21875 
Q 37.40625 -1.171875 28.375 -1.171875 
Q 17 -1.171875 10.328125 5.828125 
Q 3.65625 12.84375 3.65625 25.484375 
Q 3.65625 38.578125 10.390625 45.796875 
Q 17.140625 53.03125 27.875 53.03125 
Q 38.28125 53.03125 44.875 45.953125 
Q 51.46875 38.875 51.46875 26.03125 
Q 51.46875 25.25 51.421875 23.6875 
L 12.75 23.6875 
Q 13.234375 15.140625 17.578125 10.59375 
Q 21.921875 6.0625 28.421875 6.0625 
Q 33.25 6.0625 36.671875 8.59375 
Q 40.09375 11.140625 42.09375 16.703125 
z
M 13.234375 30.90625 
L 42.1875 30.90625 
Q 41.609375 37.453125 38.875 40.71875 
Q 34.671875 45.796875 27.984375 45.796875 
Q 21.921875 45.796875 17.796875 41.75 
Q 13.671875 37.703125 13.234375 30.90625 
z
M 27.6875 66.609375 
L 22.171875 58.296875 
L 12.109375 58.296875 
L 22.65625 71.96875 
L 32.03125 71.96875 
L 43.015625 58.296875 
L 33.0625 58.296875 
z
" id="ArialMT-234"/>
       <path d="M 6.59375 0 
L 6.59375 51.859375 
L 14.5 51.859375 
L 14.5 44.484375 
Q 20.21875 53.03125 31 53.03125 
Q 35.6875 53.03125 39.625 51.34375 
Q 43.5625 49.65625 45.515625 46.921875 
Q 47.46875 44.1875 48.25 40.4375 
Q 48.734375 37.984375 48.734375 31.890625 
L 48.734375 0 
L 39.9375 0 
L 39.9375 31.546875 
Q 39.9375 36.921875 38.90625 39.578125 
Q 37.890625 42.234375 35.28125 43.8125 
Q 32.671875 45.40625 29.15625 45.40625 
Q 23.53125 45.40625 19.453125 41.84375 
Q 15.375 38.28125 15.375 28.328125 
L 15.375 0 
z
" id="ArialMT-110"/>
       <path d="M 40.4375 19 
L 49.078125 17.875 
Q 47.65625 8.9375 41.8125 3.875 
Q 35.984375 -1.171875 27.484375 -1.171875 
Q 16.84375 -1.171875 10.375 5.78125 
Q 3.90625 12.75 3.90625 25.734375 
Q 3.90625 34.125 6.6875 40.421875 
Q 9.46875 46.734375 15.15625 49.875 
Q 20.84375 53.03125 27.546875 53.03125 
Q 35.984375 53.03125 41.359375 48.75 
Q 46.734375 44.484375 48.25 36.625 
L 39.703125 35.296875 
Q 38.484375 40.53125 35.375 43.15625 
Q 32.28125 45.796875 27.875 45.796875 
Q 21.234375 45.796875 17.078125 41.03125 
Q 12.9375 36.28125 12.9375 25.984375 
Q 12.9375 15.53125 16.9375 10.796875 
Q 20.953125 6.0625 27.390625 6.0625 
Q 32.5625 6.0625 36.03125 9.234375 
Q 39.5 12.40625 40.4375 19 
z
" id="ArialMT-99"/>
       <path d="M 6.640625 61.46875 
L 6.640625 71.578125 
L 15.4375 71.578125 
L 15.4375 61.46875 
z
M 6.640625 0 
L 6.640625 51.859375 
L 15.4375 51.859375 
L 15.4375 0 
z
" id="ArialMT-105"/>
      </defs>
      <use xlink:href="#ArialMT-70"/>
      <use x="61.083984" xlink:href="#ArialMT-114"/>
      <use x="94.384766" xlink:href="#ArialMT-101"/>
      <use x="150" xlink:href="#ArialMT-113"/>
      <use x="205.615234" xlink:href="#ArialMT-117"/>
      <use x="261.230469" xlink:href="#ArialMT-234"/>
      <use x="316.845703" xlink:href="#ArialMT-110"/>
      <use x="372.460938" xlink:href="#ArialMT-99"/>
      <use x="422.460938" xlink:href="#ArialMT-105"/>
      <use x="444.677734" xlink:href="#ArialMT-97"/>
     </g>
    </g>
   </g>
   <g id="patch_6">
    <path clip-path="url(#pec9a7ccec9)" d="M 119.825234 435.231496 
L 159.767969 435.231496 
L 159.767969 434.365512 
L 119.825234 434.365512 
z
" style="fill:#feb625;fill-opacity:0.75;stroke:#ffffff;stroke-linejoin:miter;"/>
   </g>
   <g id="patch_7">
    <path clip-path="url(#pec9a7ccec9)" d="M 159.767969 435.231496 
L 199.710703 435.231496 
L 199.710703 432.633545 
L 159.767969 432.633545 
z
" style="fill:#feb625;fill-opacity:0.75;stroke:#ffffff;stroke-linejoin:miter;"/>
   </g>
   <g id="patch_8">
    <path clip-path="url(#pec9a7ccec9)" d="M 199.710703 435.231496 
L 239.653438 435.231496 
L 239.653438 428.953115 
L 199.710703 428.953115 
z
" style="fill:#feb625;fill-opacity:0.75;stroke:#ffffff;stroke-linejoin:miter;"/>
   </g>
   <g id="patch_9">
    <path clip-path="url(#pec9a7ccec9)" d="M 239.653438 435.231496 
L 279.596172 435.231496 
L 279.596172 417.478832 
L 239.653438 417.478832 
z
" style="fill:#feb625;fill-opacity:0.75;stroke:#ffffff;stroke-linejoin:miter;"/>
   </g>
   <g id="patch_10">
    <path clip-path="url(#pec9a7ccec9)" d="M 279.596172 435.231496 
L 319.538907 435.231496 
L 319.538907 403.406599 
L 279.596172 403.406599 
z
" style="fill:#feb625;fill-opacity:0.75;stroke:#ffffff;stroke-linejoin:miter;"/>
   </g>
   <g id="patch_11">
    <path clip-path="url(#pec9a7ccec9)" d="M 319.538907 435.231496 
L 359.481641 435.231496 
L 359.481641 366.602296 
L 319.538907 366.602296 
z
" style="fill:#feb625;fill-opacity:0.75;stroke:#ffffff;stroke-linejoin:miter;"/>
   </g>
   <g id="patch_12">
    <path clip-path="url(#pec9a7ccec9)" d="M 359.481641 435.231496 
L 399.424375 435.231496 
L 399.424375 326.117563 
L 359.481641 326.117563 
z
" style="fill:#feb625;fill-opacity:0.75;stroke:#ffffff;stroke-linejoin:miter;"/>
   </g>
   <g id="patch_13">
    <path clip-path="url(#pec9a7ccec9)" d="M 399.424375 435.231496 
L 439.36711 435.231496 
L 439.36711 261.601785 
L 399.424375 261.601785 
z
" style="fill:#feb625;fill-opacity:0.75;stroke:#ffffff;stroke-linejoin:miter;"/>
   </g>
   <g id="patch_14">
    <path clip-path="url(#pec9a7ccec9)" d="M 439.36711 435.231496 
L 479.309844 435.231496 
L 479.309844 211.374736 
L 439.36711 211.374736 
z
" style="fill:#feb625;fill-opacity:0.75;stroke:#ffffff;stroke-linejoin:miter;"/>
   </g>
   <g id="patch_15">
    <path clip-path="url(#pec9a7ccec9)" d="M 479.309844 435.231496 
L 519.252579 435.231496 
L 519.252579 166.343589 
L 479.309844 166.343589 
z
" style="fill:#feb625;fill-opacity:0.75;stroke:#ffffff;stroke-linejoin:miter;"/>
   </g>
   <g id="patch_16">
    <path clip-path="url(#pec9a7ccec9)" d="M 519.252579 435.231496 
L 559.195313 435.231496 
L 559.195313 120.229962 
L 519.252579 120.229962 
z
" style="fill:#feb625;fill-opacity:0.75;stroke:#ffffff;stroke-linejoin:miter;"/>
   </g>
   <g id="patch_17">
    <path clip-path="url(#pec9a7ccec9)" d="M 559.195313 435.231496 
L 599.138048 435.231496 
L 599.138048 152.487851 
L 559.195313 152.487851 
z
" style="fill:#feb625;fill-opacity:0.75;stroke:#ffffff;stroke-linejoin:miter;"/>
   </g>
   <g id="patch_18">
    <path clip-path="url(#pec9a7ccec9)" d="M 599.138048 435.231496 
L 639.080782 435.231496 
L 639.080782 211.374736 
L 599.138048 211.374736 
z
" style="fill:#feb625;fill-opacity:0.75;stroke:#ffffff;stroke-linejoin:miter;"/>
   </g>
   <g id="patch_19">
    <path clip-path="url(#pec9a7ccec9)" d="M 639.080782 435.231496 
L 679.023516 435.231496 
L 679.023516 270.911108 
L 639.080782 270.911108 
z
" style="fill:#feb625;fill-opacity:0.75;stroke:#ffffff;stroke-linejoin:miter;"/>
   </g>
   <g id="patch_20">
    <path clip-path="url(#pec9a7ccec9)" d="M 679.023516 435.231496 
L 718.966251 435.231496 
L 718.966251 305.983444 
L 679.023516 305.983444 
z
" style="fill:#feb625;fill-opacity:0.75;stroke:#ffffff;stroke-linejoin:miter;"/>
   </g>
   <g id="patch_21">
    <path clip-path="url(#pec9a7ccec9)" d="M 718.966251 435.231496 
L 758.908985 435.231496 
L 758.908985 357.725964 
L 718.966251 357.725964 
z
" style="fill:#feb625;fill-opacity:0.75;stroke:#ffffff;stroke-linejoin:miter;"/>
   </g>
   <g id="patch_22">
    <path clip-path="url(#pec9a7ccec9)" d="M 758.908985 435.231496 
L 798.85172 435.231496 
L 798.85172 394.313771 
L 758.908985 394.313771 
z
" style="fill:#feb625;fill-opacity:0.75;stroke:#ffffff;stroke-linejoin:miter;"/>
   </g>
   <g id="patch_23">
    <path clip-path="url(#pec9a7ccec9)" d="M 798.85172 435.231496 
L 838.794454 435.231496 
L 838.794454 417.695328 
L 798.85172 417.695328 
z
" style="fill:#feb625;fill-opacity:0.75;stroke:#ffffff;stroke-linejoin:miter;"/>
   </g>
   <g id="patch_24">
    <path clip-path="url(#pec9a7ccec9)" d="M 838.794454 435.231496 
L 878.737189 435.231496 
L 878.737189 427.221148 
L 838.794454 427.221148 
z
" style="fill:#feb625;fill-opacity:0.75;stroke:#ffffff;stroke-linejoin:miter;"/>
   </g>
   <g id="patch_25">
    <path clip-path="url(#pec9a7ccec9)" d="M 878.737189 435.231496 
L 918.679923 435.231496 
L 918.679923 432.850041 
L 878.737189 432.850041 
z
" style="fill:#feb625;fill-opacity:0.75;stroke:#ffffff;stroke-linejoin:miter;"/>
   </g>
   <g id="patch_26">
    <path d="M 79.8825 435.231496 
L 79.8825 104.479885 
" style="fill:none;stroke:#262626;stroke-linecap:square;stroke-linejoin:miter;stroke-width:1.25;"/>
   </g>
   <g id="patch_27">
    <path d="M 79.8825 435.231496 
L 958.622657 435.231496 
" style="fill:none;stroke:#262626;stroke-linecap:square;stroke-linejoin:miter;stroke-width:1.25;"/>
   </g>
  </g>
 </g>
 <defs>
  <clipPath id="p66a6bfb4a3">
   <rect height="58.367931" width="878.740157" x="79.8825" y="7.2"/>
  </clipPath>
  <clipPath id="pec9a7ccec9">
   <rect height="330.751611" width="878.740157" x="79.8825" y="104.479885"/>
  </clipPath>
 </defs>
</svg>
