<?xml version="1.0" encoding="utf-8" standalone="no"?>
<!DOCTYPE svg PUBLIC "-//W3C//DTD SVG 1.1//EN"
  "http://www.w3.org/Graphics/SVG/1.1/DTD/svg11.dtd">
<!-- Created with matplotlib (https://matplotlib.org/) -->
<svg height="378.436122pt" version="1.1" viewBox="0 0 723.805118 378.436122" width="723.805118pt" xmlns="http://www.w3.org/2000/svg" xmlns:xlink="http://www.w3.org/1999/xlink">
 <defs>
  <style type="text/css">
*{stroke-linecap:butt;stroke-linejoin:round;}
  </style>
 </defs>
 <g id="figure_1">
  <g id="patch_1">
   <path d="M 0 378.436122 
L 723.805118 378.436122 
L 723.805118 0 
L 0 0 
z
" style="fill:none;"/>
  </g>
  <g id="axes_1">
   <g id="patch_2">
    <path d="M 57.55 328.223622 
L 716.605118 328.223622 
L 716.605118 7.2 
L 57.55 7.2 
z
" style="fill:none;"/>
   </g>
   <g id="matplotlib.axis_1">
    <g id="xtick_1">
     <g id="line2d_1">
      <defs>
       <path d="M 0 0 
L 0 6 
" id="m516689b775" style="stroke:#000000;stroke-width:1.25;"/>
      </defs>
      <g>
       <use style="stroke:#000000;stroke-width:1.25;" x="62.347095" xlink:href="#m516689b775" y="328.223622"/>
      </g>
     </g>
     <g id="text_1">
      <!-- 1.50 -->
      <defs>
       <path d="M 37.25 0 
L 28.46875 0 
L 28.46875 56 
Q 25.296875 52.984375 20.140625 49.953125 
Q 14.984375 46.921875 10.890625 45.40625 
L 10.890625 53.90625 
Q 18.265625 57.375 23.78125 62.296875 
Q 29.296875 67.234375 31.59375 71.875 
L 37.25 71.875 
z
" id="ArialMT-49"/>
       <path d="M 9.078125 0 
L 9.078125 10.015625 
L 19.09375 10.015625 
L 19.09375 0 
z
" id="ArialMT-46"/>
       <path d="M 4.15625 18.75 
L 13.375 19.53125 
Q 14.40625 12.796875 18.140625 9.390625 
Q 21.875 6 27.15625 6 
Q 33.5 6 37.890625 10.78125 
Q 42.28125 15.578125 42.28125 23.484375 
Q 42.28125 31 38.0625 35.34375 
Q 33.84375 39.703125 27 39.703125 
Q 22.75 39.703125 19.328125 37.765625 
Q 15.921875 35.84375 13.96875 32.765625 
L 5.71875 33.84375 
L 12.640625 70.609375 
L 48.25 70.609375 
L 48.25 62.203125 
L 19.671875 62.203125 
L 15.828125 42.96875 
Q 22.265625 47.46875 29.34375 47.46875 
Q 38.71875 47.46875 45.15625 40.96875 
Q 51.609375 34.46875 51.609375 24.265625 
Q 51.609375 14.546875 45.953125 7.46875 
Q 39.0625 -1.21875 27.15625 -1.21875 
Q 17.390625 -1.21875 11.203125 4.25 
Q 5.03125 9.71875 4.15625 18.75 
z
" id="ArialMT-53"/>
       <path d="M 4.15625 35.296875 
Q 4.15625 48 6.765625 55.734375 
Q 9.375 63.484375 14.515625 67.671875 
Q 19.671875 71.875 27.484375 71.875 
Q 33.25 71.875 37.59375 69.546875 
Q 41.9375 67.234375 44.765625 62.859375 
Q 47.609375 58.5 49.21875 52.21875 
Q 50.828125 45.953125 50.828125 35.296875 
Q 50.828125 22.703125 48.234375 14.96875 
Q 45.65625 7.234375 40.5 3 
Q 35.359375 -1.21875 27.484375 -1.21875 
Q 17.140625 -1.21875 11.234375 6.203125 
Q 4.15625 15.140625 4.15625 35.296875 
z
M 13.1875 35.296875 
Q 13.1875 17.671875 17.3125 11.828125 
Q 21.4375 6 27.484375 6 
Q 33.546875 6 37.671875 11.859375 
Q 41.796875 17.71875 41.796875 35.296875 
Q 41.796875 52.984375 37.671875 58.78125 
Q 33.546875 64.59375 27.390625 64.59375 
Q 21.34375 64.59375 17.71875 59.46875 
Q 13.1875 52.9375 13.1875 35.296875 
z
" id="ArialMT-48"/>
      </defs>
      <g transform="translate(46.778345 349.176122)scale(0.16 -0.16)">
       <use xlink:href="#ArialMT-49"/>
       <use x="55.615234" xlink:href="#ArialMT-46"/>
       <use x="83.398438" xlink:href="#ArialMT-53"/>
       <use x="139.013672" xlink:href="#ArialMT-48"/>
      </g>
     </g>
    </g>
    <g id="xtick_2">
     <g id="line2d_2">
      <g>
       <use style="stroke:#000000;stroke-width:1.25;" x="152.380841" xlink:href="#m516689b775" y="328.223622"/>
      </g>
     </g>
     <g id="text_2">
      <!-- 1.75 -->
      <defs>
       <path d="M 4.734375 62.203125 
L 4.734375 70.65625 
L 51.078125 70.65625 
L 51.078125 63.8125 
Q 44.234375 56.546875 37.515625 44.484375 
Q 30.8125 32.421875 27.15625 19.671875 
Q 24.515625 10.6875 23.78125 0 
L 14.75 0 
Q 14.890625 8.453125 18.0625 20.40625 
Q 21.234375 32.375 27.171875 43.484375 
Q 33.109375 54.59375 39.796875 62.203125 
z
" id="ArialMT-55"/>
      </defs>
      <g transform="translate(136.812091 349.176122)scale(0.16 -0.16)">
       <use xlink:href="#ArialMT-49"/>
       <use x="55.615234" xlink:href="#ArialMT-46"/>
       <use x="83.398438" xlink:href="#ArialMT-55"/>
       <use x="139.013672" xlink:href="#ArialMT-53"/>
      </g>
     </g>
    </g>
    <g id="xtick_3">
     <g id="line2d_3">
      <g>
       <use style="stroke:#000000;stroke-width:1.25;" x="242.414588" xlink:href="#m516689b775" y="328.223622"/>
      </g>
     </g>
     <g id="text_3">
      <!-- 2.00 -->
      <defs>
       <path d="M 50.34375 8.453125 
L 50.34375 0 
L 3.03125 0 
Q 2.9375 3.171875 4.046875 6.109375 
Q 5.859375 10.9375 9.828125 15.625 
Q 13.8125 20.3125 21.34375 26.46875 
Q 33.015625 36.03125 37.109375 41.625 
Q 41.21875 47.21875 41.21875 52.203125 
Q 41.21875 57.421875 37.46875 61 
Q 33.734375 64.59375 27.734375 64.59375 
Q 21.390625 64.59375 17.578125 60.78125 
Q 13.765625 56.984375 13.71875 50.25 
L 4.6875 51.171875 
Q 5.609375 61.28125 11.65625 66.578125 
Q 17.71875 71.875 27.9375 71.875 
Q 38.234375 71.875 44.234375 66.15625 
Q 50.25 60.453125 50.25 52 
Q 50.25 47.703125 48.484375 43.546875 
Q 46.734375 39.40625 42.65625 34.8125 
Q 38.578125 30.21875 29.109375 22.21875 
Q 21.1875 15.578125 18.9375 13.203125 
Q 16.703125 10.84375 15.234375 8.453125 
z
" id="ArialMT-50"/>
      </defs>
      <g transform="translate(226.845838 349.176122)scale(0.16 -0.16)">
       <use xlink:href="#ArialMT-50"/>
       <use x="55.615234" xlink:href="#ArialMT-46"/>
       <use x="83.398438" xlink:href="#ArialMT-48"/>
       <use x="139.013672" xlink:href="#ArialMT-48"/>
      </g>
     </g>
    </g>
    <g id="xtick_4">
     <g id="line2d_4">
      <g>
       <use style="stroke:#000000;stroke-width:1.25;" x="332.448334" xlink:href="#m516689b775" y="328.223622"/>
      </g>
     </g>
     <g id="text_4">
      <!-- 2.25 -->
      <g transform="translate(316.879584 349.176122)scale(0.16 -0.16)">
       <use xlink:href="#ArialMT-50"/>
       <use x="55.615234" xlink:href="#ArialMT-46"/>
       <use x="83.398438" xlink:href="#ArialMT-50"/>
       <use x="139.013672" xlink:href="#ArialMT-53"/>
      </g>
     </g>
    </g>
    <g id="xtick_5">
     <g id="line2d_5">
      <g>
       <use style="stroke:#000000;stroke-width:1.25;" x="422.48208" xlink:href="#m516689b775" y="328.223622"/>
      </g>
     </g>
     <g id="text_5">
      <!-- 2.50 -->
      <g transform="translate(406.91333 349.176122)scale(0.16 -0.16)">
       <use xlink:href="#ArialMT-50"/>
       <use x="55.615234" xlink:href="#ArialMT-46"/>
       <use x="83.398438" xlink:href="#ArialMT-53"/>
       <use x="139.013672" xlink:href="#ArialMT-48"/>
      </g>
     </g>
    </g>
    <g id="xtick_6">
     <g id="line2d_6">
      <g>
       <use style="stroke:#000000;stroke-width:1.25;" x="512.515826" xlink:href="#m516689b775" y="328.223622"/>
      </g>
     </g>
     <g id="text_6">
      <!-- 2.75 -->
      <g transform="translate(496.947076 349.176122)scale(0.16 -0.16)">
       <use xlink:href="#ArialMT-50"/>
       <use x="55.615234" xlink:href="#ArialMT-46"/>
       <use x="83.398438" xlink:href="#ArialMT-55"/>
       <use x="139.013672" xlink:href="#ArialMT-53"/>
      </g>
     </g>
    </g>
    <g id="xtick_7">
     <g id="line2d_7">
      <g>
       <use style="stroke:#000000;stroke-width:1.25;" x="602.549573" xlink:href="#m516689b775" y="328.223622"/>
      </g>
     </g>
     <g id="text_7">
      <!-- 3.00 -->
      <defs>
       <path d="M 4.203125 18.890625 
L 12.984375 20.0625 
Q 14.5 12.59375 18.140625 9.296875 
Q 21.78125 6 27 6 
Q 33.203125 6 37.46875 10.296875 
Q 41.75 14.59375 41.75 20.953125 
Q 41.75 27 37.796875 30.921875 
Q 33.84375 34.859375 27.734375 34.859375 
Q 25.25 34.859375 21.53125 33.890625 
L 22.515625 41.609375 
Q 23.390625 41.5 23.921875 41.5 
Q 29.546875 41.5 34.03125 44.421875 
Q 38.53125 47.359375 38.53125 53.46875 
Q 38.53125 58.296875 35.25 61.46875 
Q 31.984375 64.65625 26.8125 64.65625 
Q 21.6875 64.65625 18.265625 61.421875 
Q 14.84375 58.203125 13.875 51.765625 
L 5.078125 53.328125 
Q 6.6875 62.15625 12.390625 67.015625 
Q 18.109375 71.875 26.609375 71.875 
Q 32.46875 71.875 37.390625 69.359375 
Q 42.328125 66.84375 44.9375 62.5 
Q 47.5625 58.15625 47.5625 53.265625 
Q 47.5625 48.640625 45.0625 44.828125 
Q 42.578125 41.015625 37.703125 38.765625 
Q 44.046875 37.3125 47.5625 32.6875 
Q 51.078125 28.078125 51.078125 21.140625 
Q 51.078125 11.765625 44.234375 5.25 
Q 37.40625 -1.265625 26.953125 -1.265625 
Q 17.53125 -1.265625 11.296875 4.34375 
Q 5.078125 9.96875 4.203125 18.890625 
z
" id="ArialMT-51"/>
      </defs>
      <g transform="translate(586.980823 349.176122)scale(0.16 -0.16)">
       <use xlink:href="#ArialMT-51"/>
       <use x="55.615234" xlink:href="#ArialMT-46"/>
       <use x="83.398438" xlink:href="#ArialMT-48"/>
       <use x="139.013672" xlink:href="#ArialMT-48"/>
      </g>
     </g>
    </g>
    <g id="xtick_8">
     <g id="line2d_8">
      <g>
       <use style="stroke:#000000;stroke-width:1.25;" x="692.583319" xlink:href="#m516689b775" y="328.223622"/>
      </g>
     </g>
     <g id="text_8">
      <!-- 3.25 -->
      <g transform="translate(677.014569 349.176122)scale(0.16 -0.16)">
       <use xlink:href="#ArialMT-51"/>
       <use x="55.615234" xlink:href="#ArialMT-46"/>
       <use x="83.398438" xlink:href="#ArialMT-50"/>
       <use x="139.013672" xlink:href="#ArialMT-53"/>
      </g>
     </g>
    </g>
    <g id="text_9">
     <!-- $S_0$ -->
     <defs>
      <path d="M 60.296875 70.515625 
L 58.40625 60.890625 
Q 53.46875 63.53125 48.609375 64.875 
Q 43.75 66.21875 39.203125 66.21875 
Q 30.375 66.21875 25.140625 62.359375 
Q 19.921875 58.5 19.921875 52.09375 
Q 19.921875 48.578125 21.84375 46.703125 
Q 23.78125 44.828125 31.78125 42.671875 
L 37.703125 41.21875 
Q 47.703125 38.625 51.609375 34.640625 
Q 55.515625 30.671875 55.515625 23.484375 
Q 55.515625 12.453125 46.84375 5.515625 
Q 38.1875 -1.421875 24.03125 -1.421875 
Q 18.21875 -1.421875 12.359375 -0.265625 
Q 6.5 0.875 0.59375 3.21875 
L 2.59375 13.375 
Q 8.015625 10.015625 13.453125 8.296875 
Q 18.890625 6.59375 24.3125 6.59375 
Q 33.546875 6.59375 39.109375 10.6875 
Q 44.671875 14.796875 44.671875 21.390625 
Q 44.671875 25.78125 42.453125 28.046875 
Q 40.234375 30.328125 32.90625 32.171875 
L 27 33.6875 
Q 16.890625 36.328125 13.203125 39.765625 
Q 9.515625 43.21875 9.515625 49.421875 
Q 9.515625 60.296875 17.890625 67.25 
Q 26.265625 74.21875 39.703125 74.21875 
Q 44.921875 74.21875 50.046875 73.28125 
Q 55.171875 72.359375 60.296875 70.515625 
z
" id="DejaVuSans-Oblique-83"/>
      <path d="M 31.78125 66.40625 
Q 24.171875 66.40625 20.328125 58.90625 
Q 16.5 51.421875 16.5 36.375 
Q 16.5 21.390625 20.328125 13.890625 
Q 24.171875 6.390625 31.78125 6.390625 
Q 39.453125 6.390625 43.28125 13.890625 
Q 47.125 21.390625 47.125 36.375 
Q 47.125 51.421875 43.28125 58.90625 
Q 39.453125 66.40625 31.78125 66.40625 
z
M 31.78125 74.21875 
Q 44.046875 74.21875 50.515625 64.515625 
Q 56.984375 54.828125 56.984375 36.375 
Q 56.984375 17.96875 50.515625 8.265625 
Q 44.046875 -1.421875 31.78125 -1.421875 
Q 19.53125 -1.421875 13.0625 8.265625 
Q 6.59375 17.96875 6.59375 36.375 
Q 6.59375 54.828125 13.0625 64.515625 
Q 19.53125 74.21875 31.78125 74.21875 
z
" id="DejaVuSans-48"/>
     </defs>
     <g transform="translate(378.197559 368.078622)scale(0.16 -0.16)">
      <use transform="translate(0 0.78125)" xlink:href="#DejaVuSans-Oblique-83"/>
      <use transform="translate(63.476562 -15.625)scale(0.7)" xlink:href="#DejaVuSans-48"/>
     </g>
    </g>
   </g>
   <g id="matplotlib.axis_2">
    <g id="ytick_1">
     <g id="line2d_9">
      <defs>
       <path d="M 0 0 
L -6 0 
" id="mcdc1ae35ca" style="stroke:#000000;stroke-width:1.25;"/>
      </defs>
      <g>
       <use style="stroke:#000000;stroke-width:1.25;" x="57.55" xlink:href="#mcdc1ae35ca" y="305.223677"/>
      </g>
     </g>
     <g id="text_10">
      <!-- 2.2 -->
      <g transform="translate(25.81 310.949927)scale(0.16 -0.16)">
       <use xlink:href="#ArialMT-50"/>
       <use x="55.615234" xlink:href="#ArialMT-46"/>
       <use x="83.398438" xlink:href="#ArialMT-50"/>
      </g>
     </g>
    </g>
    <g id="ytick_2">
     <g id="line2d_10">
      <g>
       <use style="stroke:#000000;stroke-width:1.25;" x="57.55" xlink:href="#mcdc1ae35ca" y="267.066543"/>
      </g>
     </g>
     <g id="text_11">
      <!-- 2.4 -->
      <defs>
       <path d="M 32.328125 0 
L 32.328125 17.140625 
L 1.265625 17.140625 
L 1.265625 25.203125 
L 33.9375 71.578125 
L 41.109375 71.578125 
L 41.109375 25.203125 
L 50.78125 25.203125 
L 50.78125 17.140625 
L 41.109375 17.140625 
L 41.109375 0 
z
M 32.328125 25.203125 
L 32.328125 57.46875 
L 9.90625 25.203125 
z
" id="ArialMT-52"/>
      </defs>
      <g transform="translate(25.81 272.792793)scale(0.16 -0.16)">
       <use xlink:href="#ArialMT-50"/>
       <use x="55.615234" xlink:href="#ArialMT-46"/>
       <use x="83.398438" xlink:href="#ArialMT-52"/>
      </g>
     </g>
    </g>
    <g id="ytick_3">
     <g id="line2d_11">
      <g>
       <use style="stroke:#000000;stroke-width:1.25;" x="57.55" xlink:href="#mcdc1ae35ca" y="228.909408"/>
      </g>
     </g>
     <g id="text_12">
      <!-- 2.6 -->
      <defs>
       <path d="M 49.75 54.046875 
L 41.015625 53.375 
Q 39.84375 58.546875 37.703125 60.890625 
Q 34.125 64.65625 28.90625 64.65625 
Q 24.703125 64.65625 21.53125 62.3125 
Q 17.390625 59.28125 14.984375 53.46875 
Q 12.59375 47.65625 12.5 36.921875 
Q 15.671875 41.75 20.265625 44.09375 
Q 24.859375 46.4375 29.890625 46.4375 
Q 38.671875 46.4375 44.84375 39.96875 
Q 51.03125 33.5 51.03125 23.25 
Q 51.03125 16.5 48.125 10.71875 
Q 45.21875 4.9375 40.140625 1.859375 
Q 35.0625 -1.21875 28.609375 -1.21875 
Q 17.625 -1.21875 10.6875 6.859375 
Q 3.765625 14.9375 3.765625 33.5 
Q 3.765625 54.25 11.421875 63.671875 
Q 18.109375 71.875 29.4375 71.875 
Q 37.890625 71.875 43.28125 67.140625 
Q 48.6875 62.40625 49.75 54.046875 
z
M 13.875 23.1875 
Q 13.875 18.65625 15.796875 14.5 
Q 17.71875 10.359375 21.1875 8.171875 
Q 24.65625 6 28.46875 6 
Q 34.03125 6 38.03125 10.484375 
Q 42.046875 14.984375 42.046875 22.703125 
Q 42.046875 30.125 38.078125 34.390625 
Q 34.125 38.671875 28.125 38.671875 
Q 22.171875 38.671875 18.015625 34.390625 
Q 13.875 30.125 13.875 23.1875 
z
" id="ArialMT-54"/>
      </defs>
      <g transform="translate(25.81 234.635658)scale(0.16 -0.16)">
       <use xlink:href="#ArialMT-50"/>
       <use x="55.615234" xlink:href="#ArialMT-46"/>
       <use x="83.398438" xlink:href="#ArialMT-54"/>
      </g>
     </g>
    </g>
    <g id="ytick_4">
     <g id="line2d_12">
      <g>
       <use style="stroke:#000000;stroke-width:1.25;" x="57.55" xlink:href="#mcdc1ae35ca" y="190.752274"/>
      </g>
     </g>
     <g id="text_13">
      <!-- 2.8 -->
      <defs>
       <path d="M 17.671875 38.8125 
Q 12.203125 40.828125 9.5625 44.53125 
Q 6.9375 48.25 6.9375 53.421875 
Q 6.9375 61.234375 12.546875 66.546875 
Q 18.171875 71.875 27.484375 71.875 
Q 36.859375 71.875 42.578125 66.421875 
Q 48.296875 60.984375 48.296875 53.171875 
Q 48.296875 48.1875 45.671875 44.5 
Q 43.0625 40.828125 37.75 38.8125 
Q 44.34375 36.671875 47.78125 31.875 
Q 51.21875 27.09375 51.21875 20.453125 
Q 51.21875 11.28125 44.71875 5.03125 
Q 38.234375 -1.21875 27.640625 -1.21875 
Q 17.046875 -1.21875 10.546875 5.046875 
Q 4.046875 11.328125 4.046875 20.703125 
Q 4.046875 27.6875 7.59375 32.390625 
Q 11.140625 37.109375 17.671875 38.8125 
z
M 15.921875 53.71875 
Q 15.921875 48.640625 19.1875 45.40625 
Q 22.46875 42.1875 27.6875 42.1875 
Q 32.765625 42.1875 36.015625 45.375 
Q 39.265625 48.578125 39.265625 53.21875 
Q 39.265625 58.0625 35.90625 61.359375 
Q 32.5625 64.65625 27.59375 64.65625 
Q 22.5625 64.65625 19.234375 61.421875 
Q 15.921875 58.203125 15.921875 53.71875 
z
M 13.09375 20.65625 
Q 13.09375 16.890625 14.875 13.375 
Q 16.65625 9.859375 20.171875 7.921875 
Q 23.6875 6 27.734375 6 
Q 34.03125 6 38.125 10.046875 
Q 42.234375 14.109375 42.234375 20.359375 
Q 42.234375 26.703125 38.015625 30.859375 
Q 33.796875 35.015625 27.4375 35.015625 
Q 21.234375 35.015625 17.15625 30.90625 
Q 13.09375 26.8125 13.09375 20.65625 
z
" id="ArialMT-56"/>
      </defs>
      <g transform="translate(25.81 196.478524)scale(0.16 -0.16)">
       <use xlink:href="#ArialMT-50"/>
       <use x="55.615234" xlink:href="#ArialMT-46"/>
       <use x="83.398438" xlink:href="#ArialMT-56"/>
      </g>
     </g>
    </g>
    <g id="ytick_5">
     <g id="line2d_13">
      <g>
       <use style="stroke:#000000;stroke-width:1.25;" x="57.55" xlink:href="#mcdc1ae35ca" y="152.59514"/>
      </g>
     </g>
     <g id="text_14">
      <!-- 3.0 -->
      <g transform="translate(25.81 158.32139)scale(0.16 -0.16)">
       <use xlink:href="#ArialMT-51"/>
       <use x="55.615234" xlink:href="#ArialMT-46"/>
       <use x="83.398438" xlink:href="#ArialMT-48"/>
      </g>
     </g>
    </g>
    <g id="ytick_6">
     <g id="line2d_14">
      <g>
       <use style="stroke:#000000;stroke-width:1.25;" x="57.55" xlink:href="#mcdc1ae35ca" y="114.438006"/>
      </g>
     </g>
     <g id="text_15">
      <!-- 3.2 -->
      <g transform="translate(25.81 120.164256)scale(0.16 -0.16)">
       <use xlink:href="#ArialMT-51"/>
       <use x="55.615234" xlink:href="#ArialMT-46"/>
       <use x="83.398438" xlink:href="#ArialMT-50"/>
      </g>
     </g>
    </g>
    <g id="ytick_7">
     <g id="line2d_15">
      <g>
       <use style="stroke:#000000;stroke-width:1.25;" x="57.55" xlink:href="#mcdc1ae35ca" y="76.280871"/>
      </g>
     </g>
     <g id="text_16">
      <!-- 3.4 -->
      <g transform="translate(25.81 82.007121)scale(0.16 -0.16)">
       <use xlink:href="#ArialMT-51"/>
       <use x="55.615234" xlink:href="#ArialMT-46"/>
       <use x="83.398438" xlink:href="#ArialMT-52"/>
      </g>
     </g>
    </g>
    <g id="ytick_8">
     <g id="line2d_16">
      <g>
       <use style="stroke:#000000;stroke-width:1.25;" x="57.55" xlink:href="#mcdc1ae35ca" y="38.123737"/>
      </g>
     </g>
     <g id="text_17">
      <!-- 3.6 -->
      <g transform="translate(25.81 43.849987)scale(0.16 -0.16)">
       <use xlink:href="#ArialMT-51"/>
       <use x="55.615234" xlink:href="#ArialMT-46"/>
       <use x="83.398438" xlink:href="#ArialMT-54"/>
      </g>
     </g>
    </g>
    <g id="text_18">
     <!-- $R_0$ -->
     <defs>
      <path d="M 25.203125 64.796875 
L 20.21875 38.921875 
L 32.90625 38.921875 
Q 40.375 38.921875 44.984375 43.046875 
Q 49.609375 47.171875 49.609375 53.8125 
Q 49.609375 59.125 46.5 61.953125 
Q 43.40625 64.796875 37.59375 64.796875 
z
M 43.3125 35.015625 
Q 46.4375 34.28125 48.515625 31.390625 
Q 50.59375 28.515625 53.328125 19.921875 
L 59.515625 0 
L 49.125 0 
L 43.40625 18.703125 
Q 41.21875 25.921875 38.328125 28.359375 
Q 35.453125 30.8125 29.5 30.8125 
L 18.609375 30.8125 
L 12.59375 0 
L 2.6875 0 
L 16.890625 72.90625 
L 39.109375 72.90625 
Q 49.21875 72.90625 54.609375 68.328125 
Q 60.015625 63.765625 60.015625 55.171875 
Q 60.015625 47.5625 55.421875 41.984375 
Q 50.828125 36.421875 43.3125 35.015625 
z
" id="DejaVuSans-Oblique-82"/>
     </defs>
     <g transform="translate(18.6525 177.071811)rotate(-90)scale(0.16 -0.16)">
      <use transform="translate(0 0.09375)" xlink:href="#DejaVuSans-Oblique-82"/>
      <use transform="translate(69.482422 -16.3125)scale(0.7)" xlink:href="#DejaVuSans-48"/>
     </g>
    </g>
   </g>
   <g id="PathCollection_1">
    <defs>
     <path d="M 0 3 
C 0.795609 3 1.55874 2.683901 2.12132 2.12132 
C 2.683901 1.55874 3 0.795609 3 0 
C 3 -0.795609 2.683901 -1.55874 2.12132 -2.12132 
C 1.55874 -2.683901 0.795609 -3 0 -3 
C -0.795609 -3 -1.55874 -2.683901 -2.12132 -2.12132 
C -2.683901 -1.55874 -3 -0.795609 -3 0 
C -3 0.795609 -2.683901 1.55874 -2.12132 2.12132 
C -1.55874 2.683901 -0.795609 3 0 3 
z
" id="C0_0_9e65f98bf6"/>
    </defs>
    <g clip-path="url(#pb137a725cf)">
     <use style="fill:#4c72b0;stroke:#ffffff;stroke-width:0.48;" x="365.953538" xlink:href="#C0_0_9e65f98bf6" y="189.307392"/>
    </g>
    <g clip-path="url(#pb137a725cf)">
     <use style="fill:#4c72b0;stroke:#ffffff;stroke-width:0.48;" x="464.087918" xlink:href="#C0_0_9e65f98bf6" y="206.112738"/>
    </g>
    <g clip-path="url(#pb137a725cf)">
     <use style="fill:#4c72b0;stroke:#ffffff;stroke-width:0.48;" x="265.774861" xlink:href="#C0_0_9e65f98bf6" y="113.483352"/>
    </g>
    <g clip-path="url(#pb137a725cf)">
     <use style="fill:#4c72b0;stroke:#ffffff;stroke-width:0.48;" x="267.465843" xlink:href="#C0_0_9e65f98bf6" y="255.35729"/>
    </g>
    <g clip-path="url(#pb137a725cf)">
     <use style="fill:#4c72b0;stroke:#ffffff;stroke-width:0.48;" x="399.169762" xlink:href="#C0_0_9e65f98bf6" y="153.644337"/>
    </g>
    <g clip-path="url(#pb137a725cf)">
     <use style="fill:#4c72b0;stroke:#ffffff;stroke-width:0.48;" x="355.796799" xlink:href="#C0_0_9e65f98bf6" y="139.198826"/>
    </g>
    <g clip-path="url(#pb137a725cf)">
     <use style="fill:#4c72b0;stroke:#ffffff;stroke-width:0.48;" x="355.836679" xlink:href="#C0_0_9e65f98bf6" y="277.673319"/>
    </g>
    <g clip-path="url(#pb137a725cf)">
     <use style="fill:#4c72b0;stroke:#ffffff;stroke-width:0.48;" x="516.081973" xlink:href="#C0_0_9e65f98bf6" y="182.551849"/>
    </g>
    <g clip-path="url(#pb137a725cf)">
     <use style="fill:#4c72b0;stroke:#ffffff;stroke-width:0.48;" x="340.462417" xlink:href="#C0_0_9e65f98bf6" y="186.3577"/>
    </g>
    <g clip-path="url(#pb137a725cf)">
     <use style="fill:#dd8452;stroke:#ffffff;stroke-width:0.48;" x="684.844811" xlink:href="#C0_0_9e65f98bf6" y="146.341765"/>
    </g>
    <g clip-path="url(#pb137a725cf)">
     <use style="fill:#4c72b0;stroke:#ffffff;stroke-width:0.48;" x="278.945372" xlink:href="#C0_0_9e65f98bf6" y="311.670436"/>
    </g>
    <g clip-path="url(#pb137a725cf)">
     <use style="fill:#4c72b0;stroke:#ffffff;stroke-width:0.48;" x="360.384725" xlink:href="#C0_0_9e65f98bf6" y="200.149476"/>
    </g>
    <g clip-path="url(#pb137a725cf)">
     <use style="fill:#4c72b0;stroke:#ffffff;stroke-width:0.48;" x="155.474071" xlink:href="#C0_0_9e65f98bf6" y="70.2575"/>
    </g>
    <g clip-path="url(#pb137a725cf)">
     <use style="fill:#4c72b0;stroke:#ffffff;stroke-width:0.48;" x="524.867376" xlink:href="#C0_0_9e65f98bf6" y="118.557719"/>
    </g>
    <g clip-path="url(#pb137a725cf)">
     <use style="fill:#4c72b0;stroke:#ffffff;stroke-width:0.48;" x="537.478325" xlink:href="#C0_0_9e65f98bf6" y="180.100984"/>
    </g>
    <g clip-path="url(#pb137a725cf)">
     <use style="fill:#4c72b0;stroke:#ffffff;stroke-width:0.48;" x="383.332183" xlink:href="#C0_0_9e65f98bf6" y="211.868183"/>
    </g>
    <g clip-path="url(#pb137a725cf)">
     <use style="fill:#4c72b0;stroke:#ffffff;stroke-width:0.48;" x="478.556006" xlink:href="#C0_0_9e65f98bf6" y="197.24993"/>
    </g>
    <g clip-path="url(#pb137a725cf)">
     <use style="fill:#4c72b0;stroke:#ffffff;stroke-width:0.48;" x="312.21375" xlink:href="#C0_0_9e65f98bf6" y="219.098797"/>
    </g>
    <g clip-path="url(#pb137a725cf)">
     <use style="fill:#4c72b0;stroke:#ffffff;stroke-width:0.48;" x="508.816209" xlink:href="#C0_0_9e65f98bf6" y="187.356916"/>
    </g>
    <g clip-path="url(#pb137a725cf)">
     <use style="fill:#4c72b0;stroke:#ffffff;stroke-width:0.48;" x="229.831211" xlink:href="#C0_0_9e65f98bf6" y="139.505675"/>
    </g>
    <g clip-path="url(#pb137a725cf)">
     <use style="fill:#4c72b0;stroke:#ffffff;stroke-width:0.48;" x="311.963849" xlink:href="#C0_0_9e65f98bf6" y="160.544912"/>
    </g>
    <g clip-path="url(#pb137a725cf)">
     <use style="fill:#4c72b0;stroke:#ffffff;stroke-width:0.48;" x="219.042368" xlink:href="#C0_0_9e65f98bf6" y="166.146073"/>
    </g>
    <g clip-path="url(#pb137a725cf)">
     <use style="fill:#4c72b0;stroke:#ffffff;stroke-width:0.48;" x="570.634111" xlink:href="#C0_0_9e65f98bf6" y="54.273561"/>
    </g>
    <g clip-path="url(#pb137a725cf)">
     <use style="fill:#4c72b0;stroke:#ffffff;stroke-width:0.48;" x="243.857782" xlink:href="#C0_0_9e65f98bf6" y="166.783116"/>
    </g>
    <g clip-path="url(#pb137a725cf)">
     <use style="fill:#4c72b0;stroke:#ffffff;stroke-width:0.48;" x="503.310211" xlink:href="#C0_0_9e65f98bf6" y="202.551486"/>
    </g>
    <g clip-path="url(#pb137a725cf)">
     <use style="fill:#4c72b0;stroke:#ffffff;stroke-width:0.48;" x="335.606815" xlink:href="#C0_0_9e65f98bf6" y="147.702138"/>
    </g>
    <g clip-path="url(#pb137a725cf)">
     <use style="fill:#4c72b0;stroke:#ffffff;stroke-width:0.48;" x="406.674177" xlink:href="#C0_0_9e65f98bf6" y="110.778004"/>
    </g>
    <g clip-path="url(#pb137a725cf)">
     <use style="fill:#4c72b0;stroke:#ffffff;stroke-width:0.48;" x="254.300461" xlink:href="#C0_0_9e65f98bf6" y="208.021784"/>
    </g>
    <g clip-path="url(#pb137a725cf)">
     <use style="fill:#4c72b0;stroke:#ffffff;stroke-width:0.48;" x="471.765957" xlink:href="#C0_0_9e65f98bf6" y="126.420058"/>
    </g>
    <g clip-path="url(#pb137a725cf)">
     <use style="fill:#4c72b0;stroke:#ffffff;stroke-width:0.48;" x="370.686206" xlink:href="#C0_0_9e65f98bf6" y="159.874406"/>
    </g>
    <g clip-path="url(#pb137a725cf)">
     <use style="fill:#4c72b0;stroke:#ffffff;stroke-width:0.48;" x="281.336164" xlink:href="#C0_0_9e65f98bf6" y="84.868353"/>
    </g>
    <g clip-path="url(#pb137a725cf)">
     <use style="fill:#dd8452;stroke:#ffffff;stroke-width:0.48;" x="553.709737" xlink:href="#C0_0_9e65f98bf6" y="244.395138"/>
    </g>
    <g clip-path="url(#pb137a725cf)">
     <use style="fill:#4c72b0;stroke:#ffffff;stroke-width:0.48;" x="440.027128" xlink:href="#C0_0_9e65f98bf6" y="170.577287"/>
    </g>
    <g clip-path="url(#pb137a725cf)">
     <use style="fill:#4c72b0;stroke:#ffffff;stroke-width:0.48;" x="279.565861" xlink:href="#C0_0_9e65f98bf6" y="134.43027"/>
    </g>
    <g clip-path="url(#pb137a725cf)">
     <use style="fill:#4c72b0;stroke:#ffffff;stroke-width:0.48;" x="375.256972" xlink:href="#C0_0_9e65f98bf6" y="108.615926"/>
    </g>
    <g clip-path="url(#pb137a725cf)">
     <use style="fill:#4c72b0;stroke:#ffffff;stroke-width:0.48;" x="525.771273" xlink:href="#C0_0_9e65f98bf6" y="188.812132"/>
    </g>
    <g clip-path="url(#pb137a725cf)">
     <use style="fill:#4c72b0;stroke:#ffffff;stroke-width:0.48;" x="438.648649" xlink:href="#C0_0_9e65f98bf6" y="160.124928"/>
    </g>
    <g clip-path="url(#pb137a725cf)">
     <use style="fill:#4c72b0;stroke:#ffffff;stroke-width:0.48;" x="418.234494" xlink:href="#C0_0_9e65f98bf6" y="100.886535"/>
    </g>
    <g clip-path="url(#pb137a725cf)">
     <use style="fill:#4c72b0;stroke:#ffffff;stroke-width:0.48;" x="502.069045" xlink:href="#C0_0_9e65f98bf6" y="205.111566"/>
    </g>
    <g clip-path="url(#pb137a725cf)">
     <use style="fill:#4c72b0;stroke:#ffffff;stroke-width:0.48;" x="157.64532" xlink:href="#C0_0_9e65f98bf6" y="106.585603"/>
    </g>
    <g clip-path="url(#pb137a725cf)">
     <use style="fill:#4c72b0;stroke:#ffffff;stroke-width:0.48;" x="316.524708" xlink:href="#C0_0_9e65f98bf6" y="263.508393"/>
    </g>
    <g clip-path="url(#pb137a725cf)">
     <use style="fill:#4c72b0;stroke:#ffffff;stroke-width:0.48;" x="97.285627" xlink:href="#C0_0_9e65f98bf6" y="213.969888"/>
    </g>
    <g clip-path="url(#pb137a725cf)">
     <use style="fill:#4c72b0;stroke:#ffffff;stroke-width:0.48;" x="351.442762" xlink:href="#C0_0_9e65f98bf6" y="128.099443"/>
    </g>
    <g clip-path="url(#pb137a725cf)">
     <use style="fill:#4c72b0;stroke:#ffffff;stroke-width:0.48;" x="511.991314" xlink:href="#C0_0_9e65f98bf6" y="23.753187"/>
    </g>
    <g clip-path="url(#pb137a725cf)">
     <use style="fill:#dd8452;stroke:#ffffff;stroke-width:0.48;" x="581.042244" xlink:href="#C0_0_9e65f98bf6" y="271.312693"/>
    </g>
    <g clip-path="url(#pb137a725cf)">
     <use style="fill:#4c72b0;stroke:#ffffff;stroke-width:0.48;" x="559.150134" xlink:href="#C0_0_9e65f98bf6" y="152.444664"/>
    </g>
    <g clip-path="url(#pb137a725cf)">
     <use style="fill:#4c72b0;stroke:#ffffff;stroke-width:0.48;" x="231.980957" xlink:href="#C0_0_9e65f98bf6" y="174.944541"/>
    </g>
    <g clip-path="url(#pb137a725cf)">
     <use style="fill:#4c72b0;stroke:#ffffff;stroke-width:0.48;" x="333.526107" xlink:href="#C0_0_9e65f98bf6" y="151.207888"/>
    </g>
    <g clip-path="url(#pb137a725cf)">
     <use style="fill:#4c72b0;stroke:#ffffff;stroke-width:0.48;" x="297.607477" xlink:href="#C0_0_9e65f98bf6" y="148.09256"/>
    </g>
    <g clip-path="url(#pb137a725cf)">
     <use style="fill:#dd8452;stroke:#ffffff;stroke-width:0.48;" x="576.380591" xlink:href="#C0_0_9e65f98bf6" y="172.089369"/>
    </g>
    <g clip-path="url(#pb137a725cf)">
     <use style="fill:#4c72b0;stroke:#ffffff;stroke-width:0.48;" x="268.171205" xlink:href="#C0_0_9e65f98bf6" y="91.583523"/>
    </g>
    <g clip-path="url(#pb137a725cf)">
     <use style="fill:#4c72b0;stroke:#ffffff;stroke-width:0.48;" x="242.143629" xlink:href="#C0_0_9e65f98bf6" y="179.718839"/>
    </g>
    <g clip-path="url(#pb137a725cf)">
     <use style="fill:#4c72b0;stroke:#ffffff;stroke-width:0.48;" x="300.844137" xlink:href="#C0_0_9e65f98bf6" y="224.983995"/>
    </g>
    <g clip-path="url(#pb137a725cf)">
     <use style="fill:#4c72b0;stroke:#ffffff;stroke-width:0.48;" x="256.2733" xlink:href="#C0_0_9e65f98bf6" y="83.023368"/>
    </g>
    <g clip-path="url(#pb137a725cf)">
     <use style="fill:#4c72b0;stroke:#ffffff;stroke-width:0.48;" x="325.063774" xlink:href="#C0_0_9e65f98bf6" y="93.991207"/>
    </g>
    <g clip-path="url(#pb137a725cf)">
     <use style="fill:#4c72b0;stroke:#ffffff;stroke-width:0.48;" x="281.920474" xlink:href="#C0_0_9e65f98bf6" y="203.848156"/>
    </g>
    <g clip-path="url(#pb137a725cf)">
     <use style="fill:#4c72b0;stroke:#ffffff;stroke-width:0.48;" x="278.300353" xlink:href="#C0_0_9e65f98bf6" y="235.0966"/>
    </g>
    <g clip-path="url(#pb137a725cf)">
     <use style="fill:#4c72b0;stroke:#ffffff;stroke-width:0.48;" x="261.875704" xlink:href="#C0_0_9e65f98bf6" y="212.366157"/>
    </g>
    <g clip-path="url(#pb137a725cf)">
     <use style="fill:#4c72b0;stroke:#ffffff;stroke-width:0.48;" x="379.090229" xlink:href="#C0_0_9e65f98bf6" y="149.934567"/>
    </g>
    <g clip-path="url(#pb137a725cf)">
     <use style="fill:#4c72b0;stroke:#ffffff;stroke-width:0.48;" x="483.430159" xlink:href="#C0_0_9e65f98bf6" y="113.780803"/>
    </g>
    <g clip-path="url(#pb137a725cf)">
     <use style="fill:#4c72b0;stroke:#ffffff;stroke-width:0.48;" x="538.262265" xlink:href="#C0_0_9e65f98bf6" y="171.75372"/>
    </g>
    <g clip-path="url(#pb137a725cf)">
     <use style="fill:#4c72b0;stroke:#ffffff;stroke-width:0.48;" x="328.68588" xlink:href="#C0_0_9e65f98bf6" y="141.664914"/>
    </g>
    <g clip-path="url(#pb137a725cf)">
     <use style="fill:#4c72b0;stroke:#ffffff;stroke-width:0.48;" x="207.751999" xlink:href="#C0_0_9e65f98bf6" y="163.263437"/>
    </g>
    <g clip-path="url(#pb137a725cf)">
     <use style="fill:#4c72b0;stroke:#ffffff;stroke-width:0.48;" x="376.938602" xlink:href="#C0_0_9e65f98bf6" y="90.122658"/>
    </g>
    <g clip-path="url(#pb137a725cf)">
     <use style="fill:#4c72b0;stroke:#ffffff;stroke-width:0.48;" x="303.502607" xlink:href="#C0_0_9e65f98bf6" y="87.228443"/>
    </g>
    <g clip-path="url(#pb137a725cf)">
     <use style="fill:#4c72b0;stroke:#ffffff;stroke-width:0.48;" x="444.605549" xlink:href="#C0_0_9e65f98bf6" y="148.418669"/>
    </g>
    <g clip-path="url(#pb137a725cf)">
     <use style="fill:#4c72b0;stroke:#ffffff;stroke-width:0.48;" x="391.617655" xlink:href="#C0_0_9e65f98bf6" y="136.785144"/>
    </g>
    <g clip-path="url(#pb137a725cf)">
     <use style="fill:#4c72b0;stroke:#ffffff;stroke-width:0.48;" x="346.439426" xlink:href="#C0_0_9e65f98bf6" y="286.54254"/>
    </g>
    <g clip-path="url(#pb137a725cf)">
     <use style="fill:#4c72b0;stroke:#ffffff;stroke-width:0.48;" x="293.222769" xlink:href="#C0_0_9e65f98bf6" y="227.21968"/>
    </g>
    <g clip-path="url(#pb137a725cf)">
     <use style="fill:#4c72b0;stroke:#ffffff;stroke-width:0.48;" x="235.988966" xlink:href="#C0_0_9e65f98bf6" y="138.179678"/>
    </g>
    <g clip-path="url(#pb137a725cf)">
     <use style="fill:#4c72b0;stroke:#ffffff;stroke-width:0.48;" x="343.765218" xlink:href="#C0_0_9e65f98bf6" y="228.419274"/>
    </g>
    <g clip-path="url(#pb137a725cf)">
     <use style="fill:#4c72b0;stroke:#ffffff;stroke-width:0.48;" x="223.243949" xlink:href="#C0_0_9e65f98bf6" y="155.035067"/>
    </g>
    <g clip-path="url(#pb137a725cf)">
     <use style="fill:#4c72b0;stroke:#ffffff;stroke-width:0.48;" x="213.190312" xlink:href="#C0_0_9e65f98bf6" y="77.38466"/>
    </g>
    <g clip-path="url(#pb137a725cf)">
     <use style="fill:#4c72b0;stroke:#ffffff;stroke-width:0.48;" x="91.152634" xlink:href="#C0_0_9e65f98bf6" y="115.081294"/>
    </g>
    <g clip-path="url(#pb137a725cf)">
     <use style="fill:#4c72b0;stroke:#ffffff;stroke-width:0.48;" x="249.500724" xlink:href="#C0_0_9e65f98bf6" y="133.852645"/>
    </g>
    <g clip-path="url(#pb137a725cf)">
     <use style="fill:#4c72b0;stroke:#ffffff;stroke-width:0.48;" x="331.936767" xlink:href="#C0_0_9e65f98bf6" y="181.542899"/>
    </g>
    <g clip-path="url(#pb137a725cf)">
     <use style="fill:#4c72b0;stroke:#ffffff;stroke-width:0.48;" x="320.175091" xlink:href="#C0_0_9e65f98bf6" y="155.762712"/>
    </g>
    <g clip-path="url(#pb137a725cf)">
     <use style="fill:#4c72b0;stroke:#ffffff;stroke-width:0.48;" x="328.484381" xlink:href="#C0_0_9e65f98bf6" y="214.680939"/>
    </g>
    <g clip-path="url(#pb137a725cf)">
     <use style="fill:#4c72b0;stroke:#ffffff;stroke-width:0.48;" x="234.681777" xlink:href="#C0_0_9e65f98bf6" y="126.826712"/>
    </g>
    <g clip-path="url(#pb137a725cf)">
     <use style="fill:#dd8452;stroke:#ffffff;stroke-width:0.48;" x="684.305692" xlink:href="#C0_0_9e65f98bf6" y="112.15581"/>
    </g>
    <g clip-path="url(#pb137a725cf)">
     <use style="fill:#4c72b0;stroke:#ffffff;stroke-width:0.48;" x="448.31157" xlink:href="#C0_0_9e65f98bf6" y="216.505076"/>
    </g>
    <g clip-path="url(#pb137a725cf)">
     <use style="fill:#4c72b0;stroke:#ffffff;stroke-width:0.48;" x="379.694296" xlink:href="#C0_0_9e65f98bf6" y="227.270181"/>
    </g>
    <g clip-path="url(#pb137a725cf)">
     <use style="fill:#4c72b0;stroke:#ffffff;stroke-width:0.48;" x="437.48043" xlink:href="#C0_0_9e65f98bf6" y="62.987193"/>
    </g>
    <g clip-path="url(#pb137a725cf)">
     <use style="fill:#4c72b0;stroke:#ffffff;stroke-width:0.48;" x="353.324317" xlink:href="#C0_0_9e65f98bf6" y="203.046548"/>
    </g>
    <g clip-path="url(#pb137a725cf)">
     <use style="fill:#4c72b0;stroke:#ffffff;stroke-width:0.48;" x="356.107771" xlink:href="#C0_0_9e65f98bf6" y="149.957256"/>
    </g>
    <g clip-path="url(#pb137a725cf)">
     <use style="fill:#4c72b0;stroke:#ffffff;stroke-width:0.48;" x="404.709523" xlink:href="#C0_0_9e65f98bf6" y="161.665911"/>
    </g>
    <g clip-path="url(#pb137a725cf)">
     <use style="fill:#4c72b0;stroke:#ffffff;stroke-width:0.48;" x="275.242772" xlink:href="#C0_0_9e65f98bf6" y="62.629182"/>
    </g>
    <g clip-path="url(#pb137a725cf)">
     <use style="fill:#dd8452;stroke:#ffffff;stroke-width:0.48;" x="642.740902" xlink:href="#C0_0_9e65f98bf6" y="176.931245"/>
    </g>
    <g clip-path="url(#pb137a725cf)">
     <use style="fill:#dd8452;stroke:#ffffff;stroke-width:0.48;" x="562.668591" xlink:href="#C0_0_9e65f98bf6" y="205.507263"/>
    </g>
    <g clip-path="url(#pb137a725cf)">
     <use style="fill:#4c72b0;stroke:#ffffff;stroke-width:0.48;" x="354.389406" xlink:href="#C0_0_9e65f98bf6" y="108.110648"/>
    </g>
    <g clip-path="url(#pb137a725cf)">
     <use style="fill:#4c72b0;stroke:#ffffff;stroke-width:0.48;" x="169.511905" xlink:href="#C0_0_9e65f98bf6" y="107.819659"/>
    </g>
    <g clip-path="url(#pb137a725cf)">
     <use style="fill:#4c72b0;stroke:#ffffff;stroke-width:0.48;" x="89.310307" xlink:href="#C0_0_9e65f98bf6" y="179.121867"/>
    </g>
    <g clip-path="url(#pb137a725cf)">
     <use style="fill:#4c72b0;stroke:#ffffff;stroke-width:0.48;" x="411.965829" xlink:href="#C0_0_9e65f98bf6" y="191.823586"/>
    </g>
    <g clip-path="url(#pb137a725cf)">
     <use style="fill:#dd8452;stroke:#ffffff;stroke-width:0.48;" x="633.289675" xlink:href="#C0_0_9e65f98bf6" y="148.802333"/>
    </g>
    <g clip-path="url(#pb137a725cf)">
     <use style="fill:#4c72b0;stroke:#ffffff;stroke-width:0.48;" x="373.183133" xlink:href="#C0_0_9e65f98bf6" y="219.732941"/>
    </g>
    <g clip-path="url(#pb137a725cf)">
     <use style="fill:#4c72b0;stroke:#ffffff;stroke-width:0.48;" x="295.565109" xlink:href="#C0_0_9e65f98bf6" y="184.075696"/>
    </g>
    <g clip-path="url(#pb137a725cf)">
     <use style="fill:#4c72b0;stroke:#ffffff;stroke-width:0.48;" x="220.572033" xlink:href="#C0_0_9e65f98bf6" y="75.976937"/>
    </g>
    <g clip-path="url(#pb137a725cf)">
     <use style="fill:#4c72b0;stroke:#ffffff;stroke-width:0.48;" x="338.781082" xlink:href="#C0_0_9e65f98bf6" y="70.063756"/>
    </g>
    <g clip-path="url(#pb137a725cf)">
     <use style="fill:#4c72b0;stroke:#ffffff;stroke-width:0.48;" x="506.114561" xlink:href="#C0_0_9e65f98bf6" y="44.435687"/>
    </g>
    <g clip-path="url(#pb137a725cf)">
     <use style="fill:#4c72b0;stroke:#ffffff;stroke-width:0.48;" x="443.028613" xlink:href="#C0_0_9e65f98bf6" y="129.929147"/>
    </g>
   </g>
   <g id="PathCollection_2"/>
   <g id="PathCollection_3"/>
   <g id="patch_3">
    <path d="M 57.55 328.223622 
L 57.55 7.2 
" style="fill:none;stroke:#262626;stroke-linecap:square;stroke-linejoin:miter;stroke-width:1.25;"/>
   </g>
   <g id="patch_4">
    <path d="M 716.605118 328.223622 
L 716.605118 7.2 
" style="fill:none;stroke:#262626;stroke-linecap:square;stroke-linejoin:miter;stroke-width:1.25;"/>
   </g>
   <g id="patch_5">
    <path d="M 57.55 328.223622 
L 716.605118 328.223622 
" style="fill:none;stroke:#262626;stroke-linecap:square;stroke-linejoin:miter;stroke-width:1.25;"/>
   </g>
   <g id="patch_6">
    <path d="M 57.55 7.2 
L 716.605118 7.2 
" style="fill:none;stroke:#262626;stroke-linecap:square;stroke-linejoin:miter;stroke-width:1.25;"/>
   </g>
   <g id="legend_1">
    <g id="patch_7">
     <path d="M 617.505118 322.723622 
L 708.905118 322.723622 
Q 711.105118 322.723622 711.105118 320.523622 
L 711.105118 273.603935 
Q 711.105118 271.403935 708.905118 271.403935 
L 617.505118 271.403935 
Q 615.305118 271.403935 615.305118 273.603935 
L 615.305118 320.523622 
Q 615.305118 322.723622 617.505118 322.723622 
z
" style="fill:#ffffff;opacity:0.8;stroke:#cccccc;stroke-linejoin:miter;"/>
    </g>
    <g id="text_19">
     <!-- Failure index ($I$): -->
     <defs>
      <path d="M 8.203125 0 
L 8.203125 71.578125 
L 56.5 71.578125 
L 56.5 63.140625 
L 17.671875 63.140625 
L 17.671875 40.96875 
L 51.265625 40.96875 
L 51.265625 32.515625 
L 17.671875 32.515625 
L 17.671875 0 
z
" id="ArialMT-70"/>
      <path d="M 40.4375 6.390625 
Q 35.546875 2.25 31.03125 0.53125 
Q 26.515625 -1.171875 21.34375 -1.171875 
Q 12.796875 -1.171875 8.203125 3 
Q 3.609375 7.171875 3.609375 13.671875 
Q 3.609375 17.484375 5.34375 20.625 
Q 7.078125 23.78125 9.890625 25.6875 
Q 12.703125 27.59375 16.21875 28.5625 
Q 18.796875 29.25 24.03125 29.890625 
Q 34.671875 31.15625 39.703125 32.90625 
Q 39.75 34.71875 39.75 35.203125 
Q 39.75 40.578125 37.25 42.78125 
Q 33.890625 45.75 27.25 45.75 
Q 21.046875 45.75 18.09375 43.578125 
Q 15.140625 41.40625 13.71875 35.890625 
L 5.125 37.0625 
Q 6.296875 42.578125 8.984375 45.96875 
Q 11.671875 49.359375 16.75 51.1875 
Q 21.828125 53.03125 28.515625 53.03125 
Q 35.15625 53.03125 39.296875 51.46875 
Q 43.453125 49.90625 45.40625 47.53125 
Q 47.359375 45.171875 48.140625 41.546875 
Q 48.578125 39.3125 48.578125 33.453125 
L 48.578125 21.734375 
Q 48.578125 9.46875 49.140625 6.21875 
Q 49.703125 2.984375 51.375 0 
L 42.1875 0 
Q 40.828125 2.734375 40.4375 6.390625 
z
M 39.703125 26.03125 
Q 34.90625 24.078125 25.34375 22.703125 
Q 19.921875 21.921875 17.671875 20.9375 
Q 15.4375 19.96875 14.203125 18.09375 
Q 12.984375 16.21875 12.984375 13.921875 
Q 12.984375 10.40625 15.640625 8.0625 
Q 18.3125 5.71875 23.4375 5.71875 
Q 28.515625 5.71875 32.46875 7.9375 
Q 36.421875 10.15625 38.28125 14.015625 
Q 39.703125 17 39.703125 22.796875 
z
" id="ArialMT-97"/>
      <path d="M 6.640625 61.46875 
L 6.640625 71.578125 
L 15.4375 71.578125 
L 15.4375 61.46875 
z
M 6.640625 0 
L 6.640625 51.859375 
L 15.4375 51.859375 
L 15.4375 0 
z
" id="ArialMT-105"/>
      <path d="M 6.390625 0 
L 6.390625 71.578125 
L 15.1875 71.578125 
L 15.1875 0 
z
" id="ArialMT-108"/>
      <path d="M 40.578125 0 
L 40.578125 7.625 
Q 34.515625 -1.171875 24.125 -1.171875 
Q 19.53125 -1.171875 15.546875 0.578125 
Q 11.578125 2.34375 9.640625 5 
Q 7.71875 7.671875 6.9375 11.53125 
Q 6.390625 14.109375 6.390625 19.734375 
L 6.390625 51.859375 
L 15.1875 51.859375 
L 15.1875 23.09375 
Q 15.1875 16.21875 15.71875 13.8125 
Q 16.546875 10.359375 19.234375 8.375 
Q 21.921875 6.390625 25.875 6.390625 
Q 29.828125 6.390625 33.296875 8.421875 
Q 36.765625 10.453125 38.203125 13.9375 
Q 39.65625 17.4375 39.65625 24.078125 
L 39.65625 51.859375 
L 48.4375 51.859375 
L 48.4375 0 
z
" id="ArialMT-117"/>
      <path d="M 6.5 0 
L 6.5 51.859375 
L 14.40625 51.859375 
L 14.40625 44 
Q 17.4375 49.515625 20 51.265625 
Q 22.5625 53.03125 25.640625 53.03125 
Q 30.078125 53.03125 34.671875 50.203125 
L 31.640625 42.046875 
Q 28.421875 43.953125 25.203125 43.953125 
Q 22.3125 43.953125 20.015625 42.21875 
Q 17.71875 40.484375 16.75 37.40625 
Q 15.28125 32.71875 15.28125 27.15625 
L 15.28125 0 
z
" id="ArialMT-114"/>
      <path d="M 42.09375 16.703125 
L 51.171875 15.578125 
Q 49.03125 7.625 43.21875 3.21875 
Q 37.40625 -1.171875 28.375 -1.171875 
Q 17 -1.171875 10.328125 5.828125 
Q 3.65625 12.84375 3.65625 25.484375 
Q 3.65625 38.578125 10.390625 45.796875 
Q 17.140625 53.03125 27.875 53.03125 
Q 38.28125 53.03125 44.875 45.953125 
Q 51.46875 38.875 51.46875 26.03125 
Q 51.46875 25.25 51.421875 23.6875 
L 12.75 23.6875 
Q 13.234375 15.140625 17.578125 10.59375 
Q 21.921875 6.0625 28.421875 6.0625 
Q 33.25 6.0625 36.671875 8.59375 
Q 40.09375 11.140625 42.09375 16.703125 
z
M 13.234375 30.90625 
L 42.1875 30.90625 
Q 41.609375 37.453125 38.875 40.71875 
Q 34.671875 45.796875 27.984375 45.796875 
Q 21.921875 45.796875 17.796875 41.75 
Q 13.671875 37.703125 13.234375 30.90625 
z
" id="ArialMT-101"/>
      <path id="ArialMT-32"/>
      <path d="M 6.59375 0 
L 6.59375 51.859375 
L 14.5 51.859375 
L 14.5 44.484375 
Q 20.21875 53.03125 31 53.03125 
Q 35.6875 53.03125 39.625 51.34375 
Q 43.5625 49.65625 45.515625 46.921875 
Q 47.46875 44.1875 48.25 40.4375 
Q 48.734375 37.984375 48.734375 31.890625 
L 48.734375 0 
L 39.9375 0 
L 39.9375 31.546875 
Q 39.9375 36.921875 38.90625 39.578125 
Q 37.890625 42.234375 35.28125 43.8125 
Q 32.671875 45.40625 29.15625 45.40625 
Q 23.53125 45.40625 19.453125 41.84375 
Q 15.375 38.28125 15.375 28.328125 
L 15.375 0 
z
" id="ArialMT-110"/>
      <path d="M 40.234375 0 
L 40.234375 6.546875 
Q 35.296875 -1.171875 25.734375 -1.171875 
Q 19.53125 -1.171875 14.328125 2.25 
Q 9.125 5.671875 6.265625 11.796875 
Q 3.421875 17.921875 3.421875 25.875 
Q 3.421875 33.640625 6 39.96875 
Q 8.59375 46.296875 13.765625 49.65625 
Q 18.953125 53.03125 25.34375 53.03125 
Q 30.03125 53.03125 33.6875 51.046875 
Q 37.359375 49.078125 39.65625 45.90625 
L 39.65625 71.578125 
L 48.390625 71.578125 
L 48.390625 0 
z
M 12.453125 25.875 
Q 12.453125 15.921875 16.640625 10.984375 
Q 20.84375 6.0625 26.5625 6.0625 
Q 32.328125 6.0625 36.34375 10.765625 
Q 40.375 15.484375 40.375 25.140625 
Q 40.375 35.796875 36.265625 40.765625 
Q 32.171875 45.75 26.171875 45.75 
Q 20.3125 45.75 16.375 40.96875 
Q 12.453125 36.1875 12.453125 25.875 
z
" id="ArialMT-100"/>
      <path d="M 0.734375 0 
L 19.671875 26.953125 
L 2.15625 51.859375 
L 13.140625 51.859375 
L 21.09375 39.703125 
Q 23.34375 36.234375 24.703125 33.890625 
Q 26.859375 37.109375 28.65625 39.59375 
L 37.40625 51.859375 
L 47.90625 51.859375 
L 29.984375 27.4375 
L 49.265625 0 
L 38.484375 0 
L 27.828125 16.109375 
L 25 20.453125 
L 11.375 0 
z
" id="ArialMT-120"/>
      <path d="M 23.390625 -21.046875 
Q 16.109375 -11.859375 11.078125 0.4375 
Q 6.0625 12.75 6.0625 25.921875 
Q 6.0625 37.546875 9.8125 48.1875 
Q 14.203125 60.546875 23.390625 72.796875 
L 29.6875 72.796875 
Q 23.78125 62.640625 21.875 58.296875 
Q 18.890625 51.5625 17.1875 44.234375 
Q 15.09375 35.109375 15.09375 25.875 
Q 15.09375 2.390625 29.6875 -21.046875 
z
" id="ArialMT-40"/>
      <path d="M 16.890625 72.90625 
L 26.8125 72.90625 
L 12.59375 0 
L 2.6875 0 
z
" id="DejaVuSans-Oblique-73"/>
      <path d="M 12.359375 -21.046875 
L 6.0625 -21.046875 
Q 20.65625 2.390625 20.65625 25.875 
Q 20.65625 35.0625 18.5625 44.09375 
Q 16.890625 51.421875 13.921875 58.15625 
Q 12.015625 62.546875 6.0625 72.796875 
L 12.359375 72.796875 
Q 21.53125 60.546875 25.921875 48.1875 
Q 29.6875 37.546875 29.6875 25.921875 
Q 29.6875 12.75 24.625 0.4375 
Q 19.578125 -11.859375 12.359375 -21.046875 
z
" id="ArialMT-41"/>
      <path d="M 9.03125 41.84375 
L 9.03125 51.859375 
L 19.046875 51.859375 
L 19.046875 41.84375 
z
M 9.03125 0 
L 9.03125 10.015625 
L 19.046875 10.015625 
L 19.046875 0 
z
" id="ArialMT-58"/>
     </defs>
     <g style="fill:#262626;" transform="translate(619.705118 284.563935)scale(0.12 -0.12)">
      <use transform="translate(0 0.09375)" xlink:href="#ArialMT-70"/>
      <use transform="translate(61.083984 0.09375)" xlink:href="#ArialMT-97"/>
      <use transform="translate(116.699219 0.09375)" xlink:href="#ArialMT-105"/>
      <use transform="translate(138.916016 0.09375)" xlink:href="#ArialMT-108"/>
      <use transform="translate(161.132812 0.09375)" xlink:href="#ArialMT-117"/>
      <use transform="translate(216.748047 0.09375)" xlink:href="#ArialMT-114"/>
      <use transform="translate(250.048828 0.09375)" xlink:href="#ArialMT-101"/>
      <use transform="translate(305.664062 0.09375)" xlink:href="#ArialMT-32"/>
      <use transform="translate(333.447266 0.09375)" xlink:href="#ArialMT-105"/>
      <use transform="translate(355.664062 0.09375)" xlink:href="#ArialMT-110"/>
      <use transform="translate(411.279297 0.09375)" xlink:href="#ArialMT-100"/>
      <use transform="translate(466.894531 0.09375)" xlink:href="#ArialMT-101"/>
      <use transform="translate(522.509766 0.09375)" xlink:href="#ArialMT-120"/>
      <use transform="translate(572.509766 0.09375)" xlink:href="#ArialMT-32"/>
      <use transform="translate(600.292969 0.09375)" xlink:href="#ArialMT-40"/>
      <use transform="translate(633.59375 0.09375)" xlink:href="#DejaVuSans-Oblique-73"/>
      <use transform="translate(663.085938 0.09375)" xlink:href="#ArialMT-41"/>
      <use transform="translate(696.386719 0.09375)" xlink:href="#ArialMT-58"/>
     </g>
    </g>
    <g id="PathCollection_4">
     <defs>
      <path d="M 0 3 
C 0.795609 3 1.55874 2.683901 2.12132 2.12132 
C 2.683901 1.55874 3 0.795609 3 0 
C 3 -0.795609 2.683901 -1.55874 2.12132 -2.12132 
C 1.55874 -2.683901 0.795609 -3 0 -3 
C -0.795609 -3 -1.55874 -2.683901 -2.12132 -2.12132 
C -2.683901 -1.55874 -3 -0.795609 -3 0 
C -3 0.795609 -2.683901 1.55874 -2.12132 2.12132 
C -1.55874 2.683901 -0.795609 3 0 3 
z
" id="m3b461215ec" style="stroke:#4c72b0;"/>
     </defs>
     <g>
      <use style="fill:#4c72b0;stroke:#4c72b0;" x="651.160118" xlink:href="#m3b461215ec" y="297.690028"/>
     </g>
    </g>
    <g id="text_20">
     <!-- 0.0 -->
     <g style="fill:#262626;" transform="translate(670.960118 300.577528)scale(0.11 -0.11)">
      <use xlink:href="#ArialMT-48"/>
      <use x="55.615234" xlink:href="#ArialMT-46"/>
      <use x="83.398438" xlink:href="#ArialMT-48"/>
     </g>
    </g>
    <g id="PathCollection_5">
     <defs>
      <path d="M 0 3 
C 0.795609 3 1.55874 2.683901 2.12132 2.12132 
C 2.683901 1.55874 3 0.795609 3 0 
C 3 -0.795609 2.683901 -1.55874 2.12132 -2.12132 
C 1.55874 -2.683901 0.795609 -3 0 -3 
C -0.795609 -3 -1.55874 -2.683901 -2.12132 -2.12132 
C -2.683901 -1.55874 -3 -0.795609 -3 0 
C -3 0.795609 -2.683901 1.55874 -2.12132 2.12132 
C -1.55874 2.683901 -0.795609 3 0 3 
z
" id="m690758ffad" style="stroke:#dd8452;"/>
     </defs>
     <g>
      <use style="fill:#dd8452;stroke:#dd8452;" x="651.160118" xlink:href="#m690758ffad" y="313.249872"/>
     </g>
    </g>
    <g id="text_21">
     <!-- 1.0 -->
     <g style="fill:#262626;" transform="translate(670.960118 316.137372)scale(0.11 -0.11)">
      <use xlink:href="#ArialMT-49"/>
      <use x="55.615234" xlink:href="#ArialMT-46"/>
      <use x="83.398438" xlink:href="#ArialMT-48"/>
     </g>
    </g>
   </g>
  </g>
 </g>
 <defs>
  <clipPath id="pb137a725cf">
   <rect height="321.023622" width="659.055118" x="57.55" y="7.2"/>
  </clipPath>
 </defs>
</svg>
